<svg width="1334" height="621" viewBox="0 0 1334 621" fill="none" xmlns="http://www.w3.org/2000/svg">
<g clip-path="url(#clip0_47_6)">
<g clip-path="url(#clip1_47_6)">
<path d="M674.828 1.13833L809.447 3.49795L868.774 1.13833L1102.09 2.07765L1180.54 0L1252.07 1.13833H1334V165.253V240.96V296.478L1332.69 337.601L1334 347.878L1333.34 354.442L1334 620.433H1189.85L1183.24 621L991.038 620.433L744.127 620.786L674.828 620.433V531.169V304.049L674 153.315L674.828 76.8659V1.13833Z" stroke="black" stroke-width="2" stroke-linejoin="round"/>
</g>
<g clip-path="url(#clip2_47_6)">
<path d="M0.828257 1.13833L135.447 3.49795L194.774 1.13833L428.093 2.07765L506.544 0L578.066 1.13833H660V165.253V240.96V296.478L658.693 337.601L660 347.878L659.343 354.442L660 620.433H515.854L509.244 621L317.038 620.433L70.1268 620.786L0.828257 620.433V531.169V304.049L0 153.315L0.828257 76.8659V1.13833Z" stroke="black" stroke-width="2" stroke-linejoin="round"/>
</g>
<rect x="1" y="3" width="164" height="28" fill="white"/>
<rect x="1" y="3" width="164" height="28" stroke="black" stroke-width="2"/>
<path d="M21.2568 17.338C21.2808 17.758 21.2388 18.178 21.1308 18.598C21.0228 19.03 20.8248 19.384 20.5368 19.66C20.1768 20.008 19.7808 20.356 19.3488 20.704C18.9168 21.064 18.4728 21.34 18.0168 21.532C17.7288 21.64 17.4348 21.724 17.1348 21.784L16.2168 22C15.9528 22.06 15.7068 22.126 15.4788 22.198C15.2508 22.282 15.0048 22.324 14.7408 22.324C14.2848 22.324 13.8708 22.27 13.4988 22.162C13.1148 22.054 12.7428 21.85 12.3828 21.55C12.0348 21.286 11.8068 21.016 11.6988 20.74C11.5908 20.476 11.5368 20.116 11.5368 19.66C11.5368 19.084 11.6088 18.52 11.7528 17.968C11.8968 17.428 12.1248 16.93 12.4368 16.474C12.6408 16.198 12.8088 15.928 12.9408 15.664C13.0728 15.4 13.2648 15.154 13.5168 14.926C13.7568 14.71 13.9968 14.476 14.2368 14.224C14.4768 13.972 14.7168 13.744 14.9568 13.54C15.2688 13.288 15.5568 13.066 15.8208 12.874C16.0848 12.682 16.4028 12.52 16.7748 12.388C16.9668 12.328 17.1828 12.268 17.4228 12.208C17.6628 12.16 17.9028 12.136 18.1428 12.136C18.4068 12.136 18.6588 12.172 18.8988 12.244C19.1268 12.316 19.3248 12.436 19.4928 12.604C19.7688 12.892 20.0448 13.222 20.3208 13.594C20.5968 13.978 20.8068 14.35 20.9508 14.71C21.0348 14.902 21.0948 15.106 21.1308 15.322C21.1668 15.55 21.1968 15.778 21.2208 16.006C21.2328 16.234 21.2388 16.462 21.2388 16.69C21.2388 16.918 21.2448 17.134 21.2568 17.338ZM19.9608 18.562C20.0568 18.358 20.1348 18.118 20.1948 17.842C20.2428 17.566 20.2668 17.29 20.2668 17.014L20.2488 16.582C20.2368 16.438 20.2128 16.312 20.1768 16.204C20.1048 15.964 19.9788 15.736 19.7988 15.52C19.6068 15.316 19.4508 15.118 19.3308 14.926C19.1628 14.686 19.0008 14.53 18.8448 14.458C18.6768 14.386 18.4788 14.32 18.2508 14.26C18.1548 14.236 18.0348 14.212 17.8908 14.188C17.7468 14.164 17.6268 14.14 17.5308 14.116C17.4348 14.092 17.3388 14.086 17.2428 14.098L16.9548 14.134C16.7268 14.158 16.5228 14.212 16.3428 14.296C16.1508 14.392 15.9528 14.482 15.7488 14.566C15.4488 14.674 15.1608 14.836 14.8848 15.052C14.5968 15.268 14.3388 15.514 14.1108 15.79C13.8708 16.066 13.6608 16.36 13.4808 16.672C13.2888 16.996 13.1388 17.314 13.0308 17.626C12.9708 17.806 12.9168 17.998 12.8688 18.202C12.8208 18.406 12.7968 18.616 12.7968 18.832C12.7968 19.144 12.8568 19.438 12.9768 19.714C13.0128 19.798 13.0728 19.858 13.1568 19.894C13.2288 19.942 13.3188 19.978 13.4268 20.002L13.7328 20.056C13.8288 20.08 13.9188 20.11 14.0028 20.146C14.0988 20.194 14.2368 20.224 14.4168 20.236C14.5848 20.248 14.7168 20.266 14.8128 20.29C14.9448 20.302 15.0768 20.32 15.2088 20.344C15.3288 20.38 15.4548 20.392 15.5868 20.38C15.8268 20.356 16.0788 20.326 16.3428 20.29C16.6068 20.254 16.8528 20.194 17.0808 20.11C17.2848 20.026 17.4888 19.966 17.6928 19.93C17.8968 19.894 18.0948 19.828 18.2868 19.732C18.5988 19.588 18.9168 19.438 19.2408 19.282C19.5528 19.126 19.7928 18.886 19.9608 18.562ZM29.2451 19.57C29.2091 19.414 29.1611 19.258 29.1011 19.102C29.0051 18.85 28.9091 18.586 28.8131 18.31L28.4891 17.5C28.4171 17.284 28.3331 17.062 28.2371 16.834L27.9311 16.168L27.7511 15.736C27.6791 15.58 27.6131 15.424 27.5531 15.268C27.5531 15.208 27.5291 15.118 27.4811 14.998L27.3191 14.71C27.2711 14.602 27.2351 14.506 27.2111 14.422C27.1751 14.338 27.1631 14.284 27.1751 14.26C26.9951 14.596 26.8271 14.98 26.6711 15.412C26.4911 15.832 26.3351 16.186 26.2031 16.474C26.0231 16.858 25.8611 17.242 25.7171 17.626C25.5611 18.01 25.3991 18.394 25.2311 18.778C25.1711 18.946 25.1111 19.132 25.0511 19.336C24.9791 19.552 24.9071 19.762 24.8351 19.966C24.7871 20.062 24.7451 20.158 24.7091 20.254L24.8171 20.236C25.2491 20.2 25.6991 20.158 26.1671 20.11C27.0671 19.942 28.0931 19.762 29.2451 19.57ZM23.4671 20.308C23.4911 20.272 23.5091 20.236 23.5211 20.2C23.6291 19.996 23.7191 19.798 23.7911 19.606L24.4751 17.896C24.7031 17.332 24.9371 16.768 25.1771 16.204C25.4171 15.664 25.6451 15.124 25.8611 14.584L26.5271 12.982C26.5991 12.79 26.6531 12.592 26.6891 12.388C26.7251 12.196 26.8151 12.022 26.9591 11.866C27.1271 11.71 27.3011 11.632 27.4811 11.632C27.6611 11.632 27.8291 11.74 27.9851 11.956C28.2011 12.316 28.3631 12.712 28.4711 13.144C28.5911 13.564 28.7531 13.966 28.9571 14.35L29.6591 15.736C29.8991 16.192 30.1031 16.654 30.2711 17.122C30.4031 17.434 30.5291 17.752 30.6491 18.076C30.7691 18.412 30.8291 18.748 30.8291 19.084C30.8291 19.168 30.8231 19.252 30.8111 19.336C30.8951 19.324 30.9791 19.312 31.0631 19.3C31.1111 19.264 31.1651 19.24 31.2251 19.228C31.3331 19.204 31.4351 19.198 31.5311 19.21L31.7651 19.174L31.9631 19.192C32.0351 19.204 32.0951 19.222 32.1431 19.246C32.2391 19.366 32.2871 19.468 32.2871 19.552C32.2871 19.612 32.2751 19.678 32.2511 19.75C32.3111 19.87 32.3471 19.966 32.3591 20.038C32.3831 20.434 32.3531 20.824 32.2691 21.208L32.0351 22.396C32.0231 22.492 31.9811 22.594 31.9091 22.702C31.8131 22.81 31.6991 22.888 31.5671 22.936C31.4591 22.96 31.3391 22.966 31.2071 22.954C31.0751 22.942 30.9791 22.912 30.9191 22.864C30.7511 22.732 30.6851 22.558 30.7211 22.342C30.7691 22.138 30.7991 21.958 30.8111 21.802C30.8351 21.562 30.8591 21.31 30.8831 21.046V20.704C30.7031 20.74 30.4691 20.788 30.1811 20.848C28.7171 21.088 27.4631 21.328 26.4191 21.568C26.0231 21.628 25.6511 21.682 25.3031 21.73C24.9551 21.778 24.6911 21.82 24.5111 21.856L24.3311 21.874L24.1691 21.892C24.0491 21.916 23.9591 21.928 23.8991 21.928C23.7191 21.94 23.5751 21.982 23.4671 22.054C23.4071 22.078 23.3591 22.126 23.3231 22.198L23.2871 22.432C23.2871 22.552 23.3171 22.9 23.3771 23.476C23.4491 24.064 23.3411 24.34 23.0531 24.304C22.7411 24.268 22.4951 24.178 22.3151 24.034C22.1831 23.962 22.0931 23.842 22.0451 23.674C21.9971 23.506 21.9731 23.32 21.9731 23.116C21.9731 22.828 21.9851 22.642 22.0091 22.558C21.9731 22.33 21.9551 22.108 21.9551 21.892C21.9431 21.652 21.9191 21.424 21.8831 21.208C21.8591 21.088 21.8771 20.968 21.9371 20.848C21.9971 20.716 22.0631 20.59 22.1351 20.47C22.2071 20.362 22.2971 20.296 22.4051 20.272C22.5131 20.236 22.6211 20.23 22.7291 20.254C22.9211 20.242 23.0831 20.254 23.2151 20.29C23.2871 20.302 23.3711 20.308 23.4671 20.308ZM41.3985 13.396C41.3985 13.78 41.3805 14.164 41.3445 14.548C41.3085 14.932 41.2845 15.316 41.2725 15.7C41.2485 16.528 41.2305 17.35 41.2185 18.166C41.2065 18.982 41.2005 19.804 41.2005 20.632C41.2005 20.752 41.1945 20.926 41.1825 21.154C41.1585 21.382 41.1165 21.592 41.0565 21.784C40.9965 21.988 40.9125 22.138 40.8045 22.234C40.6845 22.342 40.5345 22.33 40.3545 22.198C40.2825 22.138 40.2225 22.084 40.1745 22.036C40.1265 22 40.0905 21.934 40.0665 21.838C40.0545 21.718 40.0485 21.598 40.0485 21.478V20.146C40.0485 19.822 40.0545 19.492 40.0665 19.156C40.0665 18.916 40.0125 18.712 39.9045 18.544C39.7965 18.376 39.6225 18.274 39.3825 18.238C39.2865 18.214 39.1905 18.202 39.0945 18.202L38.8065 18.22L38.2845 18.256C38.1045 18.268 37.9305 18.286 37.7625 18.31C37.2465 18.37 36.8145 18.442 36.4665 18.526C36.1185 18.61 35.7825 18.688 35.4585 18.76C35.3865 18.784 35.3085 18.814 35.2245 18.85C35.0685 18.91 34.9605 18.982 34.9005 19.066C34.8405 19.15 34.7985 19.258 34.7745 19.39C34.7745 19.798 34.7685 20.2 34.7565 20.596C34.7325 20.992 34.7205 21.388 34.7205 21.784V22.072C34.7085 22.18 34.6845 22.276 34.6485 22.36C34.6125 22.444 34.5585 22.498 34.4865 22.522C34.4145 22.558 34.3185 22.534 34.1985 22.45C34.0185 22.318 33.9105 22.186 33.8745 22.054C33.8265 21.922 33.7905 21.754 33.7665 21.55C33.7425 21.454 33.7305 21.328 33.7305 21.172C33.7305 21.028 33.7245 20.902 33.7125 20.794C33.6885 20.494 33.6945 20.2 33.7305 19.912C33.7545 19.636 33.7785 19.348 33.8025 19.048V17.23C33.8145 17.062 33.8205 16.888 33.8205 16.708V15.79C33.8205 15.67 33.8145 15.544 33.8025 15.412C33.7905 15.172 33.7965 14.926 33.8205 14.674L33.8745 13.918C33.8985 13.69 33.9285 13.474 33.9645 13.27C34.0005 13.078 34.0785 12.88 34.1985 12.676C34.3185 12.496 34.4505 12.418 34.5945 12.442C34.7385 12.478 34.8345 12.598 34.8825 12.802C34.9425 12.994 34.9785 13.204 34.9905 13.432C35.0025 13.672 35.0085 13.894 35.0085 14.098C35.0085 14.446 34.9905 14.794 34.9545 15.142C34.9065 15.49 34.8705 15.844 34.8465 16.204C34.8585 16.372 34.9005 16.516 34.9725 16.636C35.0445 16.756 35.1945 16.828 35.4225 16.852C35.7105 16.852 36.0225 16.804 36.3585 16.708C36.6825 16.612 36.9885 16.552 37.2765 16.528L38.3205 16.456L39.3465 16.402C39.5265 16.366 39.6765 16.306 39.7965 16.222C39.9045 16.138 39.9885 16.012 40.0485 15.844L40.0845 15.574L40.1205 15.304L40.1565 14.296C40.1565 13.972 40.1685 13.648 40.1925 13.324V13.036L40.2105 12.712L40.2645 12.388C40.2885 12.292 40.3245 12.214 40.3725 12.154C40.5045 11.986 40.6485 11.914 40.8045 11.938C40.9485 11.974 41.0685 12.076 41.1645 12.244C41.2845 12.424 41.3565 12.61 41.3805 12.802C41.3925 12.994 41.3985 13.192 41.3985 13.396ZM50.6103 18.94C50.6463 19.084 50.6883 19.252 50.7363 19.444C50.7843 19.648 50.8263 19.852 50.8623 20.056C50.8983 20.26 50.9223 20.464 50.9343 20.668C50.9463 20.872 50.9343 21.046 50.8983 21.19C50.8263 21.574 50.6403 21.886 50.3403 22.126C50.1963 22.258 50.0763 22.288 49.9803 22.216C49.8723 22.144 49.7883 22.03 49.7283 21.874C49.6563 21.718 49.6023 21.55 49.5663 21.37C49.5303 21.202 49.5063 21.076 49.4943 20.992C49.4463 20.764 49.3983 20.542 49.3503 20.326C49.2903 20.122 49.2303 19.906 49.1703 19.678C49.1583 19.678 49.1463 19.648 49.1343 19.588L49.0803 19.39L49.0263 19.21L48.9903 19.138C48.7023 19.162 48.4203 19.174 48.1443 19.174C47.8683 19.186 47.6103 19.204 47.3703 19.228C47.0583 19.252 46.8063 19.276 46.6143 19.3C46.4103 19.336 46.1523 19.384 45.8403 19.444C45.5523 19.516 45.2643 19.576 44.9763 19.624C44.6883 19.672 44.3883 19.732 44.0763 19.804C44.0643 19.864 44.0283 19.96 43.9683 20.092C43.9083 20.236 43.8423 20.38 43.7703 20.524L43.5543 20.974C43.4823 21.13 43.4283 21.244 43.3923 21.316C43.3563 21.388 43.3203 21.478 43.2843 21.586C43.2483 21.694 43.2063 21.796 43.1583 21.892C43.1103 22 43.0503 22.09 42.9783 22.162C42.8943 22.234 42.7983 22.27 42.6903 22.27C42.5103 22.27 42.3843 22.192 42.3123 22.036C42.2403 21.88 42.1983 21.718 42.1863 21.55C42.1863 21.466 42.2043 21.358 42.2403 21.226C42.2643 21.094 42.3003 20.956 42.3483 20.812C42.3843 20.68 42.4323 20.548 42.4923 20.416L42.6183 20.11C42.6663 19.966 42.7143 19.84 42.7623 19.732C42.8103 19.624 42.8583 19.522 42.9063 19.426L43.0323 19.156C43.0683 19.072 43.1163 18.97 43.1763 18.85C43.3323 18.538 43.4763 18.244 43.6083 17.968C43.7403 17.704 43.8843 17.416 44.0403 17.104C44.2443 16.72 44.4363 16.378 44.6163 16.078C44.7843 15.79 44.9823 15.472 45.2103 15.124C45.3783 14.848 45.5403 14.578 45.6963 14.314C45.8523 14.062 46.0143 13.798 46.1823 13.522C46.3143 13.318 46.4703 13.126 46.6503 12.946L47.1903 12.442C47.3103 12.346 47.4363 12.232 47.5683 12.1C47.6883 11.98 47.8323 11.926 48.0003 11.938C48.1923 11.962 48.3483 12.04 48.4683 12.172C48.5763 12.316 48.6483 12.466 48.6843 12.622C48.7443 12.814 48.8163 12.994 48.9003 13.162C48.9843 13.342 49.0623 13.528 49.1343 13.72C49.2303 13.972 49.3203 14.206 49.4043 14.422C49.4763 14.65 49.5483 14.866 49.6203 15.07L49.8183 15.718C49.8783 15.946 49.9503 16.186 50.0343 16.438C50.1183 16.678 50.1903 16.918 50.2503 17.158C50.2983 17.398 50.3583 17.674 50.4303 17.986C50.4543 18.094 50.4843 18.25 50.5203 18.454C50.5563 18.67 50.5863 18.832 50.6103 18.94ZM46.2543 17.662C46.5063 17.626 46.7223 17.602 46.9023 17.59L47.4063 17.554L47.8923 17.518C48.0603 17.506 48.2643 17.482 48.5043 17.446C48.4923 17.41 48.4743 17.344 48.4503 17.248C48.4143 17.152 48.3783 17.044 48.3423 16.924C48.3063 16.804 48.2703 16.69 48.2343 16.582C48.1983 16.486 48.1743 16.42 48.1623 16.384C48.1143 16.252 48.0723 16.12 48.0363 15.988C48.0003 15.868 47.9343 15.7 47.8383 15.484C47.7663 15.316 47.6823 15.118 47.5863 14.89C47.4903 14.674 47.3403 14.518 47.1363 14.422C47.0403 14.506 46.9203 14.626 46.7763 14.782C46.6323 14.95 46.5363 15.076 46.4883 15.16C46.1883 15.664 45.9063 16.114 45.6423 16.51C45.3663 16.918 45.0963 17.374 44.8323 17.878C44.9883 17.818 45.2103 17.77 45.4983 17.734C45.7743 17.71 46.0263 17.686 46.2543 17.662ZM58.2736 16.042C58.3096 16.006 58.3516 15.97 58.3996 15.934L58.8496 15.556C59.2456 15.196 59.6356 14.83 60.0196 14.458C60.3916 14.098 60.7576 13.726 61.1176 13.342L61.4956 13C61.6156 12.88 61.7236 12.748 61.8196 12.604C61.9156 12.496 62.0476 12.364 62.2156 12.208C62.3716 12.064 62.5456 11.932 62.7376 11.812C62.9056 11.692 63.0796 11.596 63.2596 11.524C63.4156 11.464 63.5536 11.446 63.6736 11.47C63.9016 11.542 64.0156 11.674 64.0156 11.866C64.0156 11.974 63.9916 12.076 63.9436 12.172C63.8956 12.28 63.8476 12.358 63.7996 12.406C63.6316 12.55 63.4756 12.682 63.3316 12.802C63.1756 12.934 63.0196 13.072 62.8636 13.216C62.7916 13.288 62.6956 13.378 62.5756 13.486C62.4556 13.594 62.3596 13.69 62.2876 13.774C62.1796 13.87 62.0956 13.948 62.0356 14.008C61.9636 14.068 61.8796 14.146 61.7836 14.242L61.1716 14.782C60.9556 14.986 60.7576 15.172 60.5776 15.34C60.4816 15.424 60.4276 15.472 60.4156 15.484C60.4036 15.496 60.3556 15.556 60.2716 15.664C60.2116 15.724 60.1216 15.82 60.0016 15.952C59.8936 16.072 59.8336 16.174 59.8216 16.258C59.8216 16.426 59.8816 16.6 60.0016 16.78C60.1816 16.96 60.3856 17.14 60.6136 17.32C60.8176 17.5 61.0276 17.656 61.2436 17.788L61.9816 18.274L62.7376 18.778C62.9056 18.898 63.0736 19.024 63.2416 19.156C63.3976 19.288 63.4996 19.456 63.5476 19.66C63.5596 19.72 63.5716 19.81 63.5836 19.93V20.254C63.5716 20.386 63.5476 20.506 63.5116 20.614C63.4756 20.734 63.4336 20.83 63.3856 20.902C63.3136 20.974 63.2416 21.022 63.1696 21.046C63.1096 21.058 63.0556 21.046 63.0076 21.01C62.9476 20.986 62.8876 20.944 62.8276 20.884C62.7676 20.836 62.7076 20.794 62.6476 20.758C62.4916 20.626 62.3176 20.506 62.1256 20.398C61.9456 20.278 61.7656 20.152 61.5856 20.02L60.7396 19.426L59.8756 18.814C59.6956 18.682 59.5156 18.55 59.3356 18.418C59.1676 18.286 58.9816 18.154 58.7776 18.022L58.3816 17.734C58.3216 17.71 58.2676 17.68 58.2196 17.644C58.1956 18.316 58.1896 18.79 58.2016 19.066C58.2136 19.438 58.2256 19.756 58.2376 20.02C58.2616 20.224 58.2676 20.416 58.2556 20.596C58.2316 20.788 58.1716 20.956 58.0756 21.1C57.8956 21.364 57.7456 21.508 57.6256 21.532C57.4816 21.568 57.3676 21.532 57.2836 21.424C57.1876 21.316 57.1216 21.16 57.0856 20.956C57.0376 20.752 57.0196 20.554 57.0316 20.362L57.0676 19.444C57.0796 19.156 57.0856 18.856 57.0856 18.544C57.0976 18.268 57.1096 17.962 57.1216 17.626C57.0976 17.65 57.0676 17.674 57.0316 17.698C56.8636 17.83 56.7076 17.968 56.5636 18.112C55.7836 18.808 55.0216 19.54 54.2776 20.308L53.9356 20.668C53.8156 20.788 53.7076 20.914 53.6116 21.046C53.5036 21.166 53.3656 21.298 53.1976 21.442C53.0416 21.598 52.8736 21.736 52.6936 21.856C52.5256 21.976 52.3576 22.072 52.1896 22.144C52.0216 22.204 51.8776 22.222 51.7576 22.198C51.5296 22.126 51.4156 21.994 51.4156 21.802C51.4156 21.694 51.4396 21.586 51.4876 21.478C51.5356 21.37 51.5836 21.292 51.6316 21.244C51.7996 21.1 51.9556 20.968 52.0996 20.848C52.2556 20.74 52.4056 20.614 52.5496 20.47C52.6336 20.374 52.7356 20.278 52.8556 20.182C52.9636 20.074 53.0536 19.972 53.1256 19.876C53.2336 19.78 53.3236 19.702 53.3956 19.642C53.4676 19.594 53.5516 19.516 53.6476 19.408C53.8636 19.24 54.0676 19.066 54.2596 18.886L54.8536 18.346C54.9376 18.238 54.9916 18.178 55.0156 18.166C55.0276 18.154 55.0696 18.1 55.1416 18.004L55.4296 17.716C55.5376 17.596 55.5916 17.5 55.5916 17.428C55.6156 17.224 55.5556 17.044 55.4116 16.888C55.2436 16.696 55.0456 16.51 54.8176 16.33C54.6016 16.162 54.3856 16.018 54.1696 15.898L53.4496 15.394C53.1976 15.25 52.9456 15.088 52.6936 14.908L52.1896 14.512C52.0336 14.392 51.9316 14.23 51.8836 14.026C51.8596 13.954 51.8476 13.858 51.8476 13.738C51.8356 13.63 51.8356 13.516 51.8476 13.396C51.8596 13.264 51.8836 13.144 51.9196 13.036C51.9436 12.928 51.9856 12.838 52.0456 12.766C52.1896 12.598 52.3156 12.556 52.4236 12.64L52.7656 12.91C52.9336 13.042 53.1136 13.168 53.3056 13.288L53.8276 13.63L54.6916 14.224C54.9676 14.44 55.2556 14.65 55.5556 14.854L56.0956 15.232C56.2636 15.376 56.4436 15.514 56.6356 15.646C56.7796 15.742 56.9236 15.832 57.0676 15.916C57.0916 15.94 57.1216 15.964 57.1576 15.988V14.746C57.1576 14.65 57.1516 14.548 57.1396 14.44C57.1156 14.14 57.0856 13.852 57.0496 13.576C57.0136 13.3 56.9896 13.024 56.9776 12.748C56.9536 12.52 56.9776 12.334 57.0496 12.19C57.1216 12.034 57.2296 11.878 57.3736 11.722C57.5776 11.542 57.7576 11.506 57.9136 11.614C58.0216 11.626 58.1176 11.662 58.2016 11.722C58.2856 11.794 58.3396 11.89 58.3636 12.01C58.3756 12.082 58.3756 12.172 58.3636 12.28C58.3516 12.388 58.3396 12.49 58.3276 12.586V14.152C58.3156 14.464 58.3036 14.752 58.2916 15.016V15.214L58.2556 15.394C58.2676 15.454 58.2736 15.67 58.2736 16.042ZM71.8193 19.57C71.7833 19.414 71.7353 19.258 71.6753 19.102C71.5793 18.85 71.4833 18.586 71.3873 18.31L71.0633 17.5C70.9913 17.284 70.9073 17.062 70.8113 16.834L70.5053 16.168L70.3253 15.736C70.2533 15.58 70.1873 15.424 70.1273 15.268C70.1273 15.208 70.1033 15.118 70.0553 14.998L69.8933 14.71C69.8453 14.602 69.8093 14.506 69.7853 14.422C69.7493 14.338 69.7373 14.284 69.7493 14.26C69.5693 14.596 69.4013 14.98 69.2453 15.412C69.0653 15.832 68.9093 16.186 68.7773 16.474C68.5973 16.858 68.4353 17.242 68.2913 17.626C68.1353 18.01 67.9733 18.394 67.8053 18.778C67.7453 18.946 67.6853 19.132 67.6253 19.336C67.5533 19.552 67.4813 19.762 67.4093 19.966C67.3613 20.062 67.3193 20.158 67.2833 20.254L67.3913 20.236C67.8233 20.2 68.2733 20.158 68.7413 20.11C69.6413 19.942 70.6673 19.762 71.8193 19.57ZM66.0413 20.308C66.0653 20.272 66.0833 20.236 66.0953 20.2C66.2033 19.996 66.2933 19.798 66.3653 19.606L67.0493 17.896C67.2773 17.332 67.5113 16.768 67.7513 16.204C67.9913 15.664 68.2193 15.124 68.4353 14.584L69.1013 12.982C69.1733 12.79 69.2273 12.592 69.2633 12.388C69.2993 12.196 69.3893 12.022 69.5333 11.866C69.7013 11.71 69.8753 11.632 70.0553 11.632C70.2353 11.632 70.4033 11.74 70.5593 11.956C70.7753 12.316 70.9373 12.712 71.0453 13.144C71.1653 13.564 71.3273 13.966 71.5313 14.35L72.2333 15.736C72.4733 16.192 72.6773 16.654 72.8453 17.122C72.9773 17.434 73.1033 17.752 73.2233 18.076C73.3433 18.412 73.4033 18.748 73.4033 19.084C73.4033 19.168 73.3973 19.252 73.3853 19.336C73.4693 19.324 73.5533 19.312 73.6373 19.3C73.6853 19.264 73.7393 19.24 73.7993 19.228C73.9073 19.204 74.0093 19.198 74.1053 19.21L74.3393 19.174L74.5373 19.192C74.6093 19.204 74.6693 19.222 74.7173 19.246C74.8133 19.366 74.8613 19.468 74.8613 19.552C74.8613 19.612 74.8493 19.678 74.8253 19.75C74.8853 19.87 74.9213 19.966 74.9333 20.038C74.9573 20.434 74.9273 20.824 74.8433 21.208L74.6093 22.396C74.5973 22.492 74.5553 22.594 74.4833 22.702C74.3873 22.81 74.2733 22.888 74.1413 22.936C74.0333 22.96 73.9133 22.966 73.7813 22.954C73.6493 22.942 73.5533 22.912 73.4933 22.864C73.3253 22.732 73.2593 22.558 73.2953 22.342C73.3433 22.138 73.3733 21.958 73.3853 21.802C73.4093 21.562 73.4333 21.31 73.4573 21.046V20.704C73.2773 20.74 73.0433 20.788 72.7553 20.848C71.2913 21.088 70.0373 21.328 68.9933 21.568C68.5973 21.628 68.2253 21.682 67.8773 21.73C67.5293 21.778 67.2653 21.82 67.0853 21.856L66.9053 21.874L66.7433 21.892C66.6233 21.916 66.5333 21.928 66.4733 21.928C66.2933 21.94 66.1493 21.982 66.0413 22.054C65.9813 22.078 65.9333 22.126 65.8973 22.198L65.8613 22.432C65.8613 22.552 65.8913 22.9 65.9513 23.476C66.0233 24.064 65.9153 24.34 65.6273 24.304C65.3153 24.268 65.0693 24.178 64.8893 24.034C64.7573 23.962 64.6673 23.842 64.6193 23.674C64.5713 23.506 64.5473 23.32 64.5473 23.116C64.5473 22.828 64.5593 22.642 64.5833 22.558C64.5473 22.33 64.5293 22.108 64.5293 21.892C64.5173 21.652 64.4933 21.424 64.4573 21.208C64.4333 21.088 64.4513 20.968 64.5113 20.848C64.5713 20.716 64.6373 20.59 64.7093 20.47C64.7813 20.362 64.8713 20.296 64.9793 20.272C65.0873 20.236 65.1953 20.23 65.3033 20.254C65.4953 20.242 65.6573 20.254 65.7893 20.29C65.8613 20.302 65.9453 20.308 66.0413 20.308ZM81.5247 19.228C81.6207 19.168 81.7407 19.06 81.8847 18.904C82.0287 18.748 82.1607 18.586 82.2807 18.418C82.3887 18.25 82.4727 18.082 82.5327 17.914C82.5927 17.758 82.5867 17.632 82.5147 17.536C82.3467 17.344 82.1067 17.224 81.7947 17.176C81.4707 17.128 81.1707 17.08 80.8947 17.032C80.5947 16.984 80.2827 16.972 79.9587 16.996C79.6227 17.032 79.2927 17.068 78.9687 17.104C78.8127 17.128 78.6387 17.152 78.4467 17.176C78.2547 17.2 78.0747 17.248 77.9067 17.32C77.7747 17.38 77.7087 17.44 77.7087 17.5C77.6967 17.56 77.6847 17.638 77.6727 17.734C77.6607 17.878 77.6487 18.004 77.6367 18.112C77.6127 18.232 77.6007 18.382 77.6007 18.562C77.5887 18.718 77.5887 18.868 77.6007 19.012L77.6187 19.426C77.6187 19.57 77.6247 19.708 77.6367 19.84C77.6487 19.984 77.6967 20.104 77.7807 20.2C77.8527 20.308 77.9607 20.374 78.1047 20.398C78.2487 20.434 78.4107 20.44 78.5907 20.416C78.7707 20.392 78.9567 20.356 79.1487 20.308C79.3287 20.248 79.4907 20.194 79.6347 20.146C79.8627 20.062 80.0847 19.978 80.3007 19.894C80.4927 19.81 80.6967 19.708 80.9127 19.588C81.1287 19.48 81.3327 19.36 81.5247 19.228ZM76.4127 18.58C76.4127 17.992 76.4007 17.404 76.3767 16.816C76.3647 16.708 76.3647 16.594 76.3767 16.474V15.25C76.3647 14.974 76.3407 14.716 76.3047 14.476C76.2687 14.236 76.2507 13.996 76.2507 13.756C76.2387 13.504 76.2147 13.258 76.1787 13.018C76.1547 12.898 76.1727 12.772 76.2327 12.64C76.2927 12.496 76.3587 12.358 76.4307 12.226C76.5027 12.106 76.5987 12.028 76.7187 11.992C76.8267 11.956 76.9347 11.944 77.0427 11.956C77.2347 11.944 77.3847 12.034 77.4927 12.226C77.6007 12.406 77.6547 13 77.6547 14.008C77.6427 14.092 77.6307 14.176 77.6187 14.26C77.6187 14.392 77.6127 14.554 77.6007 14.746C77.5767 14.914 77.5647 15.082 77.5647 15.25C77.5647 15.466 77.5827 15.64 77.6187 15.772L78.8067 15.664C79.1907 15.628 79.5747 15.61 79.9587 15.61C80.3307 15.598 80.7027 15.61 81.0747 15.646C81.4347 15.67 81.7887 15.742 82.1367 15.862C82.5567 16.006 82.8927 16.192 83.1447 16.42C83.3847 16.66 83.5887 16.978 83.7567 17.374C83.8047 17.482 83.8407 17.632 83.8647 17.824C83.8887 17.992 83.9007 18.178 83.9007 18.382C83.9007 18.514 83.8947 18.646 83.8827 18.778C83.8587 18.91 83.8227 19.018 83.7747 19.102C83.6667 19.306 83.5227 19.516 83.3427 19.732C83.1627 19.936 82.9887 20.11 82.8207 20.254C82.5807 20.458 82.3407 20.638 82.1007 20.794C81.8607 20.938 81.6207 21.07 81.3807 21.19C81.1287 21.298 80.8767 21.406 80.6247 21.514L79.8327 21.82C79.7487 21.856 79.6707 21.892 79.5987 21.928L79.3647 22C78.9327 22.144 78.5187 22.21 78.1227 22.198C77.8707 22.186 77.5947 22.174 77.2947 22.162C76.9827 22.138 76.7307 22.054 76.5387 21.91C76.4067 21.826 76.3167 21.7 76.2687 21.532C76.2207 21.352 76.1967 21.154 76.1967 20.938C76.1967 20.626 76.2267 20.302 76.2867 19.966C76.3467 19.618 76.3827 19.318 76.3947 19.066C76.4067 18.946 76.4127 18.826 76.4127 18.706V18.58ZM85.3947 17.608C85.4067 17.512 85.4127 17.428 85.4127 17.356C85.4127 17.02 85.4367 16.678 85.4847 16.33C85.5327 15.982 85.5447 15.64 85.5207 15.304C85.5207 15.16 85.5087 15.022 85.4847 14.89L85.4127 14.458C85.4127 14.302 85.4367 14.146 85.4847 13.99C85.5207 13.834 85.5327 13.678 85.5207 13.522L85.5027 13.18V12.496L85.5387 12.172C85.5507 12.028 85.5387 11.878 85.5027 11.722C85.4547 11.554 85.3947 11.416 85.3227 11.308C85.2387 11.2 85.1427 11.14 85.0347 11.128C84.9147 11.104 84.7827 11.164 84.6387 11.308C84.5067 11.428 84.4167 11.548 84.3687 11.668C84.3087 11.788 84.2667 11.914 84.2427 12.046C84.2307 12.178 84.2247 12.316 84.2247 12.46C84.2367 12.592 84.2427 12.736 84.2427 12.892C84.2307 13.072 84.2247 13.246 84.2247 13.414V14.89L84.2607 15.844C84.2847 16.372 84.2727 16.9 84.2247 17.428C84.1767 17.956 84.1347 18.478 84.0987 18.994C84.0747 19.306 84.0447 19.63 84.0087 19.966C83.9727 20.29 83.9847 20.578 84.0447 20.83C84.0687 20.962 84.1107 21.094 84.1707 21.226C84.2187 21.346 84.2847 21.448 84.3687 21.532C84.4527 21.604 84.5487 21.64 84.6567 21.64C84.7767 21.64 84.9027 21.58 85.0347 21.46C85.2147 21.292 85.3287 21.076 85.3767 20.812C85.4487 20.548 85.4727 20.29 85.4487 20.038C85.4367 19.714 85.4247 19.36 85.4127 18.976C85.4007 18.604 85.3947 18.238 85.3947 17.878V17.608ZM97.9714 13.504C97.8154 13.732 97.6774 13.96 97.5574 14.188L97.1794 14.872C97.0714 15.076 96.9334 15.304 96.7654 15.556C96.5974 15.808 96.4354 16.096 96.2794 16.42C96.2434 16.516 96.1774 16.654 96.0814 16.834C95.9734 17.026 95.8954 17.17 95.8474 17.266L95.6854 17.626C95.6254 17.758 95.5474 17.902 95.4514 18.058C95.3794 18.19 95.3254 18.298 95.2894 18.382C95.2414 18.466 95.1994 18.538 95.1634 18.598L95.0374 18.814C94.9894 18.898 94.9294 19.006 94.8574 19.138C94.6534 19.534 94.4494 19.954 94.2454 20.398C94.0294 20.842 93.8374 21.316 93.6694 21.82C93.6334 21.904 93.6034 21.988 93.5794 22.072C93.5554 22.168 93.5254 22.252 93.4894 22.324C93.4414 22.408 93.3754 22.474 93.2914 22.522C93.1954 22.582 93.0694 22.612 92.9134 22.612C92.6134 22.624 92.4634 22.468 92.4634 22.144C92.4634 21.94 92.5054 21.712 92.5894 21.46C92.6734 21.22 92.7694 20.998 92.8774 20.794L93.3814 19.75L93.8674 18.724C93.9394 18.556 94.0054 18.4 94.0654 18.256C94.1134 18.124 94.1854 17.974 94.2814 17.806C94.2334 17.758 94.1734 17.698 94.1014 17.626L93.8674 17.428C93.7954 17.368 93.7294 17.308 93.6694 17.248C93.5974 17.2 93.5554 17.17 93.5434 17.158C93.3394 17.014 93.1714 16.888 93.0394 16.78C92.8954 16.672 92.7634 16.564 92.6434 16.456L92.2654 16.15C92.1334 16.042 91.9834 15.904 91.8154 15.736C91.5514 15.496 91.3354 15.238 91.1674 14.962C90.9874 14.686 90.8974 14.386 90.8974 14.062C90.8974 13.822 90.9634 13.558 91.0954 13.27C91.2394 12.97 91.4074 12.82 91.5994 12.82C91.7194 12.82 91.8634 12.892 92.0314 13.036C92.2234 13.204 92.3974 13.384 92.5534 13.576C92.6974 13.768 92.8534 13.954 93.0214 14.134C93.2374 14.374 93.4474 14.578 93.6514 14.746C93.8434 14.926 94.0294 15.082 94.2094 15.214L94.7494 15.628C94.9294 15.76 95.1094 15.904 95.2894 16.06C95.3014 16.048 95.3254 16.012 95.3614 15.952C95.3974 15.892 95.4334 15.82 95.4694 15.736L95.5774 15.52C95.6134 15.46 95.6374 15.424 95.6494 15.412C95.7574 15.208 95.8594 15.028 95.9554 14.872L96.2434 14.404C96.3274 14.26 96.4114 14.11 96.4954 13.954C96.5674 13.798 96.6454 13.618 96.7294 13.414L96.9994 12.802C97.0834 12.598 97.1854 12.4 97.3054 12.208C97.4734 11.98 97.6774 11.866 97.9174 11.866C98.1574 11.866 98.2954 11.992 98.3314 12.244C98.3434 12.424 98.3194 12.628 98.2594 12.856C98.1874 13.096 98.0914 13.312 97.9714 13.504ZM110.315 19.57C110.279 19.414 110.231 19.258 110.171 19.102C110.075 18.85 109.979 18.586 109.883 18.31L109.559 17.5C109.487 17.284 109.403 17.062 109.307 16.834L109.001 16.168L108.821 15.736C108.749 15.58 108.683 15.424 108.623 15.268C108.623 15.208 108.599 15.118 108.551 14.998L108.389 14.71C108.341 14.602 108.305 14.506 108.281 14.422C108.245 14.338 108.233 14.284 108.245 14.26C108.065 14.596 107.897 14.98 107.741 15.412C107.561 15.832 107.405 16.186 107.273 16.474C107.093 16.858 106.931 17.242 106.787 17.626C106.631 18.01 106.469 18.394 106.301 18.778C106.241 18.946 106.181 19.132 106.121 19.336C106.049 19.552 105.977 19.762 105.905 19.966C105.857 20.062 105.815 20.158 105.779 20.254L105.887 20.236C106.319 20.2 106.769 20.158 107.237 20.11C108.137 19.942 109.163 19.762 110.315 19.57ZM104.537 20.308C104.561 20.272 104.579 20.236 104.591 20.2C104.699 19.996 104.789 19.798 104.861 19.606L105.545 17.896C105.773 17.332 106.007 16.768 106.247 16.204C106.487 15.664 106.715 15.124 106.931 14.584L107.597 12.982C107.669 12.79 107.723 12.592 107.759 12.388C107.795 12.196 107.885 12.022 108.029 11.866C108.197 11.71 108.371 11.632 108.551 11.632C108.731 11.632 108.899 11.74 109.055 11.956C109.271 12.316 109.433 12.712 109.541 13.144C109.661 13.564 109.823 13.966 110.027 14.35L110.729 15.736C110.969 16.192 111.173 16.654 111.341 17.122C111.473 17.434 111.599 17.752 111.719 18.076C111.839 18.412 111.899 18.748 111.899 19.084C111.899 19.168 111.893 19.252 111.881 19.336C111.965 19.324 112.049 19.312 112.133 19.3C112.181 19.264 112.235 19.24 112.295 19.228C112.403 19.204 112.505 19.198 112.601 19.21L112.835 19.174L113.033 19.192C113.105 19.204 113.165 19.222 113.213 19.246C113.309 19.366 113.357 19.468 113.357 19.552C113.357 19.612 113.345 19.678 113.321 19.75C113.381 19.87 113.417 19.966 113.429 20.038C113.453 20.434 113.423 20.824 113.339 21.208L113.105 22.396C113.093 22.492 113.051 22.594 112.979 22.702C112.883 22.81 112.769 22.888 112.637 22.936C112.529 22.96 112.409 22.966 112.277 22.954C112.145 22.942 112.049 22.912 111.989 22.864C111.821 22.732 111.755 22.558 111.791 22.342C111.839 22.138 111.869 21.958 111.881 21.802C111.905 21.562 111.929 21.31 111.953 21.046V20.704C111.773 20.74 111.539 20.788 111.251 20.848C109.787 21.088 108.533 21.328 107.489 21.568C107.093 21.628 106.721 21.682 106.373 21.73C106.025 21.778 105.761 21.82 105.581 21.856L105.401 21.874L105.239 21.892C105.119 21.916 105.029 21.928 104.969 21.928C104.789 21.94 104.645 21.982 104.537 22.054C104.477 22.078 104.429 22.126 104.393 22.198L104.357 22.432C104.357 22.552 104.387 22.9 104.447 23.476C104.519 24.064 104.411 24.34 104.123 24.304C103.811 24.268 103.565 24.178 103.385 24.034C103.253 23.962 103.163 23.842 103.115 23.674C103.067 23.506 103.043 23.32 103.043 23.116C103.043 22.828 103.055 22.642 103.079 22.558C103.043 22.33 103.025 22.108 103.025 21.892C103.013 21.652 102.989 21.424 102.953 21.208C102.929 21.088 102.947 20.968 103.007 20.848C103.067 20.716 103.133 20.59 103.205 20.47C103.277 20.362 103.367 20.296 103.475 20.272C103.583 20.236 103.691 20.23 103.799 20.254C103.991 20.242 104.153 20.254 104.285 20.29C104.357 20.302 104.441 20.308 104.537 20.308ZM121.641 12.91C121.905 13.078 122.067 13.33 122.127 13.666C122.175 14.002 122.145 14.32 122.037 14.62C122.001 14.764 121.953 14.896 121.893 15.016L121.713 15.394L121.605 15.61C121.569 15.682 121.521 15.754 121.461 15.826C121.293 16.066 121.041 16.306 120.705 16.546C120.369 16.798 120.003 17.032 119.607 17.248C119.211 17.464 118.809 17.656 118.401 17.824C117.981 17.992 117.603 18.124 117.267 18.22C117.099 18.28 116.937 18.322 116.781 18.346C116.625 18.382 116.457 18.4 116.277 18.4C116.253 18.82 116.235 19.222 116.223 19.606C116.211 20.002 116.205 20.41 116.205 20.83V21.28C116.193 21.496 116.169 21.706 116.133 21.91C116.085 22.126 116.019 22.294 115.935 22.414C115.839 22.546 115.707 22.57 115.539 22.486C115.371 22.402 115.257 22.276 115.197 22.108C115.125 21.94 115.077 21.772 115.053 21.604C115.017 21.232 114.999 20.896 114.999 20.596L115.017 20.11V18.202C115.017 17.746 115.011 17.29 114.999 16.834C114.987 16.39 114.957 15.94 114.909 15.484C114.885 15.292 114.867 15.1 114.855 14.908C114.843 14.728 114.819 14.542 114.783 14.35C114.759 14.182 114.717 13.996 114.657 13.792C114.597 13.588 114.597 13.396 114.657 13.216C114.681 13.12 114.735 13 114.819 12.856C114.891 12.748 114.999 12.67 115.143 12.622C115.275 12.586 115.401 12.544 115.521 12.496C115.653 12.496 115.815 12.448 116.007 12.352C116.187 12.268 116.397 12.196 116.637 12.136L116.997 12.064C117.105 12.04 117.225 12.016 117.357 11.992C117.645 11.956 117.945 11.938 118.257 11.938C118.425 11.938 118.587 11.944 118.743 11.956C118.887 11.968 119.031 11.992 119.175 12.028L119.409 12.082C119.481 12.094 119.565 12.106 119.661 12.118C120.009 12.178 120.357 12.274 120.705 12.406C121.041 12.55 121.353 12.718 121.641 12.91ZM120.759 14.584C120.567 14.416 120.363 14.284 120.147 14.188C119.919 14.104 119.703 14.032 119.499 13.972C119.271 13.912 119.043 13.864 118.815 13.828L118.545 13.774C118.449 13.762 118.353 13.756 118.257 13.756C117.933 13.756 117.621 13.798 117.321 13.882L116.385 14.152C116.229 14.224 116.145 14.362 116.133 14.566C116.121 14.77 116.121 14.95 116.133 15.106L116.169 15.592C116.181 15.748 116.181 15.91 116.169 16.078C116.157 16.234 116.151 16.342 116.151 16.402C116.139 16.474 116.163 16.582 116.223 16.726C116.427 16.726 116.655 16.732 116.907 16.744C117.147 16.768 117.369 16.75 117.573 16.69C117.921 16.594 118.269 16.492 118.617 16.384C118.953 16.276 119.271 16.114 119.571 15.898C119.631 15.874 119.697 15.838 119.769 15.79C119.829 15.754 119.901 15.712 119.985 15.664C120.045 15.64 120.135 15.586 120.255 15.502C120.375 15.418 120.489 15.322 120.597 15.214C120.705 15.106 120.783 14.992 120.831 14.872C120.879 14.764 120.855 14.668 120.759 14.584ZM129.823 13.504C129.667 13.732 129.529 13.96 129.409 14.188L129.031 14.872C128.923 15.076 128.785 15.304 128.617 15.556C128.449 15.808 128.287 16.096 128.131 16.42C128.095 16.516 128.029 16.654 127.933 16.834C127.825 17.026 127.747 17.17 127.699 17.266L127.537 17.626C127.477 17.758 127.399 17.902 127.303 18.058C127.231 18.19 127.177 18.298 127.141 18.382C127.093 18.466 127.051 18.538 127.015 18.598L126.889 18.814C126.841 18.898 126.781 19.006 126.709 19.138C126.505 19.534 126.301 19.954 126.097 20.398C125.881 20.842 125.689 21.316 125.521 21.82C125.485 21.904 125.455 21.988 125.431 22.072C125.407 22.168 125.377 22.252 125.341 22.324C125.293 22.408 125.227 22.474 125.143 22.522C125.047 22.582 124.921 22.612 124.765 22.612C124.465 22.624 124.315 22.468 124.315 22.144C124.315 21.94 124.357 21.712 124.441 21.46C124.525 21.22 124.621 20.998 124.729 20.794L125.233 19.75L125.719 18.724C125.791 18.556 125.857 18.4 125.917 18.256C125.965 18.124 126.037 17.974 126.133 17.806C126.085 17.758 126.025 17.698 125.953 17.626L125.719 17.428C125.647 17.368 125.581 17.308 125.521 17.248C125.449 17.2 125.407 17.17 125.395 17.158C125.191 17.014 125.023 16.888 124.891 16.78C124.747 16.672 124.615 16.564 124.495 16.456L124.117 16.15C123.985 16.042 123.835 15.904 123.667 15.736C123.403 15.496 123.187 15.238 123.019 14.962C122.839 14.686 122.749 14.386 122.749 14.062C122.749 13.822 122.815 13.558 122.947 13.27C123.091 12.97 123.259 12.82 123.451 12.82C123.571 12.82 123.715 12.892 123.883 13.036C124.075 13.204 124.249 13.384 124.405 13.576C124.549 13.768 124.705 13.954 124.873 14.134C125.089 14.374 125.299 14.578 125.503 14.746C125.695 14.926 125.881 15.082 126.061 15.214L126.601 15.628C126.781 15.76 126.961 15.904 127.141 16.06C127.153 16.048 127.177 16.012 127.213 15.952C127.249 15.892 127.285 15.82 127.321 15.736L127.429 15.52C127.465 15.46 127.489 15.424 127.501 15.412C127.609 15.208 127.711 15.028 127.807 14.872L128.095 14.404C128.179 14.26 128.263 14.11 128.347 13.954C128.419 13.798 128.497 13.618 128.581 13.414L128.851 12.802C128.935 12.598 129.037 12.4 129.157 12.208C129.325 11.98 129.529 11.866 129.769 11.866C130.009 11.866 130.147 11.992 130.183 12.244C130.195 12.424 130.171 12.628 130.111 12.856C130.039 13.096 129.943 13.312 129.823 13.504ZM131.597 12.55C131.729 12.454 131.873 12.37 132.029 12.298C132.185 12.226 132.359 12.142 132.551 12.046C132.815 11.914 133.073 11.824 133.325 11.776C133.565 11.74 133.829 11.704 134.117 11.668L134.423 11.632H134.729C135.113 11.632 135.515 11.674 135.935 11.758C136.343 11.842 136.685 12.004 136.961 12.244C137.201 12.436 137.369 12.646 137.465 12.874C137.561 13.114 137.609 13.354 137.609 13.594C137.609 13.738 137.597 13.876 137.573 14.008C137.549 14.14 137.513 14.272 137.465 14.404C137.333 14.788 137.159 15.094 136.943 15.322C136.727 15.562 136.481 15.82 136.205 16.096C136.181 16.132 136.139 16.174 136.079 16.222C136.007 16.282 135.959 16.33 135.935 16.366C136.151 16.342 136.367 16.366 136.583 16.438C136.799 16.522 136.997 16.636 137.177 16.78C137.357 16.924 137.519 17.092 137.663 17.284C137.807 17.476 137.915 17.668 137.987 17.86C138.035 18.004 138.071 18.142 138.095 18.274C138.119 18.406 138.131 18.544 138.131 18.688C138.131 18.988 138.077 19.276 137.969 19.552C137.861 19.84 137.711 20.092 137.519 20.308C137.039 20.884 136.481 21.34 135.845 21.676C135.209 22.024 134.525 22.198 133.793 22.198C133.469 22.198 133.139 22.156 132.803 22.072C132.455 22 132.107 21.88 131.759 21.712C131.519 21.592 131.327 21.448 131.183 21.28C131.027 21.124 130.931 20.896 130.895 20.596C130.871 20.44 130.895 20.266 130.967 20.074C131.039 19.894 131.159 19.774 131.327 19.714C131.387 19.69 131.447 19.69 131.507 19.714C131.567 19.738 131.627 19.774 131.687 19.822L131.849 19.966C131.909 20.026 131.969 20.068 132.029 20.092L132.641 20.254C132.845 20.302 133.049 20.338 133.253 20.362C133.349 20.374 133.439 20.38 133.523 20.38H133.775C134.051 20.38 134.321 20.362 134.585 20.326C134.849 20.29 135.131 20.236 135.431 20.164C135.587 20.128 135.779 20.056 136.007 19.948C136.223 19.852 136.421 19.732 136.601 19.588C136.769 19.444 136.895 19.282 136.979 19.102C137.063 18.922 137.057 18.73 136.961 18.526C136.865 18.334 136.709 18.184 136.493 18.076C136.277 17.968 136.043 17.884 135.791 17.824C135.539 17.776 135.287 17.74 135.035 17.716C134.783 17.704 134.579 17.692 134.423 17.68C134.195 17.668 133.967 17.68 133.739 17.716C133.499 17.752 133.271 17.782 133.055 17.806C132.983 17.806 132.905 17.818 132.821 17.842L132.551 17.896C132.455 17.908 132.371 17.902 132.299 17.878C132.215 17.866 132.149 17.812 132.101 17.716C132.005 17.536 131.987 17.362 132.047 17.194C132.095 17.026 132.185 16.876 132.317 16.744C132.437 16.612 132.575 16.498 132.731 16.402C132.887 16.306 133.025 16.24 133.145 16.204L133.847 15.988C134.075 15.928 134.303 15.856 134.531 15.772C134.759 15.688 134.981 15.586 135.197 15.466C135.413 15.346 135.623 15.184 135.827 14.98C135.875 14.932 135.935 14.872 136.007 14.8C136.067 14.728 136.127 14.65 136.187 14.566C136.235 14.482 136.271 14.398 136.295 14.314C136.319 14.23 136.307 14.14 136.259 14.044C136.211 13.948 136.133 13.864 136.025 13.792C135.917 13.732 135.803 13.678 135.683 13.63C135.551 13.594 135.425 13.564 135.305 13.54C135.185 13.528 135.083 13.516 134.999 13.504C134.915 13.48 134.837 13.468 134.765 13.468H134.513C134.153 13.468 133.805 13.522 133.469 13.63C133.133 13.75 132.821 13.894 132.533 14.062C132.401 14.158 132.275 14.26 132.155 14.368C132.035 14.488 131.939 14.62 131.867 14.764L131.777 14.98C131.741 15.064 131.705 15.13 131.669 15.178C131.621 15.226 131.567 15.25 131.507 15.25C131.447 15.25 131.363 15.214 131.255 15.142C131.111 15.046 130.991 14.902 130.895 14.71C130.799 14.518 130.757 14.35 130.769 14.206C130.793 13.858 130.877 13.534 131.021 13.234C131.153 12.946 131.345 12.718 131.597 12.55ZM139.804 13.522C139.804 13.414 139.84 13.33 139.912 13.27C139.972 13.222 140.05 13.18 140.146 13.144C140.23 13.108 140.32 13.078 140.416 13.054C140.512 13.042 140.596 13.024 140.668 13C140.932 12.916 141.172 12.85 141.388 12.802C141.604 12.754 141.82 12.712 142.036 12.676C142.252 12.652 142.474 12.628 142.702 12.604C142.918 12.592 143.158 12.568 143.422 12.532C143.722 12.496 144.016 12.46 144.304 12.424C144.592 12.4 144.892 12.388 145.204 12.388C145.42 12.388 145.66 12.4 145.924 12.424C146.176 12.46 146.41 12.526 146.626 12.622C146.842 12.706 146.95 12.862 146.95 13.09C146.95 13.258 146.896 13.426 146.788 13.594C146.68 13.774 146.554 13.9 146.41 13.972C146.242 14.068 146.038 14.11 145.798 14.098C145.558 14.098 145.336 14.104 145.132 14.116C144.844 14.14 144.55 14.17 144.25 14.206L143.35 14.332C143.074 14.368 142.81 14.416 142.558 14.476C142.306 14.536 142.048 14.584 141.784 14.62C141.652 14.644 141.472 14.674 141.244 14.71C141.016 14.758 140.872 14.842 140.812 14.962C140.788 15.022 140.764 15.106 140.74 15.214C140.704 15.334 140.68 15.424 140.668 15.484C140.656 15.58 140.65 15.706 140.65 15.862C140.638 16.018 140.632 16.144 140.632 16.24C140.632 16.372 140.626 16.486 140.614 16.582C140.602 16.678 140.638 16.78 140.722 16.888L141.352 16.816C141.556 16.792 141.772 16.75 142 16.69C142.444 16.57 142.864 16.468 143.26 16.384C143.644 16.312 144.058 16.246 144.502 16.186L145.132 16.114C145.336 16.102 145.546 16.108 145.762 16.132C145.93 16.144 146.104 16.156 146.284 16.168C146.464 16.192 146.632 16.246 146.788 16.33C146.956 16.414 147.094 16.498 147.202 16.582C147.298 16.666 147.298 16.792 147.202 16.96C147.118 17.116 147.022 17.212 146.914 17.248C146.806 17.296 146.668 17.35 146.5 17.41C145.912 17.578 145.33 17.722 144.754 17.842C144.166 17.974 143.566 18.106 142.954 18.238C142.714 18.298 142.48 18.34 142.252 18.364C142.012 18.388 141.79 18.43 141.586 18.49C141.466 18.514 141.352 18.538 141.244 18.562C141.136 18.598 141.022 18.64 140.902 18.688C140.806 18.712 140.734 18.778 140.686 18.886C140.638 19.006 140.614 19.132 140.614 19.264C140.602 19.408 140.602 19.546 140.614 19.678C140.614 19.81 140.62 19.906 140.632 19.966C140.632 20.062 140.644 20.122 140.668 20.146C140.692 20.182 140.752 20.194 140.848 20.182L141.334 20.146C141.49 20.134 141.652 20.128 141.82 20.128C142.336 20.128 142.858 20.086 143.386 20.002C143.914 19.918 144.43 19.84 144.934 19.768C145.162 19.732 145.336 19.702 145.456 19.678C145.576 19.654 145.69 19.636 145.798 19.624C145.894 19.612 146.008 19.6 146.14 19.588H147.166C147.322 19.588 147.484 19.6 147.652 19.624C147.712 19.636 147.784 19.642 147.868 19.642C147.94 19.654 147.988 19.696 148.012 19.768C148.036 19.828 148.036 19.894 148.012 19.966C147.988 20.05 147.964 20.122 147.94 20.182C147.88 20.314 147.82 20.416 147.76 20.488C147.7 20.572 147.622 20.662 147.526 20.758C147.406 20.89 147.256 20.98 147.076 21.028C146.884 21.088 146.704 21.142 146.536 21.19C146.284 21.286 146.086 21.358 145.942 21.406C145.786 21.454 145.636 21.49 145.492 21.514C145.348 21.55 145.198 21.574 145.042 21.586C144.874 21.61 144.658 21.64 144.394 21.676C144.226 21.7 144.07 21.724 143.926 21.748C143.77 21.772 143.608 21.796 143.44 21.82C143.296 21.832 143.158 21.832 143.026 21.82C142.882 21.82 142.738 21.826 142.594 21.838C142.342 21.85 142.09 21.886 141.838 21.946C141.574 22.018 141.322 22.066 141.082 22.09C140.914 22.09 140.752 22.096 140.596 22.108C140.44 22.12 140.284 22.084 140.128 22C139.816 21.808 139.642 21.538 139.606 21.19C139.558 20.77 139.522 20.338 139.498 19.894L139.426 18.598C139.402 18.022 139.438 17.446 139.534 16.87C139.618 16.294 139.66 15.718 139.66 15.142C139.66 14.866 139.684 14.596 139.732 14.332C139.78 14.08 139.804 13.81 139.804 13.522ZM156.204 15.898C156.216 16.414 156.24 16.924 156.276 17.428C156.324 17.932 156.348 18.448 156.348 18.976C156.348 19.192 156.36 19.408 156.384 19.624C156.396 19.828 156.42 20.026 156.456 20.218C156.48 20.566 156.39 20.914 156.186 21.262C156.162 21.334 156.108 21.37 156.024 21.37C155.952 21.358 155.874 21.334 155.79 21.298C155.718 21.274 155.652 21.226 155.592 21.154C155.532 21.094 155.496 21.028 155.484 20.956C155.412 20.728 155.382 20.488 155.394 20.236C155.394 19.996 155.382 19.756 155.358 19.516C155.334 19.216 155.304 18.898 155.268 18.562L155.16 17.518C155.136 17.17 155.112 16.822 155.088 16.474C155.064 16.138 155.046 15.814 155.034 15.502C154.842 15.838 154.62 16.174 154.368 16.51C154.104 16.834 153.858 17.164 153.63 17.5C153.306 17.944 152.988 18.388 152.676 18.832C152.376 19.276 152.04 19.696 151.668 20.092C151.512 20.272 151.326 20.512 151.11 20.812C150.882 21.112 150.66 21.388 150.444 21.64C150.216 21.904 149.994 22.102 149.778 22.234C149.574 22.366 149.412 22.342 149.292 22.162C149.172 21.982 149.088 21.814 149.04 21.658C148.992 21.49 148.968 21.322 148.968 21.154C148.968 20.986 148.974 20.824 148.986 20.668C149.01 20.5 149.022 20.344 149.022 20.2L148.986 19.426C148.974 18.97 148.968 18.526 148.968 18.094C148.968 17.65 148.98 17.212 149.004 16.78C149.028 16.624 149.034 16.48 149.022 16.348V15.916L148.986 15.196L148.95 14.476C148.95 14.284 148.956 14.098 148.968 13.918L149.004 13.36C149.016 13.156 149.034 12.982 149.058 12.838C149.094 12.682 149.136 12.508 149.184 12.316C149.22 12.22 149.292 12.124 149.4 12.028C149.52 11.932 149.646 11.908 149.778 11.956C149.862 11.992 149.91 12.04 149.922 12.1C149.946 12.172 149.964 12.256 149.976 12.352C150.012 12.544 150.036 12.748 150.048 12.964C150.072 13.18 150.084 13.39 150.084 13.594C150.096 13.822 150.102 14.038 150.102 14.242V14.89C150.126 15.514 150.15 16.12 150.174 16.708C150.21 17.308 150.198 17.926 150.138 18.562C150.138 18.742 150.144 18.838 150.156 18.85C150.18 18.874 150.204 18.922 150.228 18.994C150.36 18.934 150.456 18.862 150.516 18.778C150.576 18.682 150.654 18.58 150.75 18.472C150.882 18.316 150.996 18.154 151.092 17.986C151.2 17.818 151.32 17.656 151.452 17.5C151.8 17.068 152.118 16.63 152.406 16.186C152.694 15.73 152.988 15.268 153.288 14.8C153.42 14.596 153.54 14.398 153.648 14.206C153.756 14.002 153.858 13.804 153.954 13.612C154.05 13.42 154.146 13.216 154.242 13C154.35 12.784 154.464 12.556 154.584 12.316C154.656 12.184 154.758 12.04 154.89 11.884C155.022 11.728 155.148 11.674 155.268 11.722C155.34 11.758 155.424 11.812 155.52 11.884C155.604 11.968 155.682 12.058 155.754 12.154C155.838 12.238 155.91 12.328 155.97 12.424C156.03 12.532 156.066 12.616 156.078 12.676C156.102 12.808 156.114 12.94 156.114 13.072L156.204 15.898ZM150.336 9.598C150.36 9.778 150.378 9.934 150.39 10.066L150.426 10.444C150.438 10.576 150.48 10.708 150.552 10.84C150.684 11.068 150.864 11.218 151.092 11.29C151.308 11.374 151.536 11.434 151.776 11.47C151.932 11.506 152.1 11.524 152.28 11.524C152.676 11.524 153.036 11.44 153.36 11.272C153.564 11.164 153.768 11.02 153.972 10.84C154.164 10.672 154.314 10.486 154.422 10.282C154.506 10.15 154.566 9.994 154.602 9.814C154.638 9.646 154.656 9.478 154.656 9.31C154.644 9.214 154.638 9.106 154.638 8.986C154.626 8.878 154.59 8.782 154.53 8.698C154.41 8.518 154.248 8.446 154.044 8.482C153.936 8.506 153.87 8.572 153.846 8.68C153.822 8.8 153.804 8.908 153.792 9.004C153.768 9.244 153.726 9.448 153.666 9.616C153.594 9.796 153.438 9.934 153.198 10.03C152.886 10.162 152.598 10.246 152.334 10.282C152.178 10.306 152.016 10.318 151.848 10.318C151.68 10.33 151.536 10.282 151.416 10.174C151.308 10.066 151.242 9.904 151.218 9.688C151.194 9.484 151.188 9.304 151.2 9.148V8.896C151.2 8.824 151.152 8.776 151.056 8.752C150.912 8.704 150.774 8.722 150.642 8.806C150.51 8.89 150.42 8.998 150.372 9.13C150.312 9.262 150.3 9.418 150.336 9.598Z" fill="black"/>
</g>
<defs>
<clipPath id="clip0_47_6">
<rect width="1334" height="621" fill="white"/>
</clipPath>
<clipPath id="clip1_47_6">
<rect width="660" height="621" fill="white" transform="translate(674)"/>
</clipPath>
<clipPath id="clip2_47_6">
<rect width="660" height="621" fill="white"/>
</clipPath>
</defs>
</svg>
