<svg width="1334" height="621" viewBox="0 0 1334 621" fill="none" xmlns="http://www.w3.org/2000/svg">
<path d="M1120.74 457.431L1116.39 470.682L1131.47 476.006L1116.39 492.209L1126.2 510.139L1108.14 507.61L1114.66 518.472L1100.75 515.865V527.595L1087.5 518.472L1075.55 529.116L1069.25 515.865L1056.87 524.554L1052.53 516.951L1035.37 527.595V513.258H1015.6L1021.46 503.7L1003 501.528L1014.3 490.667L1003 481.578L1021.46 479.588L1014.3 467.423H1032.54L1041.88 457.431L1049.92 463.513L1058.39 455.693L1067.3 461.775L1080.55 452L1081.85 461.775L1099.01 452L1100.75 463.513L1120.74 457.431Z" fill="white"/>
<path d="M1116.39 470.682L1115.44 470.37C1115.27 470.886 1115.55 471.444 1116.06 471.625L1116.39 470.682ZM1120.74 457.431L1121.69 457.742C1121.8 457.388 1121.71 456.998 1121.45 456.731C1121.19 456.465 1120.8 456.365 1120.45 456.474L1120.74 457.431ZM1100.75 463.513L1099.76 463.662C1099.81 463.95 1099.97 464.204 1100.22 464.359C1100.46 464.514 1100.77 464.554 1101.04 464.47L1100.75 463.513ZM1099.01 452L1100 451.851C1099.95 451.525 1099.75 451.244 1099.45 451.1C1099.15 450.956 1098.81 450.968 1098.52 451.131L1099.01 452ZM1081.85 461.775L1080.86 461.907C1080.91 462.237 1081.11 462.523 1081.41 462.671C1081.71 462.819 1082.06 462.809 1082.35 462.644L1081.85 461.775ZM1080.55 452L1081.54 451.868C1081.49 451.517 1081.27 451.218 1080.94 451.079C1080.62 450.941 1080.24 450.985 1079.96 451.195L1080.55 452ZM1067.3 461.775L1066.74 462.601C1067.09 462.841 1067.55 462.832 1067.89 462.58L1067.3 461.775ZM1058.39 455.693L1058.96 454.867C1058.57 454.604 1058.06 454.642 1057.71 454.958L1058.39 455.693ZM1049.92 463.513L1049.32 464.31C1049.7 464.603 1050.24 464.576 1050.6 464.248L1049.92 463.513ZM1041.88 457.431L1042.49 456.633C1042.08 456.324 1041.5 456.374 1041.15 456.748L1041.88 457.431ZM1032.54 467.423V468.423C1032.82 468.423 1033.08 468.308 1033.27 468.106L1032.54 467.423ZM1014.3 467.423V466.423C1013.94 466.423 1013.61 466.615 1013.43 466.927C1013.25 467.239 1013.25 467.622 1013.43 467.931L1014.3 467.423ZM1021.46 479.588L1021.57 480.582C1021.91 480.546 1022.21 480.34 1022.36 480.037C1022.51 479.733 1022.5 479.373 1022.33 479.08L1021.46 479.588ZM1003 481.578L1002.89 480.583C1002.49 480.627 1002.15 480.908 1002.04 481.296C1001.93 481.685 1002.06 482.103 1002.37 482.357L1003 481.578ZM1014.3 490.667L1014.99 491.387C1015.2 491.188 1015.31 490.91 1015.29 490.622C1015.28 490.335 1015.15 490.068 1014.92 489.887L1014.3 490.667ZM1003 501.528L1002.31 500.807C1002.03 501.075 1001.93 501.48 1002.05 501.847C1002.18 502.213 1002.5 502.476 1002.88 502.521L1003 501.528ZM1021.46 503.7L1022.32 504.223C1022.5 503.932 1022.51 503.571 1022.36 503.264C1022.22 502.957 1021.92 502.747 1021.58 502.707L1021.46 503.7ZM1015.6 513.258L1014.75 512.735C1014.56 513.044 1014.55 513.431 1014.73 513.747C1014.9 514.063 1015.24 514.258 1015.6 514.258V513.258ZM1035.37 513.258H1036.37C1036.37 512.706 1035.92 512.258 1035.37 512.258V513.258ZM1035.37 527.595H1034.37C1034.37 527.958 1034.56 528.293 1034.88 528.469C1035.2 528.646 1035.59 528.636 1035.89 528.445L1035.37 527.595ZM1052.53 516.951L1053.4 516.455C1053.26 516.219 1053.04 516.049 1052.77 515.982C1052.51 515.915 1052.23 515.958 1052 516.101L1052.53 516.951ZM1056.87 524.554L1056 525.05C1056.14 525.295 1056.38 525.469 1056.65 525.53C1056.93 525.591 1057.22 525.534 1057.45 525.373L1056.87 524.554ZM1069.25 515.865L1070.16 515.436C1070.03 515.17 1069.79 514.973 1069.51 514.898C1069.22 514.823 1068.92 514.877 1068.68 515.046L1069.25 515.865ZM1075.55 529.116L1074.65 529.545C1074.79 529.83 1075.05 530.034 1075.36 530.096C1075.66 530.158 1075.98 530.072 1076.22 529.863L1075.55 529.116ZM1087.5 518.472L1088.07 517.648C1087.69 517.387 1087.18 517.419 1086.84 517.725L1087.5 518.472ZM1100.75 527.595L1100.19 528.419C1100.49 528.63 1100.89 528.653 1101.22 528.481C1101.55 528.308 1101.75 527.967 1101.75 527.595H1100.75ZM1100.75 515.865L1100.94 514.882C1100.64 514.827 1100.34 514.906 1100.11 515.096C1099.88 515.285 1099.75 515.568 1099.75 515.865H1100.75ZM1114.66 518.472L1114.47 519.455C1114.86 519.527 1115.25 519.366 1115.48 519.043C1115.7 518.72 1115.72 518.295 1115.51 517.957L1114.66 518.472ZM1108.14 507.61L1108.28 506.62C1107.9 506.567 1107.52 506.737 1107.3 507.058C1107.09 507.38 1107.08 507.794 1107.28 508.125L1108.14 507.61ZM1126.2 510.139L1126.06 511.129C1126.44 511.182 1126.81 511.018 1127.02 510.707C1127.24 510.396 1127.26 509.991 1127.08 509.659L1126.2 510.139ZM1116.39 492.209L1115.66 491.528C1115.37 491.843 1115.31 492.311 1115.52 492.689L1116.39 492.209ZM1131.47 476.006L1132.2 476.687C1132.43 476.44 1132.52 476.094 1132.44 475.767C1132.36 475.44 1132.12 475.175 1131.8 475.063L1131.47 476.006ZM1117.34 470.993L1121.69 457.742L1119.79 457.119L1115.44 470.37L1117.34 470.993ZM1120.45 456.474L1100.46 462.556L1101.04 464.47L1121.03 458.387L1120.45 456.474ZM1101.74 463.364L1100 451.851L1098.03 452.149L1099.76 463.662L1101.74 463.364ZM1098.52 451.131L1081.36 460.906L1082.35 462.644L1099.51 452.869L1098.52 451.131ZM1082.84 461.643L1081.54 451.868L1079.56 452.132L1080.86 461.907L1082.84 461.643ZM1079.96 451.195L1066.71 460.971L1067.89 462.58L1081.14 452.805L1079.96 451.195ZM1067.86 460.949L1058.96 454.867L1057.83 456.519L1066.74 462.601L1067.86 460.949ZM1057.71 454.958L1049.24 462.778L1050.6 464.248L1059.07 456.428L1057.71 454.958ZM1050.52 462.716L1042.49 456.633L1041.28 458.228L1049.32 464.31L1050.52 462.716ZM1041.15 456.748L1031.81 466.74L1033.27 468.106L1042.61 458.114L1041.15 456.748ZM1032.54 466.423H1014.3V468.423H1032.54V466.423ZM1013.43 467.931L1020.6 480.096L1022.33 479.08L1015.16 466.915L1013.43 467.931ZM1021.36 478.594L1002.89 480.583L1003.11 482.572L1021.57 480.582L1021.36 478.594ZM1002.37 482.357L1013.67 491.446L1014.92 489.887L1003.63 480.798L1002.37 482.357ZM1013.6 489.946L1002.31 500.807L1003.69 502.249L1014.99 491.387L1013.6 489.946ZM1002.88 502.521L1021.35 504.693L1021.58 502.707L1003.12 500.535L1002.88 502.521ZM1020.61 503.177L1014.75 512.735L1016.45 513.781L1022.32 504.223L1020.61 503.177ZM1015.6 514.258H1035.37V512.258H1015.6V514.258ZM1034.37 513.258V527.595H1036.37V513.258H1034.37ZM1035.89 528.445L1053.06 517.801L1052 516.101L1034.84 526.746L1035.89 528.445ZM1051.66 517.447L1056 525.05L1057.74 524.058L1053.4 516.455L1051.66 517.447ZM1057.45 525.373L1069.83 516.684L1068.68 515.046L1056.3 523.736L1057.45 525.373ZM1068.35 516.294L1074.65 529.545L1076.46 528.687L1070.16 515.436L1068.35 516.294ZM1076.22 529.863L1088.17 519.218L1086.84 517.725L1074.89 528.369L1076.22 529.863ZM1086.93 519.295L1100.19 528.419L1101.32 526.772L1088.07 517.648L1086.93 519.295ZM1101.75 527.595V515.865H1099.75V527.595H1101.75ZM1100.57 516.848L1114.47 519.455L1114.84 517.489L1100.94 514.882L1100.57 516.848ZM1115.51 517.957L1109 507.096L1107.28 508.125L1113.8 518.986L1115.51 517.957ZM1108 508.601L1126.06 511.129L1126.34 509.149L1108.28 506.62L1108 508.601ZM1127.08 509.659L1117.27 491.729L1115.52 492.689L1125.32 510.619L1127.08 509.659ZM1117.13 492.89L1132.2 476.687L1130.73 475.325L1115.66 491.528L1117.13 492.89ZM1131.8 475.063L1116.73 469.739L1116.06 471.625L1131.13 476.949L1131.8 475.063Z" fill="black"/>
<path d="M1035.76 492.95C1035.7 492.69 1035.62 492.43 1035.52 492.17C1035.36 491.75 1035.2 491.31 1035.04 490.85L1034.5 489.5C1034.38 489.14 1034.24 488.77 1034.08 488.39L1033.57 487.28L1033.27 486.56C1033.15 486.3 1033.04 486.04 1032.94 485.78C1032.94 485.68 1032.9 485.53 1032.82 485.33L1032.55 484.85C1032.47 484.67 1032.41 484.51 1032.37 484.37C1032.31 484.23 1032.29 484.14 1032.31 484.1C1032.01 484.66 1031.73 485.3 1031.47 486.02C1031.17 486.72 1030.91 487.31 1030.69 487.79C1030.39 488.43 1030.12 489.07 1029.88 489.71C1029.62 490.35 1029.35 490.99 1029.07 491.63C1028.97 491.91 1028.87 492.22 1028.77 492.56C1028.65 492.92 1028.53 493.27 1028.41 493.61C1028.33 493.77 1028.26 493.93 1028.2 494.09L1028.38 494.06C1029.1 494 1029.85 493.93 1030.63 493.85C1032.13 493.57 1033.84 493.27 1035.76 492.95ZM1026.13 494.18C1026.17 494.12 1026.2 494.06 1026.22 494C1026.4 493.66 1026.55 493.33 1026.67 493.01L1027.81 490.16C1028.19 489.22 1028.58 488.28 1028.98 487.34C1029.38 486.44 1029.76 485.54 1030.12 484.64L1031.23 481.97C1031.35 481.65 1031.44 481.32 1031.5 480.98C1031.56 480.66 1031.71 480.37 1031.95 480.11C1032.23 479.85 1032.52 479.72 1032.82 479.72C1033.12 479.72 1033.4 479.9 1033.66 480.26C1034.02 480.86 1034.29 481.52 1034.47 482.24C1034.67 482.94 1034.94 483.61 1035.28 484.25L1036.45 486.56C1036.85 487.32 1037.19 488.09 1037.47 488.87C1037.69 489.39 1037.9 489.92 1038.1 490.46C1038.3 491.02 1038.4 491.58 1038.4 492.14C1038.4 492.28 1038.39 492.42 1038.37 492.56C1038.51 492.54 1038.65 492.52 1038.79 492.5C1038.87 492.44 1038.96 492.4 1039.06 492.38C1039.24 492.34 1039.41 492.33 1039.57 492.35L1039.96 492.29L1040.29 492.32C1040.41 492.34 1040.51 492.37 1040.59 492.41C1040.75 492.61 1040.83 492.78 1040.83 492.92C1040.83 493.02 1040.81 493.13 1040.77 493.25C1040.87 493.45 1040.93 493.61 1040.95 493.73C1040.99 494.39 1040.94 495.04 1040.8 495.68L1040.41 497.66C1040.39 497.82 1040.32 497.99 1040.2 498.17C1040.04 498.35 1039.85 498.48 1039.63 498.56C1039.45 498.6 1039.25 498.61 1039.03 498.59C1038.81 498.57 1038.65 498.52 1038.55 498.44C1038.27 498.22 1038.16 497.93 1038.22 497.57C1038.3 497.23 1038.35 496.93 1038.37 496.67C1038.41 496.27 1038.45 495.85 1038.49 495.41V494.84C1038.19 494.9 1037.8 494.98 1037.32 495.08C1034.88 495.48 1032.79 495.88 1031.05 496.28C1030.39 496.38 1029.77 496.47 1029.19 496.55C1028.61 496.63 1028.17 496.7 1027.87 496.76L1027.57 496.79L1027.3 496.82C1027.1 496.86 1026.95 496.88 1026.85 496.88C1026.55 496.9 1026.31 496.97 1026.13 497.09C1026.03 497.13 1025.95 497.21 1025.89 497.33L1025.83 497.72C1025.83 497.92 1025.88 498.5 1025.98 499.46C1026.1 500.44 1025.92 500.9 1025.44 500.84C1024.92 500.78 1024.51 500.63 1024.21 500.39C1023.99 500.27 1023.84 500.07 1023.76 499.79C1023.68 499.51 1023.64 499.2 1023.64 498.86C1023.64 498.38 1023.66 498.07 1023.7 497.93C1023.64 497.55 1023.61 497.18 1023.61 496.82C1023.59 496.42 1023.55 496.04 1023.49 495.68C1023.45 495.48 1023.48 495.28 1023.58 495.08C1023.68 494.86 1023.79 494.65 1023.91 494.45C1024.03 494.27 1024.18 494.16 1024.36 494.12C1024.54 494.06 1024.72 494.05 1024.9 494.09C1025.22 494.07 1025.49 494.09 1025.71 494.15C1025.83 494.17 1025.97 494.18 1026.13 494.18ZM1043.86 481.25C1044.08 481.09 1044.32 480.95 1044.58 480.83C1044.84 480.71 1045.13 480.57 1045.45 480.41C1045.89 480.19 1046.32 480.04 1046.74 479.96C1047.14 479.9 1047.58 479.84 1048.06 479.78L1048.57 479.72H1049.08C1049.72 479.72 1050.39 479.79 1051.09 479.93C1051.77 480.07 1052.34 480.34 1052.8 480.74C1053.2 481.06 1053.48 481.41 1053.64 481.79C1053.8 482.19 1053.88 482.59 1053.88 482.99C1053.88 483.23 1053.86 483.46 1053.82 483.68C1053.78 483.9 1053.72 484.12 1053.64 484.34C1053.42 484.98 1053.13 485.49 1052.77 485.87C1052.41 486.27 1052 486.7 1051.54 487.16C1051.5 487.22 1051.43 487.29 1051.33 487.37C1051.21 487.47 1051.13 487.55 1051.09 487.61C1051.45 487.57 1051.81 487.61 1052.17 487.73C1052.53 487.87 1052.86 488.06 1053.16 488.3C1053.46 488.54 1053.73 488.82 1053.97 489.14C1054.21 489.46 1054.39 489.78 1054.51 490.1C1054.59 490.34 1054.65 490.57 1054.69 490.79C1054.73 491.01 1054.75 491.24 1054.75 491.48C1054.75 491.98 1054.66 492.46 1054.48 492.92C1054.3 493.4 1054.05 493.82 1053.73 494.18C1052.93 495.14 1052 495.9 1050.94 496.46C1049.88 497.04 1048.74 497.33 1047.52 497.33C1046.98 497.33 1046.43 497.26 1045.87 497.12C1045.29 497 1044.71 496.8 1044.13 496.52C1043.73 496.32 1043.41 496.08 1043.17 495.8C1042.91 495.54 1042.75 495.16 1042.69 494.66C1042.65 494.4 1042.69 494.11 1042.81 493.79C1042.93 493.49 1043.13 493.29 1043.41 493.19C1043.51 493.15 1043.61 493.15 1043.71 493.19C1043.81 493.23 1043.91 493.29 1044.01 493.37L1044.28 493.61C1044.38 493.71 1044.48 493.78 1044.58 493.82L1045.6 494.09C1045.94 494.17 1046.28 494.23 1046.62 494.27C1046.78 494.29 1046.93 494.3 1047.07 494.3H1047.49C1047.95 494.3 1048.4 494.27 1048.84 494.21C1049.28 494.15 1049.75 494.06 1050.25 493.94C1050.51 493.88 1050.83 493.76 1051.21 493.58C1051.57 493.42 1051.9 493.22 1052.2 492.98C1052.48 492.74 1052.69 492.47 1052.83 492.17C1052.97 491.87 1052.96 491.55 1052.8 491.21C1052.64 490.89 1052.38 490.64 1052.02 490.46C1051.66 490.28 1051.27 490.14 1050.85 490.04C1050.43 489.96 1050.01 489.9 1049.59 489.86C1049.17 489.84 1048.83 489.82 1048.57 489.8C1048.19 489.78 1047.81 489.8 1047.43 489.86C1047.03 489.92 1046.65 489.97 1046.29 490.01C1046.17 490.01 1046.04 490.03 1045.9 490.07L1045.45 490.16C1045.29 490.18 1045.15 490.17 1045.03 490.13C1044.89 490.11 1044.78 490.02 1044.7 489.86C1044.54 489.56 1044.51 489.27 1044.61 488.99C1044.69 488.71 1044.84 488.46 1045.06 488.24C1045.26 488.02 1045.49 487.83 1045.75 487.67C1046.01 487.51 1046.24 487.4 1046.44 487.34L1047.61 486.98C1047.99 486.88 1048.37 486.76 1048.75 486.62C1049.13 486.48 1049.5 486.31 1049.86 486.11C1050.22 485.91 1050.57 485.64 1050.91 485.3C1050.99 485.22 1051.09 485.12 1051.21 485C1051.31 484.88 1051.41 484.75 1051.51 484.61C1051.59 484.47 1051.65 484.33 1051.69 484.19C1051.73 484.05 1051.71 483.9 1051.63 483.74C1051.55 483.58 1051.42 483.44 1051.24 483.32C1051.06 483.22 1050.87 483.13 1050.67 483.05C1050.45 482.99 1050.24 482.94 1050.04 482.9C1049.84 482.88 1049.67 482.86 1049.53 482.84C1049.39 482.8 1049.26 482.78 1049.14 482.78H1048.72C1048.12 482.78 1047.54 482.87 1046.98 483.05C1046.42 483.25 1045.9 483.49 1045.42 483.77C1045.2 483.93 1044.99 484.1 1044.79 484.28C1044.59 484.48 1044.43 484.7 1044.31 484.94L1044.16 485.3C1044.1 485.44 1044.04 485.55 1043.98 485.63C1043.9 485.71 1043.81 485.75 1043.71 485.75C1043.61 485.75 1043.47 485.69 1043.29 485.57C1043.05 485.41 1042.85 485.17 1042.69 484.85C1042.53 484.53 1042.46 484.25 1042.48 484.01C1042.52 483.43 1042.66 482.89 1042.9 482.39C1043.12 481.91 1043.44 481.53 1043.86 481.25ZM1065.76 492.38C1065.92 492.28 1066.12 492.1 1066.36 491.84C1066.6 491.58 1066.82 491.31 1067.02 491.03C1067.2 490.75 1067.34 490.47 1067.44 490.19C1067.54 489.93 1067.53 489.72 1067.41 489.56C1067.13 489.24 1066.73 489.04 1066.21 488.96C1065.67 488.88 1065.17 488.8 1064.71 488.72C1064.21 488.64 1063.69 488.62 1063.15 488.66C1062.59 488.72 1062.04 488.78 1061.5 488.84C1061.24 488.88 1060.95 488.92 1060.63 488.96C1060.31 489 1060.01 489.08 1059.73 489.2C1059.51 489.3 1059.4 489.4 1059.4 489.5C1059.38 489.6 1059.36 489.73 1059.34 489.89C1059.32 490.13 1059.3 490.34 1059.28 490.52C1059.24 490.72 1059.22 490.97 1059.22 491.27C1059.2 491.53 1059.2 491.78 1059.22 492.02L1059.25 492.71C1059.25 492.95 1059.26 493.18 1059.28 493.4C1059.3 493.64 1059.38 493.84 1059.52 494C1059.64 494.18 1059.82 494.29 1060.06 494.33C1060.3 494.39 1060.57 494.4 1060.87 494.36C1061.17 494.32 1061.48 494.26 1061.8 494.18C1062.1 494.08 1062.37 493.99 1062.61 493.91C1062.99 493.77 1063.36 493.63 1063.72 493.49C1064.04 493.35 1064.38 493.18 1064.74 492.98C1065.1 492.8 1065.44 492.6 1065.76 492.38ZM1057.24 491.3C1057.24 490.32 1057.22 489.34 1057.18 488.36C1057.16 488.18 1057.16 487.99 1057.18 487.79V485.75C1057.16 485.29 1057.12 484.86 1057.06 484.46C1057 484.06 1056.97 483.66 1056.97 483.26C1056.95 482.84 1056.91 482.43 1056.85 482.03C1056.81 481.83 1056.84 481.62 1056.94 481.4C1057.04 481.16 1057.15 480.93 1057.27 480.71C1057.39 480.51 1057.55 480.38 1057.75 480.32C1057.93 480.26 1058.11 480.24 1058.29 480.26C1058.61 480.24 1058.86 480.39 1059.04 480.71C1059.22 481.01 1059.31 482 1059.31 483.68C1059.29 483.82 1059.27 483.96 1059.25 484.1C1059.25 484.32 1059.24 484.59 1059.22 484.91C1059.18 485.19 1059.16 485.47 1059.16 485.75C1059.16 486.11 1059.19 486.4 1059.25 486.62L1061.23 486.44C1061.87 486.38 1062.51 486.35 1063.15 486.35C1063.77 486.33 1064.39 486.35 1065.01 486.41C1065.61 486.45 1066.2 486.57 1066.78 486.77C1067.48 487.01 1068.04 487.32 1068.46 487.7C1068.86 488.1 1069.2 488.63 1069.48 489.29C1069.56 489.47 1069.62 489.72 1069.66 490.04C1069.7 490.32 1069.72 490.63 1069.72 490.97C1069.72 491.19 1069.71 491.41 1069.69 491.63C1069.65 491.85 1069.59 492.03 1069.51 492.17C1069.33 492.51 1069.09 492.86 1068.79 493.22C1068.49 493.56 1068.2 493.85 1067.92 494.09C1067.52 494.43 1067.12 494.73 1066.72 494.99C1066.32 495.23 1065.92 495.45 1065.52 495.65C1065.1 495.83 1064.68 496.01 1064.26 496.19L1062.94 496.7C1062.8 496.76 1062.67 496.82 1062.55 496.88L1062.16 497C1061.44 497.24 1060.75 497.35 1060.09 497.33C1059.67 497.31 1059.21 497.29 1058.71 497.27C1058.19 497.23 1057.77 497.09 1057.45 496.85C1057.23 496.71 1057.08 496.5 1057 496.22C1056.92 495.92 1056.88 495.59 1056.88 495.23C1056.88 494.71 1056.93 494.17 1057.03 493.61C1057.13 493.03 1057.19 492.53 1057.21 492.11C1057.23 491.91 1057.24 491.71 1057.24 491.51V491.3ZM1072.21 489.68C1072.23 489.52 1072.24 489.38 1072.24 489.26C1072.24 488.7 1072.28 488.13 1072.36 487.55C1072.44 486.97 1072.46 486.4 1072.42 485.84C1072.42 485.6 1072.4 485.37 1072.36 485.15L1072.24 484.43C1072.24 484.17 1072.28 483.91 1072.36 483.65C1072.42 483.39 1072.44 483.13 1072.42 482.87L1072.39 482.3V481.16L1072.45 480.62C1072.47 480.38 1072.45 480.13 1072.39 479.87C1072.31 479.59 1072.21 479.36 1072.09 479.18C1071.95 479 1071.79 478.9 1071.61 478.88C1071.41 478.84 1071.19 478.94 1070.95 479.18C1070.73 479.38 1070.58 479.58 1070.5 479.78C1070.4 479.98 1070.33 480.19 1070.29 480.41C1070.27 480.63 1070.26 480.86 1070.26 481.1C1070.28 481.32 1070.29 481.56 1070.29 481.82C1070.27 482.12 1070.26 482.41 1070.26 482.69V485.15L1070.32 486.74C1070.36 487.62 1070.34 488.5 1070.26 489.38C1070.18 490.26 1070.11 491.13 1070.05 491.99C1070.01 492.51 1069.96 493.05 1069.9 493.61C1069.84 494.15 1069.86 494.63 1069.96 495.05C1070 495.27 1070.07 495.49 1070.17 495.71C1070.25 495.91 1070.36 496.08 1070.5 496.22C1070.64 496.34 1070.8 496.4 1070.98 496.4C1071.18 496.4 1071.39 496.3 1071.61 496.1C1071.91 495.82 1072.1 495.46 1072.18 495.02C1072.3 494.58 1072.34 494.15 1072.3 493.73C1072.28 493.19 1072.26 492.6 1072.24 491.96C1072.22 491.34 1072.21 490.73 1072.21 490.13V489.68ZM1087.4 496.64C1087.32 496.8 1087.26 496.92 1087.22 497C1087.16 497.1 1087.04 497.15 1086.86 497.15C1086.58 497.15 1086.32 497.01 1086.08 496.73C1085.94 496.51 1085.87 496.24 1085.87 495.92C1085.87 495.62 1085.88 495.34 1085.9 495.08C1085.92 494.68 1085.91 494.28 1085.87 493.88C1085.83 493.48 1085.82 493.08 1085.84 492.68V491.21C1085.84 491.01 1085.82 490.81 1085.78 490.61C1085.76 490.43 1085.74 490.29 1085.72 490.19C1085.7 490.11 1085.6 490.05 1085.42 490.01C1085.28 489.97 1085.14 489.94 1085 489.92C1084.86 489.92 1084.71 489.91 1084.55 489.89C1083.91 489.89 1083.31 489.92 1082.75 489.98C1082.17 490.06 1081.56 490.15 1080.92 490.25C1080.4 490.33 1079.85 490.44 1079.27 490.58C1078.69 490.72 1078.16 490.86 1077.68 491C1077.5 491.06 1077.4 491.12 1077.38 491.18C1077.36 491.26 1077.33 491.38 1077.29 491.54C1077.25 491.82 1077.25 492.09 1077.29 492.35C1077.33 492.75 1077.36 493.07 1077.38 493.31C1077.4 493.55 1077.43 493.87 1077.47 494.27C1077.59 494.91 1077.65 495.52 1077.65 496.1C1077.65 496.34 1077.62 496.57 1077.56 496.79C1077.48 497.03 1077.32 497.17 1077.08 497.21C1076.8 497.25 1076.55 497.17 1076.33 496.97C1076.11 496.77 1075.95 496.54 1075.85 496.28C1075.67 495.88 1075.58 495.44 1075.58 494.96C1075.58 494.5 1075.55 494.06 1075.49 493.64C1075.41 493.16 1075.35 492.68 1075.31 492.2C1075.27 491.72 1075.25 491.23 1075.25 490.73C1075.25 489.91 1075.24 489.1 1075.22 488.3C1075.18 487.52 1075.16 486.72 1075.16 485.9V484.85C1075.16 484.51 1075.18 484.17 1075.22 483.83C1075.22 483.69 1075.24 483.42 1075.28 483.02C1075.32 482.64 1075.4 482.27 1075.52 481.91C1075.62 481.57 1075.77 481.3 1075.97 481.1C1076.15 480.92 1076.39 480.95 1076.69 481.19C1077.03 481.45 1077.21 481.74 1077.23 482.06C1077.23 482.4 1077.21 482.74 1077.17 483.08C1077.13 483.44 1077.09 483.84 1077.05 484.28C1077.01 484.74 1076.99 485.2 1076.99 485.66C1076.99 486.24 1077.05 486.77 1077.17 487.25C1077.23 487.41 1077.31 487.52 1077.41 487.58C1077.51 487.64 1077.62 487.68 1077.74 487.7C1077.86 487.72 1077.99 487.72 1078.13 487.7L1078.55 487.64C1079.01 487.56 1079.51 487.46 1080.05 487.34C1080.59 487.24 1081.1 487.17 1081.58 487.13C1082 487.11 1082.39 487.07 1082.75 487.01C1083.11 486.97 1083.51 486.95 1083.95 486.95C1084.17 486.95 1084.45 486.94 1084.79 486.92C1085.11 486.92 1085.32 486.81 1085.42 486.59C1085.5 486.37 1085.53 486.08 1085.51 485.72C1085.47 485.36 1085.45 485.06 1085.45 484.82L1085.42 483.8L1085.33 482.78C1085.31 482.5 1085.29 482.21 1085.27 481.91C1085.23 481.61 1085.23 481.32 1085.27 481.04C1085.31 480.76 1085.48 480.58 1085.78 480.5C1086.08 480.42 1086.36 480.43 1086.62 480.53C1086.96 480.67 1087.16 480.85 1087.22 481.07C1087.26 481.29 1087.28 481.57 1087.28 481.91C1087.28 482.47 1087.29 483.02 1087.31 483.56V485.99C1087.31 486.17 1087.33 486.33 1087.37 486.47L1087.55 487.28L1087.67 488.12C1087.71 488.42 1087.69 488.72 1087.61 489.02C1087.51 489.32 1087.44 489.61 1087.4 489.89C1087.42 490.31 1087.43 490.72 1087.43 491.12V492.38C1087.43 492.78 1087.47 493.19 1087.55 493.61C1087.63 494.03 1087.69 494.44 1087.73 494.84C1087.77 495.18 1087.76 495.49 1087.7 495.77C1087.64 496.05 1087.54 496.34 1087.4 496.64ZM1099.39 492.38C1099.55 492.28 1099.75 492.1 1099.99 491.84C1100.23 491.58 1100.45 491.31 1100.65 491.03C1100.83 490.75 1100.97 490.47 1101.07 490.19C1101.17 489.93 1101.16 489.72 1101.04 489.56C1100.76 489.24 1100.36 489.04 1099.84 488.96C1099.3 488.88 1098.8 488.8 1098.34 488.72C1097.84 488.64 1097.32 488.62 1096.78 488.66C1096.22 488.72 1095.67 488.78 1095.13 488.84C1094.87 488.88 1094.58 488.92 1094.26 488.96C1093.94 489 1093.64 489.08 1093.36 489.2C1093.14 489.3 1093.03 489.4 1093.03 489.5C1093.01 489.6 1092.99 489.73 1092.97 489.89C1092.95 490.13 1092.93 490.34 1092.91 490.52C1092.87 490.72 1092.85 490.97 1092.85 491.27C1092.83 491.53 1092.83 491.78 1092.85 492.02L1092.88 492.71C1092.88 492.95 1092.89 493.18 1092.91 493.4C1092.93 493.64 1093.01 493.84 1093.15 494C1093.27 494.18 1093.45 494.29 1093.69 494.33C1093.93 494.39 1094.2 494.4 1094.5 494.36C1094.8 494.32 1095.11 494.26 1095.43 494.18C1095.73 494.08 1096 493.99 1096.24 493.91C1096.62 493.77 1096.99 493.63 1097.35 493.49C1097.67 493.35 1098.01 493.18 1098.37 492.98C1098.73 492.8 1099.07 492.6 1099.39 492.38ZM1090.87 491.3C1090.87 490.32 1090.85 489.34 1090.81 488.36C1090.79 488.18 1090.79 487.99 1090.81 487.79V485.75C1090.79 485.29 1090.75 484.86 1090.69 484.46C1090.63 484.06 1090.6 483.66 1090.6 483.26C1090.58 482.84 1090.54 482.43 1090.48 482.03C1090.44 481.83 1090.47 481.62 1090.57 481.4C1090.67 481.16 1090.78 480.93 1090.9 480.71C1091.02 480.51 1091.18 480.38 1091.38 480.32C1091.56 480.26 1091.74 480.24 1091.92 480.26C1092.24 480.24 1092.49 480.39 1092.67 480.71C1092.85 481.01 1092.94 482 1092.94 483.68C1092.92 483.82 1092.9 483.96 1092.88 484.1C1092.88 484.32 1092.87 484.59 1092.85 484.91C1092.81 485.19 1092.79 485.47 1092.79 485.75C1092.79 486.11 1092.82 486.4 1092.88 486.62L1094.86 486.44C1095.5 486.38 1096.14 486.35 1096.78 486.35C1097.4 486.33 1098.02 486.35 1098.64 486.41C1099.24 486.45 1099.83 486.57 1100.41 486.77C1101.11 487.01 1101.67 487.32 1102.09 487.7C1102.49 488.1 1102.83 488.63 1103.11 489.29C1103.19 489.47 1103.25 489.72 1103.29 490.04C1103.33 490.32 1103.35 490.63 1103.35 490.97C1103.35 491.19 1103.34 491.41 1103.32 491.63C1103.28 491.85 1103.22 492.03 1103.14 492.17C1102.96 492.51 1102.72 492.86 1102.42 493.22C1102.12 493.56 1101.83 493.85 1101.55 494.09C1101.15 494.43 1100.75 494.73 1100.35 494.99C1099.95 495.23 1099.55 495.45 1099.15 495.65C1098.73 495.83 1098.31 496.01 1097.89 496.19L1096.57 496.7C1096.43 496.76 1096.3 496.82 1096.18 496.88L1095.79 497C1095.07 497.24 1094.38 497.35 1093.72 497.33C1093.3 497.31 1092.84 497.29 1092.34 497.27C1091.82 497.23 1091.4 497.09 1091.08 496.85C1090.86 496.71 1090.71 496.5 1090.63 496.22C1090.55 495.92 1090.51 495.59 1090.51 495.23C1090.51 494.71 1090.56 494.17 1090.66 493.61C1090.76 493.03 1090.82 492.53 1090.84 492.11C1090.86 491.91 1090.87 491.71 1090.87 491.51V491.3ZM1109.3 480.95C1109.14 481.73 1109.01 482.51 1108.91 483.29C1108.79 484.07 1108.69 484.85 1108.61 485.63C1108.57 485.95 1108.52 486.26 1108.46 486.56C1108.4 486.86 1108.35 487.17 1108.31 487.49C1108.27 487.77 1108.25 488.05 1108.25 488.33L1108.22 489.17C1108.22 489.35 1108.21 489.59 1108.19 489.89C1108.17 490.19 1108.15 490.5 1108.13 490.82C1108.09 491.14 1108.04 491.44 1107.98 491.72C1107.9 492 1107.8 492.2 1107.68 492.32L1107.5 492.5C1107.42 492.58 1107.34 492.65 1107.26 492.71C1107.16 492.77 1107.07 492.81 1106.99 492.83C1106.91 492.85 1106.84 492.82 1106.78 492.74C1106.68 492.66 1106.61 492.54 1106.57 492.38C1106.51 492.22 1106.47 492.05 1106.45 491.87L1106.42 491.36C1106.4 491.18 1106.38 491.03 1106.36 490.91C1106.32 490.65 1106.32 490.39 1106.36 490.13C1106.38 489.87 1106.41 489.62 1106.45 489.38C1106.49 489.1 1106.51 488.82 1106.51 488.54C1106.49 488.26 1106.5 487.98 1106.54 487.7L1106.66 486.65C1106.7 486.31 1106.73 485.97 1106.75 485.63L1106.87 484.04C1106.91 483.52 1106.98 483 1107.08 482.48L1107.14 481.79C1107.14 481.57 1107.16 481.35 1107.2 481.13C1107.24 480.93 1107.32 480.73 1107.44 480.53C1107.56 480.35 1107.76 480.18 1108.04 480.02C1108.24 479.92 1108.44 479.83 1108.64 479.75C1108.82 479.69 1109.01 479.74 1109.21 479.9C1109.37 480.04 1109.43 480.2 1109.39 480.38L1109.3 480.95ZM1108.04 495.26C1107.84 495.12 1107.55 495.07 1107.17 495.11C1106.77 495.15 1106.47 495.23 1106.27 495.35C1106.17 495.41 1106.08 495.5 1106 495.62C1105.92 495.74 1105.85 495.87 1105.79 496.01C1105.73 496.17 1105.68 496.33 1105.64 496.49C1105.6 496.65 1105.57 496.78 1105.55 496.88C1105.53 497.02 1105.5 497.18 1105.46 497.36C1105.4 497.56 1105.39 497.73 1105.43 497.87C1105.47 497.97 1105.54 498.07 1105.64 498.17C1105.74 498.27 1105.82 498.34 1105.88 498.38C1106.06 498.6 1106.25 498.66 1106.45 498.56C1106.65 498.48 1106.84 498.33 1107.02 498.11C1107.2 497.91 1107.37 497.68 1107.53 497.42C1107.67 497.18 1107.78 497 1107.86 496.88C1107.9 496.78 1107.96 496.69 1108.04 496.61C1108.1 496.55 1108.15 496.47 1108.19 496.37C1108.29 496.21 1108.33 496.01 1108.31 495.77C1108.29 495.53 1108.2 495.36 1108.04 495.26Z" fill="black"/>
</svg>
