<svg width="1334" height="621" viewBox="0 0 1334 621" fill="none" xmlns="http://www.w3.org/2000/svg">
<rect x="1100" y="592" width="233" height="28" fill="white"/>
<rect x="1100" y="592" width="233" height="28" stroke="black" stroke-width="2"/>
<path d="M1118.49 610.784C1118.44 610.88 1118.41 610.952 1118.38 611C1118.35 611.06 1118.27 611.09 1118.17 611.09C1118 611.09 1117.84 611.006 1117.7 610.838C1117.61 610.706 1117.57 610.544 1117.57 610.352C1117.57 610.172 1117.58 610.004 1117.59 609.848C1117.6 609.608 1117.6 609.368 1117.57 609.128C1117.55 608.888 1117.54 608.648 1117.55 608.408V603.314C1117.55 603.194 1117.54 603.074 1117.52 602.954C1117.51 602.846 1117.49 602.762 1117.48 602.702C1117.47 602.654 1117.41 602.618 1117.3 602.594C1117.22 602.57 1117.13 602.552 1117.05 602.54C1116.97 602.54 1116.88 602.534 1116.78 602.522C1116.4 602.522 1116.04 602.54 1115.7 602.576C1115.35 602.624 1114.99 602.678 1114.6 602.738C1114.29 602.786 1113.96 602.852 1113.61 602.936C1113.26 603.02 1112.95 603.104 1112.66 603.188C1112.55 603.224 1112.49 603.26 1112.48 603.296C1112.47 603.344 1112.41 603.962 1112.3 605.15C1112.27 605.318 1112.27 605.48 1112.3 605.636C1112.32 605.876 1112.38 606.926 1112.48 608.786C1112.49 608.93 1112.51 609.122 1112.53 609.362C1112.6 609.746 1112.64 610.112 1112.64 610.46C1112.64 610.604 1112.62 610.742 1112.59 610.874C1112.54 611.018 1112.44 611.102 1112.3 611.126C1112.13 611.15 1111.98 611.102 1111.85 610.982C1111.72 610.862 1111.62 610.724 1111.56 610.568C1111.45 610.328 1111.4 610.064 1111.4 609.776C1111.4 609.5 1111.38 609.236 1111.34 608.984C1111.3 608.696 1111.26 608.408 1111.24 608.12C1111.21 607.832 1111.2 607.538 1111.2 607.238C1111.2 606.746 1111.19 606.26 1111.18 605.78C1111.16 605.312 1111.15 604.832 1111.15 604.34V603.71C1111.15 603.506 1111.16 603.302 1111.18 603.098C1111.18 603.014 1111.19 602.852 1111.22 602.612C1111.24 602.384 1111.29 602.162 1111.36 601.946C1111.42 601.742 1111.51 601.58 1111.63 601.46C1111.74 601.352 1111.88 601.37 1112.06 601.514C1115.88 601.19 1117.87 601.058 1118.02 601.118C1118.23 601.202 1118.35 601.31 1118.38 601.442C1118.41 601.574 1118.42 601.742 1118.42 601.946C1118.42 602.282 1118.42 602.612 1118.44 602.936V604.394C1118.44 604.502 1118.45 604.598 1118.47 604.682L1118.58 605.168L1118.65 605.672C1118.68 605.852 1118.66 606.032 1118.62 606.212C1118.56 606.392 1118.51 606.566 1118.49 606.734C1118.5 606.986 1118.51 607.232 1118.51 607.472V608.228C1118.51 608.468 1118.53 608.714 1118.58 608.966C1118.63 609.218 1118.66 609.464 1118.69 609.704C1118.71 609.908 1118.71 610.094 1118.67 610.262C1118.63 610.43 1118.57 610.604 1118.49 610.784ZM1127.3 601.91C1127.57 602.078 1127.73 602.33 1127.79 602.666C1127.84 603.002 1127.81 603.32 1127.7 603.62C1127.66 603.764 1127.61 603.896 1127.55 604.016L1127.37 604.394L1127.27 604.61C1127.23 604.682 1127.18 604.754 1127.12 604.826C1126.95 605.066 1126.7 605.306 1126.37 605.546C1126.03 605.798 1125.66 606.032 1125.27 606.248C1124.87 606.464 1124.47 606.656 1124.06 606.824C1123.64 606.992 1123.26 607.124 1122.93 607.22C1122.76 607.28 1122.6 607.322 1122.44 607.346C1122.29 607.382 1122.12 607.4 1121.94 607.4C1121.91 607.82 1121.9 608.222 1121.88 608.606C1121.87 609.002 1121.87 609.41 1121.87 609.83V610.28C1121.85 610.496 1121.83 610.706 1121.79 610.91C1121.75 611.126 1121.68 611.294 1121.6 611.414C1121.5 611.546 1121.37 611.57 1121.2 611.486C1121.03 611.402 1120.92 611.276 1120.86 611.108C1120.79 610.94 1120.74 610.772 1120.71 610.604C1120.68 610.232 1120.66 609.896 1120.66 609.596L1120.68 609.11V607.202C1120.68 606.746 1120.67 606.29 1120.66 605.834C1120.65 605.39 1120.62 604.94 1120.57 604.484C1120.55 604.292 1120.53 604.1 1120.52 603.908C1120.5 603.728 1120.48 603.542 1120.44 603.35C1120.42 603.182 1120.38 602.996 1120.32 602.792C1120.26 602.588 1120.26 602.396 1120.32 602.216C1120.34 602.12 1120.4 602 1120.48 601.856C1120.55 601.748 1120.66 601.67 1120.8 601.622C1120.94 601.586 1121.06 601.544 1121.18 601.496C1121.31 601.496 1121.48 601.448 1121.67 601.352C1121.85 601.268 1122.06 601.196 1122.3 601.136L1122.66 601.064C1122.77 601.04 1122.89 601.016 1123.02 600.992C1123.31 600.956 1123.61 600.938 1123.92 600.938C1124.09 600.938 1124.25 600.944 1124.4 600.956C1124.55 600.968 1124.69 600.992 1124.84 601.028L1125.07 601.082C1125.14 601.094 1125.23 601.106 1125.32 601.118C1125.67 601.178 1126.02 601.274 1126.37 601.406C1126.7 601.55 1127.01 601.718 1127.3 601.91ZM1126.42 603.584C1126.23 603.416 1126.02 603.284 1125.81 603.188C1125.58 603.104 1125.36 603.032 1125.16 602.972C1124.93 602.912 1124.7 602.864 1124.48 602.828L1124.21 602.774C1124.11 602.762 1124.01 602.756 1123.92 602.756C1123.59 602.756 1123.28 602.798 1122.98 602.882L1122.05 603.152C1121.89 603.224 1121.81 603.362 1121.79 603.566C1121.78 603.77 1121.78 603.95 1121.79 604.106L1121.83 604.592C1121.84 604.748 1121.84 604.91 1121.83 605.078C1121.82 605.234 1121.81 605.342 1121.81 605.402C1121.8 605.474 1121.82 605.582 1121.88 605.726C1122.09 605.726 1122.32 605.732 1122.57 605.744C1122.81 605.768 1123.03 605.75 1123.23 605.69C1123.58 605.594 1123.93 605.492 1124.28 605.384C1124.61 605.276 1124.93 605.114 1125.23 604.898C1125.29 604.874 1125.36 604.838 1125.43 604.79C1125.49 604.754 1125.56 604.712 1125.65 604.664C1125.71 604.64 1125.8 604.586 1125.92 604.502C1126.04 604.418 1126.15 604.322 1126.26 604.214C1126.37 604.106 1126.44 603.992 1126.49 603.872C1126.54 603.764 1126.52 603.668 1126.42 603.584ZM1138.33 606.338C1138.35 606.758 1138.31 607.178 1138.2 607.598C1138.1 608.03 1137.9 608.384 1137.61 608.66C1137.25 609.008 1136.85 609.356 1136.42 609.704C1135.99 610.064 1135.55 610.34 1135.09 610.532C1134.8 610.64 1134.51 610.724 1134.21 610.784L1133.29 611C1133.03 611.06 1132.78 611.126 1132.55 611.198C1132.32 611.282 1132.08 611.324 1131.81 611.324C1131.36 611.324 1130.94 611.27 1130.57 611.162C1130.19 611.054 1129.82 610.85 1129.46 610.55C1129.11 610.286 1128.88 610.016 1128.77 609.74C1128.66 609.476 1128.61 609.116 1128.61 608.66C1128.61 608.084 1128.68 607.52 1128.83 606.968C1128.97 606.428 1129.2 605.93 1129.51 605.474C1129.71 605.198 1129.88 604.928 1130.01 604.664C1130.15 604.4 1130.34 604.154 1130.59 603.926C1130.83 603.71 1131.07 603.476 1131.31 603.224C1131.55 602.972 1131.79 602.744 1132.03 602.54C1132.34 602.288 1132.63 602.066 1132.89 601.874C1133.16 601.682 1133.48 601.52 1133.85 601.388C1134.04 601.328 1134.26 601.268 1134.5 601.208C1134.74 601.16 1134.98 601.136 1135.22 601.136C1135.48 601.136 1135.73 601.172 1135.97 601.244C1136.2 601.316 1136.4 601.436 1136.57 601.604C1136.84 601.892 1137.12 602.222 1137.39 602.594C1137.67 602.978 1137.88 603.35 1138.02 603.71C1138.11 603.902 1138.17 604.106 1138.2 604.322C1138.24 604.55 1138.27 604.778 1138.29 605.006C1138.31 605.234 1138.31 605.462 1138.31 605.69C1138.31 605.918 1138.32 606.134 1138.33 606.338ZM1137.03 607.562C1137.13 607.358 1137.21 607.118 1137.27 606.842C1137.32 606.566 1137.34 606.29 1137.34 606.014L1137.32 605.582C1137.31 605.438 1137.29 605.312 1137.25 605.204C1137.18 604.964 1137.05 604.736 1136.87 604.52C1136.68 604.316 1136.52 604.118 1136.4 603.926C1136.24 603.686 1136.07 603.53 1135.92 603.458C1135.75 603.386 1135.55 603.32 1135.32 603.26C1135.23 603.236 1135.11 603.212 1134.96 603.188C1134.82 603.164 1134.7 603.14 1134.6 603.116C1134.51 603.092 1134.41 603.086 1134.32 603.098L1134.03 603.134C1133.8 603.158 1133.6 603.212 1133.42 603.296C1133.22 603.392 1133.03 603.482 1132.82 603.566C1132.52 603.674 1132.23 603.836 1131.96 604.052C1131.67 604.268 1131.41 604.514 1131.18 604.79C1130.94 605.066 1130.73 605.36 1130.55 605.672C1130.36 605.996 1130.21 606.314 1130.1 606.626C1130.04 606.806 1129.99 606.998 1129.94 607.202C1129.89 607.406 1129.87 607.616 1129.87 607.832C1129.87 608.144 1129.93 608.438 1130.05 608.714C1130.09 608.798 1130.15 608.858 1130.23 608.894C1130.3 608.942 1130.39 608.978 1130.5 609.002L1130.81 609.056C1130.9 609.08 1130.99 609.11 1131.08 609.146C1131.17 609.194 1131.31 609.224 1131.49 609.236C1131.66 609.248 1131.79 609.266 1131.89 609.29C1132.02 609.302 1132.15 609.32 1132.28 609.344C1132.4 609.38 1132.53 609.392 1132.66 609.38C1132.9 609.356 1133.15 609.326 1133.42 609.29C1133.68 609.254 1133.93 609.194 1134.15 609.11C1134.36 609.026 1134.56 608.966 1134.77 608.93C1134.97 608.894 1135.17 608.828 1135.36 608.732C1135.67 608.588 1135.99 608.438 1136.31 608.282C1136.63 608.126 1136.87 607.886 1137.03 607.562ZM1146.32 608.57C1146.28 608.414 1146.23 608.258 1146.17 608.102C1146.08 607.85 1145.98 607.586 1145.89 607.31L1145.56 606.5C1145.49 606.284 1145.41 606.062 1145.31 605.834L1145 605.168L1144.82 604.736C1144.75 604.58 1144.69 604.424 1144.63 604.268C1144.63 604.208 1144.6 604.118 1144.55 603.998L1144.39 603.71C1144.34 603.602 1144.31 603.506 1144.28 603.422C1144.25 603.338 1144.24 603.284 1144.25 603.26C1144.07 603.596 1143.9 603.98 1143.74 604.412C1143.56 604.832 1143.41 605.186 1143.28 605.474C1143.1 605.858 1142.93 606.242 1142.79 606.626C1142.63 607.01 1142.47 607.394 1142.3 607.778C1142.24 607.946 1142.18 608.132 1142.12 608.336C1142.05 608.552 1141.98 608.762 1141.91 608.966C1141.86 609.062 1141.82 609.158 1141.78 609.254L1141.89 609.236C1142.32 609.2 1142.77 609.158 1143.24 609.11C1144.14 608.942 1145.17 608.762 1146.32 608.57ZM1140.54 609.308C1140.56 609.272 1140.58 609.236 1140.59 609.2C1140.7 608.996 1140.79 608.798 1140.86 608.606L1141.55 606.896C1141.78 606.332 1142.01 605.768 1142.25 605.204C1142.49 604.664 1142.72 604.124 1142.93 603.584L1143.6 601.982C1143.67 601.79 1143.73 601.592 1143.76 601.388C1143.8 601.196 1143.89 601.022 1144.03 600.866C1144.2 600.71 1144.37 600.632 1144.55 600.632C1144.73 600.632 1144.9 600.74 1145.06 600.956C1145.27 601.316 1145.44 601.712 1145.54 602.144C1145.66 602.564 1145.83 602.966 1146.03 603.35L1146.73 604.736C1146.97 605.192 1147.18 605.654 1147.34 606.122C1147.48 606.434 1147.6 606.752 1147.72 607.076C1147.84 607.412 1147.9 607.748 1147.9 608.084C1147.9 608.168 1147.9 608.252 1147.88 608.336C1147.97 608.324 1148.05 608.312 1148.14 608.3C1148.18 608.264 1148.24 608.24 1148.3 608.228C1148.41 608.204 1148.51 608.198 1148.6 608.21L1148.84 608.174L1149.04 608.192C1149.11 608.204 1149.17 608.222 1149.22 608.246C1149.31 608.366 1149.36 608.468 1149.36 608.552C1149.36 608.612 1149.35 608.678 1149.32 608.75C1149.38 608.87 1149.42 608.966 1149.43 609.038C1149.46 609.434 1149.43 609.824 1149.34 610.208L1149.11 611.396C1149.1 611.492 1149.05 611.594 1148.98 611.702C1148.89 611.81 1148.77 611.888 1148.64 611.936C1148.53 611.96 1148.41 611.966 1148.28 611.954C1148.15 611.942 1148.05 611.912 1147.99 611.864C1147.82 611.732 1147.76 611.558 1147.79 611.342C1147.84 611.138 1147.87 610.958 1147.88 610.802C1147.91 610.562 1147.93 610.31 1147.96 610.046V609.704C1147.78 609.74 1147.54 609.788 1147.25 609.848C1145.79 610.088 1144.54 610.328 1143.49 610.568C1143.1 610.628 1142.72 610.682 1142.38 610.73C1142.03 610.778 1141.76 610.82 1141.58 610.856L1141.4 610.874L1141.24 610.892C1141.12 610.916 1141.03 610.928 1140.97 610.928C1140.79 610.94 1140.65 610.982 1140.54 611.054C1140.48 611.078 1140.43 611.126 1140.4 611.198L1140.36 611.432C1140.36 611.552 1140.39 611.9 1140.45 612.476C1140.52 613.064 1140.41 613.34 1140.13 613.304C1139.81 613.268 1139.57 613.178 1139.39 613.034C1139.26 612.962 1139.17 612.842 1139.12 612.674C1139.07 612.506 1139.05 612.32 1139.05 612.116C1139.05 611.828 1139.06 611.642 1139.08 611.558C1139.05 611.33 1139.03 611.108 1139.03 610.892C1139.02 610.652 1138.99 610.424 1138.96 610.208C1138.93 610.088 1138.95 609.968 1139.01 609.848C1139.07 609.716 1139.14 609.59 1139.21 609.47C1139.28 609.362 1139.37 609.296 1139.48 609.272C1139.59 609.236 1139.69 609.23 1139.8 609.254C1139.99 609.242 1140.16 609.254 1140.29 609.29C1140.36 609.302 1140.44 609.308 1140.54 609.308ZM1160.09 606.338C1160.11 606.758 1160.07 607.178 1159.96 607.598C1159.86 608.03 1159.66 608.384 1159.37 608.66C1159.01 609.008 1158.61 609.356 1158.18 609.704C1157.75 610.064 1157.31 610.34 1156.85 610.532C1156.56 610.64 1156.27 610.724 1155.97 610.784L1155.05 611C1154.79 611.06 1154.54 611.126 1154.31 611.198C1154.08 611.282 1153.84 611.324 1153.57 611.324C1153.12 611.324 1152.7 611.27 1152.33 611.162C1151.95 611.054 1151.58 610.85 1151.22 610.55C1150.87 610.286 1150.64 610.016 1150.53 609.74C1150.42 609.476 1150.37 609.116 1150.37 608.66C1150.37 608.084 1150.44 607.52 1150.59 606.968C1150.73 606.428 1150.96 605.93 1151.27 605.474C1151.47 605.198 1151.64 604.928 1151.77 604.664C1151.91 604.4 1152.1 604.154 1152.35 603.926C1152.59 603.71 1152.83 603.476 1153.07 603.224C1153.31 602.972 1153.55 602.744 1153.79 602.54C1154.1 602.288 1154.39 602.066 1154.65 601.874C1154.92 601.682 1155.24 601.52 1155.61 601.388C1155.8 601.328 1156.02 601.268 1156.26 601.208C1156.5 601.16 1156.74 601.136 1156.98 601.136C1157.24 601.136 1157.49 601.172 1157.73 601.244C1157.96 601.316 1158.16 601.436 1158.33 601.604C1158.6 601.892 1158.88 602.222 1159.15 602.594C1159.43 602.978 1159.64 603.35 1159.78 603.71C1159.87 603.902 1159.93 604.106 1159.96 604.322C1160 604.55 1160.03 604.778 1160.05 605.006C1160.07 605.234 1160.07 605.462 1160.07 605.69C1160.07 605.918 1160.08 606.134 1160.09 606.338ZM1158.79 607.562C1158.89 607.358 1158.97 607.118 1159.03 606.842C1159.08 606.566 1159.1 606.29 1159.1 606.014L1159.08 605.582C1159.07 605.438 1159.05 605.312 1159.01 605.204C1158.94 604.964 1158.81 604.736 1158.63 604.52C1158.44 604.316 1158.28 604.118 1158.16 603.926C1158 603.686 1157.83 603.53 1157.68 603.458C1157.51 603.386 1157.31 603.32 1157.08 603.26C1156.99 603.236 1156.87 603.212 1156.72 603.188C1156.58 603.164 1156.46 603.14 1156.36 603.116C1156.27 603.092 1156.17 603.086 1156.08 603.098L1155.79 603.134C1155.56 603.158 1155.36 603.212 1155.18 603.296C1154.98 603.392 1154.79 603.482 1154.58 603.566C1154.28 603.674 1153.99 603.836 1153.72 604.052C1153.43 604.268 1153.17 604.514 1152.94 604.79C1152.7 605.066 1152.49 605.36 1152.31 605.672C1152.12 605.996 1151.97 606.314 1151.86 606.626C1151.8 606.806 1151.75 606.998 1151.7 607.202C1151.65 607.406 1151.63 607.616 1151.63 607.832C1151.63 608.144 1151.69 608.438 1151.81 608.714C1151.85 608.798 1151.91 608.858 1151.99 608.894C1152.06 608.942 1152.15 608.978 1152.26 609.002L1152.57 609.056C1152.66 609.08 1152.75 609.11 1152.84 609.146C1152.93 609.194 1153.07 609.224 1153.25 609.236C1153.42 609.248 1153.55 609.266 1153.65 609.29C1153.78 609.302 1153.91 609.32 1154.04 609.344C1154.16 609.38 1154.29 609.392 1154.42 609.38C1154.66 609.356 1154.91 609.326 1155.18 609.29C1155.44 609.254 1155.69 609.194 1155.91 609.11C1156.12 609.026 1156.32 608.966 1156.53 608.93C1156.73 608.894 1156.93 608.828 1157.12 608.732C1157.43 608.588 1157.75 608.438 1158.07 608.282C1158.39 608.126 1158.63 607.886 1158.79 607.562ZM1165.47 605.132C1165.4 604.976 1165.33 604.814 1165.27 604.646C1165.26 604.574 1165.23 604.478 1165.18 604.358L1165.02 604.034C1164.97 603.926 1164.94 603.824 1164.91 603.728C1164.88 603.644 1164.86 603.59 1164.88 603.566C1164.7 603.926 1164.52 604.334 1164.35 604.79C1164.17 605.246 1164.02 605.624 1163.89 605.924C1163.71 606.344 1163.54 606.758 1163.38 607.166C1163.23 607.574 1163.06 607.988 1162.9 608.408C1162.84 608.588 1162.78 608.786 1162.72 609.002C1162.64 609.23 1162.57 609.452 1162.48 609.668C1162.4 609.896 1162.3 610.106 1162.19 610.298C1162.09 610.49 1161.95 610.652 1161.8 610.784C1161.71 610.856 1161.63 610.916 1161.55 610.964C1161.46 611.024 1161.37 611.054 1161.28 611.054C1161.07 611.054 1160.97 610.904 1160.97 610.604C1160.97 610.4 1161.03 610.178 1161.15 609.938C1161.26 609.71 1161.35 609.494 1161.42 609.29L1162.12 607.454C1162.35 606.854 1162.59 606.248 1162.84 605.636C1163.08 605.06 1163.32 604.484 1163.54 603.908L1164.21 602.18C1164.28 601.976 1164.34 601.766 1164.39 601.55C1164.43 601.346 1164.52 601.16 1164.66 600.992C1164.83 600.824 1165 600.74 1165.18 600.74C1165.37 600.74 1165.55 600.854 1165.7 601.082C1165.92 601.478 1166.09 601.904 1166.21 602.36C1166.33 602.816 1166.49 603.248 1166.69 603.656L1167.41 605.132C1167.65 605.624 1167.86 606.122 1168.04 606.626C1168.18 606.962 1168.3 607.304 1168.42 607.652C1168.54 608.012 1168.6 608.372 1168.6 608.732C1168.6 608.948 1168.58 609.146 1168.53 609.326C1168.47 609.518 1168.4 609.704 1168.31 609.884C1168.23 610.076 1168.11 610.238 1167.95 610.37C1167.65 610.634 1167.42 610.562 1167.25 610.154C1167.16 609.95 1167.08 609.722 1167.04 609.47C1166.99 609.23 1166.92 608.99 1166.84 608.75C1166.74 608.474 1166.65 608.192 1166.55 607.904L1166.23 607.04C1166.14 606.8 1166.05 606.56 1165.96 606.32L1165.65 605.6L1165.47 605.132ZM1175.82 605.042C1175.86 605.006 1175.9 604.97 1175.95 604.934L1176.4 604.556C1176.79 604.196 1177.18 603.83 1177.57 603.458C1177.94 603.098 1178.3 602.726 1178.66 602.342L1179.04 602C1179.16 601.88 1179.27 601.748 1179.37 601.604C1179.46 601.496 1179.59 601.364 1179.76 601.208C1179.92 601.064 1180.09 600.932 1180.28 600.812C1180.45 600.692 1180.63 600.596 1180.81 600.524C1180.96 600.464 1181.1 600.446 1181.22 600.47C1181.45 600.542 1181.56 600.674 1181.56 600.866C1181.56 600.974 1181.54 601.076 1181.49 601.172C1181.44 601.28 1181.39 601.358 1181.35 601.406C1181.18 601.55 1181.02 601.682 1180.88 601.802C1180.72 601.934 1180.57 602.072 1180.41 602.216C1180.34 602.288 1180.24 602.378 1180.12 602.486C1180 602.594 1179.91 602.69 1179.83 602.774C1179.73 602.87 1179.64 602.948 1179.58 603.008C1179.51 603.068 1179.43 603.146 1179.33 603.242L1178.72 603.782C1178.5 603.986 1178.3 604.172 1178.12 604.34C1178.03 604.424 1177.97 604.472 1177.96 604.484C1177.95 604.496 1177.9 604.556 1177.82 604.664C1177.76 604.724 1177.67 604.82 1177.55 604.952C1177.44 605.072 1177.38 605.174 1177.37 605.258C1177.37 605.426 1177.43 605.6 1177.55 605.78C1177.73 605.96 1177.93 606.14 1178.16 606.32C1178.36 606.5 1178.57 606.656 1178.79 606.788L1179.53 607.274L1180.28 607.778C1180.45 607.898 1180.62 608.024 1180.79 608.156C1180.94 608.288 1181.05 608.456 1181.09 608.66C1181.11 608.72 1181.12 608.81 1181.13 608.93V609.254C1181.12 609.386 1181.09 609.506 1181.06 609.614C1181.02 609.734 1180.98 609.83 1180.93 609.902C1180.86 609.974 1180.79 610.022 1180.72 610.046C1180.66 610.058 1180.6 610.046 1180.55 610.01C1180.49 609.986 1180.43 609.944 1180.37 609.884C1180.31 609.836 1180.25 609.794 1180.19 609.758C1180.04 609.626 1179.86 609.506 1179.67 609.398C1179.49 609.278 1179.31 609.152 1179.13 609.02L1178.29 608.426L1177.42 607.814C1177.24 607.682 1177.06 607.55 1176.88 607.418C1176.71 607.286 1176.53 607.154 1176.32 607.022L1175.93 606.734C1175.87 606.71 1175.81 606.68 1175.77 606.644C1175.74 607.316 1175.74 607.79 1175.75 608.066C1175.76 608.438 1175.77 608.756 1175.78 609.02C1175.81 609.224 1175.81 609.416 1175.8 609.596C1175.78 609.788 1175.72 609.956 1175.62 610.1C1175.44 610.364 1175.29 610.508 1175.17 610.532C1175.03 610.568 1174.91 610.532 1174.83 610.424C1174.73 610.316 1174.67 610.16 1174.63 609.956C1174.58 609.752 1174.57 609.554 1174.58 609.362L1174.61 608.444C1174.63 608.156 1174.63 607.856 1174.63 607.544C1174.64 607.268 1174.66 606.962 1174.67 606.626C1174.64 606.65 1174.61 606.674 1174.58 606.698C1174.41 606.83 1174.25 606.968 1174.11 607.112C1173.33 607.808 1172.57 608.54 1171.82 609.308L1171.48 609.668C1171.36 609.788 1171.25 609.914 1171.16 610.046C1171.05 610.166 1170.91 610.298 1170.74 610.442C1170.59 610.598 1170.42 610.736 1170.24 610.856C1170.07 610.976 1169.9 611.072 1169.74 611.144C1169.57 611.204 1169.42 611.222 1169.3 611.198C1169.08 611.126 1168.96 610.994 1168.96 610.802C1168.96 610.694 1168.99 610.586 1169.03 610.478C1169.08 610.37 1169.13 610.292 1169.18 610.244C1169.35 610.1 1169.5 609.968 1169.65 609.848C1169.8 609.74 1169.95 609.614 1170.1 609.47C1170.18 609.374 1170.28 609.278 1170.4 609.182C1170.51 609.074 1170.6 608.972 1170.67 608.876C1170.78 608.78 1170.87 608.702 1170.94 608.642C1171.01 608.594 1171.1 608.516 1171.19 608.408C1171.41 608.24 1171.61 608.066 1171.81 607.886L1172.4 607.346C1172.48 607.238 1172.54 607.178 1172.56 607.166C1172.57 607.154 1172.62 607.1 1172.69 607.004L1172.98 606.716C1173.08 606.596 1173.14 606.5 1173.14 606.428C1173.16 606.224 1173.1 606.044 1172.96 605.888C1172.79 605.696 1172.59 605.51 1172.36 605.33C1172.15 605.162 1171.93 605.018 1171.72 604.898L1171 604.394C1170.74 604.25 1170.49 604.088 1170.24 603.908L1169.74 603.512C1169.58 603.392 1169.48 603.23 1169.43 603.026C1169.41 602.954 1169.39 602.858 1169.39 602.738C1169.38 602.63 1169.38 602.516 1169.39 602.396C1169.41 602.264 1169.43 602.144 1169.47 602.036C1169.49 601.928 1169.53 601.838 1169.59 601.766C1169.74 601.598 1169.86 601.556 1169.97 601.64L1170.31 601.91C1170.48 602.042 1170.66 602.168 1170.85 602.288L1171.37 602.63L1172.24 603.224C1172.51 603.44 1172.8 603.65 1173.1 603.854L1173.64 604.232C1173.81 604.376 1173.99 604.514 1174.18 604.646C1174.33 604.742 1174.47 604.832 1174.61 604.916C1174.64 604.94 1174.67 604.964 1174.7 604.988V603.746C1174.7 603.65 1174.7 603.548 1174.69 603.44C1174.66 603.14 1174.63 602.852 1174.6 602.576C1174.56 602.3 1174.54 602.024 1174.52 601.748C1174.5 601.52 1174.52 601.334 1174.6 601.19C1174.67 601.034 1174.78 600.878 1174.92 600.722C1175.12 600.542 1175.3 600.506 1175.46 600.614C1175.57 600.626 1175.66 600.662 1175.75 600.722C1175.83 600.794 1175.89 600.89 1175.91 601.01C1175.92 601.082 1175.92 601.172 1175.91 601.28C1175.9 601.388 1175.89 601.49 1175.87 601.586V603.152C1175.86 603.464 1175.85 603.752 1175.84 604.016V604.214L1175.8 604.394C1175.81 604.454 1175.82 604.67 1175.82 605.042ZM1183.03 602.522C1183.03 602.414 1183.07 602.33 1183.14 602.27C1183.2 602.222 1183.28 602.18 1183.37 602.144C1183.46 602.108 1183.55 602.078 1183.64 602.054C1183.74 602.042 1183.82 602.024 1183.89 602C1184.16 601.916 1184.4 601.85 1184.61 601.802C1184.83 601.754 1185.05 601.712 1185.26 601.676C1185.48 601.652 1185.7 601.628 1185.93 601.604C1186.14 601.592 1186.38 601.568 1186.65 601.532C1186.95 601.496 1187.24 601.46 1187.53 601.424C1187.82 601.4 1188.12 601.388 1188.43 601.388C1188.65 601.388 1188.89 601.4 1189.15 601.424C1189.4 601.46 1189.64 601.526 1189.85 601.622C1190.07 601.706 1190.18 601.862 1190.18 602.09C1190.18 602.258 1190.12 602.426 1190.01 602.594C1189.91 602.774 1189.78 602.9 1189.64 602.972C1189.47 603.068 1189.26 603.11 1189.02 603.098C1188.78 603.098 1188.56 603.104 1188.36 603.116C1188.07 603.14 1187.78 603.17 1187.48 603.206L1186.58 603.332C1186.3 603.368 1186.04 603.416 1185.78 603.476C1185.53 603.536 1185.27 603.584 1185.01 603.62C1184.88 603.644 1184.7 603.674 1184.47 603.71C1184.24 603.758 1184.1 603.842 1184.04 603.962C1184.01 604.022 1183.99 604.106 1183.97 604.214C1183.93 604.334 1183.91 604.424 1183.89 604.484C1183.88 604.58 1183.88 604.706 1183.88 604.862C1183.86 605.018 1183.86 605.144 1183.86 605.24C1183.86 605.372 1183.85 605.486 1183.84 605.582C1183.83 605.678 1183.86 605.78 1183.95 605.888L1184.58 605.816C1184.78 605.792 1185 605.75 1185.23 605.69C1185.67 605.57 1186.09 605.468 1186.49 605.384C1186.87 605.312 1187.28 605.246 1187.73 605.186L1188.36 605.114C1188.56 605.102 1188.77 605.108 1188.99 605.132C1189.16 605.144 1189.33 605.156 1189.51 605.168C1189.69 605.192 1189.86 605.246 1190.01 605.33C1190.18 605.414 1190.32 605.498 1190.43 605.582C1190.52 605.666 1190.52 605.792 1190.43 605.96C1190.34 606.116 1190.25 606.212 1190.14 606.248C1190.03 606.296 1189.89 606.35 1189.73 606.41C1189.14 606.578 1188.56 606.722 1187.98 606.842C1187.39 606.974 1186.79 607.106 1186.18 607.238C1185.94 607.298 1185.71 607.34 1185.48 607.364C1185.24 607.388 1185.02 607.43 1184.81 607.49C1184.69 607.514 1184.58 607.538 1184.47 607.562C1184.36 607.598 1184.25 607.64 1184.13 607.688C1184.03 607.712 1183.96 607.778 1183.91 607.886C1183.86 608.006 1183.84 608.132 1183.84 608.264C1183.83 608.408 1183.83 608.546 1183.84 608.678C1183.84 608.81 1183.85 608.906 1183.86 608.966C1183.86 609.062 1183.87 609.122 1183.89 609.146C1183.92 609.182 1183.98 609.194 1184.07 609.182L1184.56 609.146C1184.72 609.134 1184.88 609.128 1185.05 609.128C1185.56 609.128 1186.08 609.086 1186.61 609.002C1187.14 608.918 1187.66 608.84 1188.16 608.768C1188.39 608.732 1188.56 608.702 1188.68 608.678C1188.8 608.654 1188.92 608.636 1189.02 608.624C1189.12 608.612 1189.23 608.6 1189.37 608.588H1190.39C1190.55 608.588 1190.71 608.6 1190.88 608.624C1190.94 608.636 1191.01 608.642 1191.09 608.642C1191.17 608.654 1191.21 608.696 1191.24 608.768C1191.26 608.828 1191.26 608.894 1191.24 608.966C1191.21 609.05 1191.19 609.122 1191.17 609.182C1191.11 609.314 1191.05 609.416 1190.99 609.488C1190.93 609.572 1190.85 609.662 1190.75 609.758C1190.63 609.89 1190.48 609.98 1190.3 610.028C1190.11 610.088 1189.93 610.142 1189.76 610.19C1189.51 610.286 1189.31 610.358 1189.17 610.406C1189.01 610.454 1188.86 610.49 1188.72 610.514C1188.57 610.55 1188.42 610.574 1188.27 610.586C1188.1 610.61 1187.88 610.64 1187.62 610.676C1187.45 610.7 1187.3 610.724 1187.15 610.748C1187 610.772 1186.83 610.796 1186.67 610.82C1186.52 610.832 1186.38 610.832 1186.25 610.82C1186.11 610.82 1185.96 610.826 1185.82 610.838C1185.57 610.85 1185.32 610.886 1185.06 610.946C1184.8 611.018 1184.55 611.066 1184.31 611.09C1184.14 611.09 1183.98 611.096 1183.82 611.108C1183.67 611.12 1183.51 611.084 1183.35 611C1183.04 610.808 1182.87 610.538 1182.83 610.19C1182.78 609.77 1182.75 609.338 1182.72 608.894L1182.65 607.598C1182.63 607.022 1182.66 606.446 1182.76 605.87C1182.84 605.294 1182.89 604.718 1182.89 604.142C1182.89 603.866 1182.91 603.596 1182.96 603.332C1183.01 603.08 1183.03 602.81 1183.03 602.522ZM1200.08 602.396C1200.08 602.78 1200.06 603.164 1200.02 603.548C1199.99 603.932 1199.96 604.316 1199.95 604.7C1199.93 605.528 1199.91 606.35 1199.9 607.166C1199.89 607.982 1199.88 608.804 1199.88 609.632C1199.88 609.752 1199.87 609.926 1199.86 610.154C1199.84 610.382 1199.8 610.592 1199.74 610.784C1199.68 610.988 1199.59 611.138 1199.48 611.234C1199.36 611.342 1199.21 611.33 1199.03 611.198C1198.96 611.138 1198.9 611.084 1198.85 611.036C1198.81 611 1198.77 610.934 1198.75 610.838C1198.73 610.718 1198.73 610.598 1198.73 610.478V609.146C1198.73 608.822 1198.73 608.492 1198.75 608.156C1198.75 607.916 1198.69 607.712 1198.58 607.544C1198.48 607.376 1198.3 607.274 1198.06 607.238C1197.97 607.214 1197.87 607.202 1197.77 607.202L1197.49 607.22L1196.96 607.256C1196.78 607.268 1196.61 607.286 1196.44 607.31C1195.93 607.37 1195.49 607.442 1195.15 607.526C1194.8 607.61 1194.46 607.688 1194.14 607.76C1194.07 607.784 1193.99 607.814 1193.9 607.85C1193.75 607.91 1193.64 607.982 1193.58 608.066C1193.52 608.15 1193.48 608.258 1193.45 608.39C1193.45 608.798 1193.45 609.2 1193.44 609.596C1193.41 609.992 1193.4 610.388 1193.4 610.784V611.072C1193.39 611.18 1193.36 611.276 1193.33 611.36C1193.29 611.444 1193.24 611.498 1193.17 611.522C1193.09 611.558 1193 611.534 1192.88 611.45C1192.7 611.318 1192.59 611.186 1192.55 611.054C1192.51 610.922 1192.47 610.754 1192.45 610.55C1192.42 610.454 1192.41 610.328 1192.41 610.172C1192.41 610.028 1192.4 609.902 1192.39 609.794C1192.37 609.494 1192.37 609.2 1192.41 608.912C1192.43 608.636 1192.46 608.348 1192.48 608.048V606.23C1192.49 606.062 1192.5 605.888 1192.5 605.708V604.79C1192.5 604.67 1192.49 604.544 1192.48 604.412C1192.47 604.172 1192.48 603.926 1192.5 603.674L1192.55 602.918C1192.58 602.69 1192.61 602.474 1192.64 602.27C1192.68 602.078 1192.76 601.88 1192.88 601.676C1193 601.496 1193.13 601.418 1193.27 601.442C1193.42 601.478 1193.51 601.598 1193.56 601.802C1193.62 601.994 1193.66 602.204 1193.67 602.432C1193.68 602.672 1193.69 602.894 1193.69 603.098C1193.69 603.446 1193.67 603.794 1193.63 604.142C1193.59 604.49 1193.55 604.844 1193.53 605.204C1193.54 605.372 1193.58 605.516 1193.65 605.636C1193.72 605.756 1193.87 605.828 1194.1 605.852C1194.39 605.852 1194.7 605.804 1195.04 605.708C1195.36 605.612 1195.67 605.552 1195.96 605.528L1197 605.456L1198.03 605.402C1198.21 605.366 1198.36 605.306 1198.48 605.222C1198.58 605.138 1198.67 605.012 1198.73 604.844L1198.76 604.574L1198.8 604.304L1198.84 603.296C1198.84 602.972 1198.85 602.648 1198.87 602.324V602.036L1198.89 601.712L1198.94 601.388C1198.97 601.292 1199 601.214 1199.05 601.154C1199.18 600.986 1199.33 600.914 1199.48 600.938C1199.63 600.974 1199.75 601.076 1199.84 601.244C1199.96 601.424 1200.04 601.61 1200.06 601.802C1200.07 601.994 1200.08 602.192 1200.08 602.396ZM1208.61 604.898C1208.62 605.414 1208.64 605.924 1208.68 606.428C1208.73 606.932 1208.75 607.448 1208.75 607.976C1208.75 608.192 1208.76 608.408 1208.79 608.624C1208.8 608.828 1208.82 609.026 1208.86 609.218C1208.88 609.566 1208.79 609.914 1208.59 610.262C1208.56 610.334 1208.51 610.37 1208.43 610.37C1208.35 610.358 1208.28 610.334 1208.19 610.298C1208.12 610.274 1208.05 610.226 1207.99 610.154C1207.93 610.094 1207.9 610.028 1207.89 609.956C1207.81 609.728 1207.78 609.488 1207.8 609.236C1207.8 608.996 1207.78 608.756 1207.76 608.516C1207.74 608.216 1207.71 607.898 1207.67 607.562L1207.56 606.518C1207.54 606.17 1207.51 605.822 1207.49 605.474C1207.47 605.138 1207.45 604.814 1207.44 604.502C1207.24 604.838 1207.02 605.174 1206.77 605.51C1206.51 605.834 1206.26 606.164 1206.03 606.5C1205.71 606.944 1205.39 607.388 1205.08 607.832C1204.78 608.276 1204.44 608.696 1204.07 609.092C1203.91 609.272 1203.73 609.512 1203.51 609.812C1203.28 610.112 1203.06 610.388 1202.85 610.64C1202.62 610.904 1202.4 611.102 1202.18 611.234C1201.98 611.366 1201.81 611.342 1201.69 611.162C1201.57 610.982 1201.49 610.814 1201.44 610.658C1201.39 610.49 1201.37 610.322 1201.37 610.154C1201.37 609.986 1201.38 609.824 1201.39 609.668C1201.41 609.5 1201.42 609.344 1201.42 609.2L1201.39 608.426C1201.38 607.97 1201.37 607.526 1201.37 607.094C1201.37 606.65 1201.38 606.212 1201.41 605.78C1201.43 605.624 1201.44 605.48 1201.42 605.348V604.916L1201.39 604.196L1201.35 603.476C1201.35 603.284 1201.36 603.098 1201.37 602.918L1201.41 602.36C1201.42 602.156 1201.44 601.982 1201.46 601.838C1201.5 601.682 1201.54 601.508 1201.59 601.316C1201.62 601.22 1201.69 601.124 1201.8 601.028C1201.92 600.932 1202.05 600.908 1202.18 600.956C1202.26 600.992 1202.31 601.04 1202.32 601.1C1202.35 601.172 1202.37 601.256 1202.38 601.352C1202.41 601.544 1202.44 601.748 1202.45 601.964C1202.47 602.18 1202.49 602.39 1202.49 602.594C1202.5 602.822 1202.5 603.038 1202.5 603.242V603.89C1202.53 604.514 1202.55 605.12 1202.58 605.708C1202.61 606.308 1202.6 606.926 1202.54 607.562C1202.54 607.742 1202.55 607.838 1202.56 607.85C1202.58 607.874 1202.61 607.922 1202.63 607.994C1202.76 607.934 1202.86 607.862 1202.92 607.778C1202.98 607.682 1203.06 607.58 1203.15 607.472C1203.28 607.316 1203.4 607.154 1203.49 606.986C1203.6 606.818 1203.72 606.656 1203.85 606.5C1204.2 606.068 1204.52 605.63 1204.81 605.186C1205.1 604.73 1205.39 604.268 1205.69 603.8C1205.82 603.596 1205.94 603.398 1206.05 603.206C1206.16 603.002 1206.26 602.804 1206.36 602.612C1206.45 602.42 1206.55 602.216 1206.64 602C1206.75 601.784 1206.87 601.556 1206.99 601.316C1207.06 601.184 1207.16 601.04 1207.29 600.884C1207.42 600.728 1207.55 600.674 1207.67 600.722C1207.74 600.758 1207.83 600.812 1207.92 600.884C1208.01 600.968 1208.08 601.058 1208.16 601.154C1208.24 601.238 1208.31 601.328 1208.37 601.424C1208.43 601.532 1208.47 601.616 1208.48 601.676C1208.5 601.808 1208.52 601.94 1208.52 602.072L1208.61 604.898ZM1210.8 602.522C1210.8 602.414 1210.84 602.33 1210.91 602.27C1210.97 602.222 1211.05 602.18 1211.15 602.144C1211.23 602.108 1211.32 602.078 1211.42 602.054C1211.51 602.042 1211.6 602.024 1211.67 602C1211.93 601.916 1212.17 601.85 1212.39 601.802C1212.6 601.754 1212.82 601.712 1213.04 601.676C1213.25 601.652 1213.47 601.628 1213.7 601.604C1213.92 601.592 1214.16 601.568 1214.42 601.532C1214.72 601.496 1215.02 601.46 1215.3 601.424C1215.59 601.4 1215.89 601.388 1216.2 601.388C1216.42 601.388 1216.66 601.4 1216.92 601.424C1217.18 601.46 1217.41 601.526 1217.63 601.622C1217.84 601.706 1217.95 601.862 1217.95 602.09C1217.95 602.258 1217.9 602.426 1217.79 602.594C1217.68 602.774 1217.55 602.9 1217.41 602.972C1217.24 603.068 1217.04 603.11 1216.8 603.098C1216.56 603.098 1216.34 603.104 1216.13 603.116C1215.84 603.14 1215.55 603.17 1215.25 603.206L1214.35 603.332C1214.07 603.368 1213.81 603.416 1213.56 603.476C1213.31 603.536 1213.05 603.584 1212.78 603.62C1212.65 603.644 1212.47 603.674 1212.24 603.71C1212.02 603.758 1211.87 603.842 1211.81 603.962C1211.79 604.022 1211.76 604.106 1211.74 604.214C1211.7 604.334 1211.68 604.424 1211.67 604.484C1211.66 604.58 1211.65 604.706 1211.65 604.862C1211.64 605.018 1211.63 605.144 1211.63 605.24C1211.63 605.372 1211.63 605.486 1211.61 605.582C1211.6 605.678 1211.64 605.78 1211.72 605.888L1212.35 605.816C1212.56 605.792 1212.77 605.75 1213 605.69C1213.44 605.57 1213.86 605.468 1214.26 605.384C1214.64 605.312 1215.06 605.246 1215.5 605.186L1216.13 605.114C1216.34 605.102 1216.55 605.108 1216.76 605.132C1216.93 605.144 1217.1 605.156 1217.28 605.168C1217.46 605.192 1217.63 605.246 1217.79 605.33C1217.96 605.414 1218.09 605.498 1218.2 605.582C1218.3 605.666 1218.3 605.792 1218.2 605.96C1218.12 606.116 1218.02 606.212 1217.91 606.248C1217.81 606.296 1217.67 606.35 1217.5 606.41C1216.91 606.578 1216.33 606.722 1215.75 606.842C1215.17 606.974 1214.57 607.106 1213.95 607.238C1213.71 607.298 1213.48 607.34 1213.25 607.364C1213.01 607.388 1212.79 607.43 1212.59 607.49C1212.47 607.514 1212.35 607.538 1212.24 607.562C1212.14 607.598 1212.02 607.64 1211.9 607.688C1211.81 607.712 1211.73 607.778 1211.69 607.886C1211.64 608.006 1211.61 608.132 1211.61 608.264C1211.6 608.408 1211.6 608.546 1211.61 608.678C1211.61 608.81 1211.62 608.906 1211.63 608.966C1211.63 609.062 1211.64 609.122 1211.67 609.146C1211.69 609.182 1211.75 609.194 1211.85 609.182L1212.33 609.146C1212.49 609.134 1212.65 609.128 1212.82 609.128C1213.34 609.128 1213.86 609.086 1214.39 609.002C1214.91 608.918 1215.43 608.84 1215.93 608.768C1216.16 608.732 1216.34 608.702 1216.46 608.678C1216.58 608.654 1216.69 608.636 1216.8 608.624C1216.89 608.612 1217.01 608.6 1217.14 608.588H1218.17C1218.32 608.588 1218.48 608.6 1218.65 608.624C1218.71 608.636 1218.78 608.642 1218.87 608.642C1218.94 608.654 1218.99 608.696 1219.01 608.768C1219.04 608.828 1219.04 608.894 1219.01 608.966C1218.99 609.05 1218.96 609.122 1218.94 609.182C1218.88 609.314 1218.82 609.416 1218.76 609.488C1218.7 609.572 1218.62 609.662 1218.53 609.758C1218.41 609.89 1218.26 609.98 1218.08 610.028C1217.88 610.088 1217.7 610.142 1217.54 610.19C1217.28 610.286 1217.09 610.358 1216.94 610.406C1216.79 610.454 1216.64 610.49 1216.49 610.514C1216.35 610.55 1216.2 610.574 1216.04 610.586C1215.87 610.61 1215.66 610.64 1215.39 610.676C1215.23 610.7 1215.07 610.724 1214.93 610.748C1214.77 610.772 1214.61 610.796 1214.44 610.82C1214.3 610.832 1214.16 610.832 1214.03 610.82C1213.88 610.82 1213.74 610.826 1213.59 610.838C1213.34 610.85 1213.09 610.886 1212.84 610.946C1212.57 611.018 1212.32 611.066 1212.08 611.09C1211.91 611.09 1211.75 611.096 1211.6 611.108C1211.44 611.12 1211.28 611.084 1211.13 611C1210.82 610.808 1210.64 610.538 1210.61 610.19C1210.56 609.77 1210.52 609.338 1210.5 608.894L1210.43 607.598C1210.4 607.022 1210.44 606.446 1210.53 605.87C1210.62 605.294 1210.66 604.718 1210.66 604.142C1210.66 603.866 1210.68 603.596 1210.73 603.332C1210.78 603.08 1210.8 602.81 1210.8 602.522ZM1232.18 602.396C1232.18 602.78 1232.16 603.164 1232.12 603.548C1232.09 603.932 1232.06 604.316 1232.05 604.7C1232.03 605.528 1232.01 606.35 1232 607.166C1231.98 607.982 1231.98 608.804 1231.98 609.632C1231.98 609.752 1231.97 609.926 1231.96 610.154C1231.94 610.382 1231.89 610.592 1231.83 610.784C1231.77 610.988 1231.69 611.138 1231.58 611.234C1231.46 611.342 1231.31 611.33 1231.13 611.198C1231.06 611.138 1231 611.084 1230.95 611.036C1230.9 611 1230.87 610.934 1230.84 610.838C1230.83 610.718 1230.83 610.598 1230.83 610.478V609.146C1230.83 608.822 1230.83 608.492 1230.84 608.156C1230.84 607.916 1230.79 607.712 1230.68 607.544C1230.57 607.376 1230.4 607.274 1230.16 607.238C1230.06 607.214 1229.97 607.202 1229.87 607.202L1229.58 607.22L1229.06 607.256C1228.88 607.268 1228.71 607.286 1228.54 607.31C1228.02 607.37 1227.59 607.442 1227.24 607.526C1226.9 607.61 1226.56 607.688 1226.24 607.76C1226.16 607.784 1226.09 607.814 1226 607.85C1225.85 607.91 1225.74 607.982 1225.68 608.066C1225.62 608.15 1225.58 608.258 1225.55 608.39C1225.55 608.798 1225.55 609.2 1225.53 609.596C1225.51 609.992 1225.5 610.388 1225.5 610.784V611.072C1225.49 611.18 1225.46 611.276 1225.43 611.36C1225.39 611.444 1225.34 611.498 1225.26 611.522C1225.19 611.558 1225.1 611.534 1224.98 611.45C1224.8 611.318 1224.69 611.186 1224.65 611.054C1224.6 610.922 1224.57 610.754 1224.54 610.55C1224.52 610.454 1224.51 610.328 1224.51 610.172C1224.51 610.028 1224.5 609.902 1224.49 609.794C1224.47 609.494 1224.47 609.2 1224.51 608.912C1224.53 608.636 1224.56 608.348 1224.58 608.048V606.23C1224.59 606.062 1224.6 605.888 1224.6 605.708V604.79C1224.6 604.67 1224.59 604.544 1224.58 604.412C1224.57 604.172 1224.57 603.926 1224.6 603.674L1224.65 602.918C1224.68 602.69 1224.71 602.474 1224.74 602.27C1224.78 602.078 1224.86 601.88 1224.98 601.676C1225.1 601.496 1225.23 601.418 1225.37 601.442C1225.52 601.478 1225.61 601.598 1225.66 601.802C1225.72 601.994 1225.76 602.204 1225.77 602.432C1225.78 602.672 1225.79 602.894 1225.79 603.098C1225.79 603.446 1225.77 603.794 1225.73 604.142C1225.68 604.49 1225.65 604.844 1225.62 605.204C1225.64 605.372 1225.68 605.516 1225.75 605.636C1225.82 605.756 1225.97 605.828 1226.2 605.852C1226.49 605.852 1226.8 605.804 1227.14 605.708C1227.46 605.612 1227.77 605.552 1228.05 605.528L1229.1 605.456L1230.12 605.402C1230.3 605.366 1230.45 605.306 1230.57 605.222C1230.68 605.138 1230.77 605.012 1230.83 604.844L1230.86 604.574L1230.9 604.304L1230.93 603.296C1230.93 602.972 1230.95 602.648 1230.97 602.324V602.036L1230.99 601.712L1231.04 601.388C1231.07 601.292 1231.1 601.214 1231.15 601.154C1231.28 600.986 1231.43 600.914 1231.58 600.938C1231.73 600.974 1231.85 601.076 1231.94 601.244C1232.06 601.424 1232.13 601.61 1232.16 601.802C1232.17 601.994 1232.18 602.192 1232.18 602.396ZM1233.97 602.522C1233.97 602.414 1234.01 602.33 1234.08 602.27C1234.14 602.222 1234.22 602.18 1234.31 602.144C1234.4 602.108 1234.49 602.078 1234.58 602.054C1234.68 602.042 1234.76 602.024 1234.84 602C1235.1 601.916 1235.34 601.85 1235.56 601.802C1235.77 601.754 1235.99 601.712 1236.2 601.676C1236.42 601.652 1236.64 601.628 1236.87 601.604C1237.09 601.592 1237.33 601.568 1237.59 601.532C1237.89 601.496 1238.18 601.46 1238.47 601.424C1238.76 601.4 1239.06 601.388 1239.37 601.388C1239.59 601.388 1239.83 601.4 1240.09 601.424C1240.34 601.46 1240.58 601.526 1240.79 601.622C1241.01 601.706 1241.12 601.862 1241.12 602.09C1241.12 602.258 1241.06 602.426 1240.96 602.594C1240.85 602.774 1240.72 602.9 1240.58 602.972C1240.41 603.068 1240.21 603.11 1239.97 603.098C1239.73 603.098 1239.5 603.104 1239.3 603.116C1239.01 603.14 1238.72 603.17 1238.42 603.206L1237.52 603.332C1237.24 603.368 1236.98 603.416 1236.73 603.476C1236.47 603.536 1236.22 603.584 1235.95 603.62C1235.82 603.644 1235.64 603.674 1235.41 603.71C1235.18 603.758 1235.04 603.842 1234.98 603.962C1234.96 604.022 1234.93 604.106 1234.91 604.214C1234.87 604.334 1234.85 604.424 1234.84 604.484C1234.82 604.58 1234.82 604.706 1234.82 604.862C1234.81 605.018 1234.8 605.144 1234.8 605.24C1234.8 605.372 1234.79 605.486 1234.78 605.582C1234.77 605.678 1234.81 605.78 1234.89 605.888L1235.52 605.816C1235.72 605.792 1235.94 605.75 1236.17 605.69C1236.61 605.57 1237.03 605.468 1237.43 605.384C1237.81 605.312 1238.23 605.246 1238.67 605.186L1239.3 605.114C1239.5 605.102 1239.71 605.108 1239.93 605.132C1240.1 605.144 1240.27 605.156 1240.45 605.168C1240.63 605.192 1240.8 605.246 1240.96 605.33C1241.12 605.414 1241.26 605.498 1241.37 605.582C1241.47 605.666 1241.47 605.792 1241.37 605.96C1241.29 606.116 1241.19 606.212 1241.08 606.248C1240.97 606.296 1240.84 606.35 1240.67 606.41C1240.08 606.578 1239.5 606.722 1238.92 606.842C1238.33 606.974 1237.73 607.106 1237.12 607.238C1236.88 607.298 1236.65 607.34 1236.42 607.364C1236.18 607.388 1235.96 607.43 1235.75 607.49C1235.63 607.514 1235.52 607.538 1235.41 607.562C1235.3 607.598 1235.19 607.64 1235.07 607.688C1234.97 607.712 1234.9 607.778 1234.85 607.886C1234.81 608.006 1234.78 608.132 1234.78 608.264C1234.77 608.408 1234.77 608.546 1234.78 608.678C1234.78 608.81 1234.79 608.906 1234.8 608.966C1234.8 609.062 1234.81 609.122 1234.84 609.146C1234.86 609.182 1234.92 609.194 1235.02 609.182L1235.5 609.146C1235.66 609.134 1235.82 609.128 1235.99 609.128C1236.5 609.128 1237.03 609.086 1237.55 609.002C1238.08 608.918 1238.6 608.84 1239.1 608.768C1239.33 608.732 1239.5 608.702 1239.62 608.678C1239.74 608.654 1239.86 608.636 1239.97 608.624C1240.06 608.612 1240.18 608.6 1240.31 608.588H1241.33C1241.49 608.588 1241.65 608.6 1241.82 608.624C1241.88 608.636 1241.95 608.642 1242.04 608.642C1242.11 608.654 1242.16 608.696 1242.18 608.768C1242.2 608.828 1242.2 608.894 1242.18 608.966C1242.16 609.05 1242.13 609.122 1242.11 609.182C1242.05 609.314 1241.99 609.416 1241.93 609.488C1241.87 609.572 1241.79 609.662 1241.69 609.758C1241.57 609.89 1241.42 609.98 1241.24 610.028C1241.05 610.088 1240.87 610.142 1240.7 610.19C1240.45 610.286 1240.25 610.358 1240.11 610.406C1239.95 610.454 1239.8 610.49 1239.66 610.514C1239.52 610.55 1239.37 610.574 1239.21 610.586C1239.04 610.61 1238.83 610.64 1238.56 610.676C1238.39 610.7 1238.24 610.724 1238.09 610.748C1237.94 610.772 1237.78 610.796 1237.61 610.82C1237.46 610.832 1237.33 610.832 1237.19 610.82C1237.05 610.82 1236.91 610.826 1236.76 610.838C1236.51 610.85 1236.26 610.886 1236.01 610.946C1235.74 611.018 1235.49 611.066 1235.25 611.09C1235.08 611.09 1234.92 611.096 1234.76 611.108C1234.61 611.12 1234.45 611.084 1234.3 611C1233.98 610.808 1233.81 610.538 1233.77 610.19C1233.73 609.77 1233.69 609.338 1233.67 608.894L1233.59 607.598C1233.57 607.022 1233.61 606.446 1233.7 605.87C1233.79 605.294 1233.83 604.718 1233.83 604.142C1233.83 603.866 1233.85 603.596 1233.9 603.332C1233.95 603.08 1233.97 602.81 1233.97 602.522ZM1255.56 602.576C1255.67 602.768 1255.75 602.978 1255.79 603.206C1255.84 603.434 1255.84 603.662 1255.78 603.89C1255.73 604.094 1255.67 604.28 1255.61 604.448C1255.55 604.616 1255.45 604.754 1255.29 604.862L1255.07 605.024C1254.99 605.084 1254.91 605.12 1254.84 605.132C1254.77 605.156 1254.7 605.144 1254.64 605.096C1254.58 605.06 1254.53 604.976 1254.5 604.844C1254.44 604.664 1254.42 604.484 1254.44 604.304C1254.46 604.136 1254.41 603.968 1254.3 603.8C1254.12 603.524 1253.88 603.308 1253.58 603.152C1253.34 603.044 1253.12 602.99 1252.91 602.99C1252.66 602.99 1252.42 603.038 1252.19 603.134C1251.95 603.242 1251.73 603.362 1251.51 603.494C1251.07 603.794 1250.66 604.136 1250.3 604.52C1249.93 604.904 1249.59 605.306 1249.28 605.726C1249.04 606.062 1248.83 606.422 1248.67 606.806C1248.5 607.19 1248.46 607.592 1248.54 608.012C1248.58 608.204 1248.65 608.372 1248.77 608.516C1248.89 608.672 1249.04 608.804 1249.21 608.912C1249.37 609.02 1249.55 609.11 1249.75 609.182C1249.94 609.254 1250.12 609.308 1250.3 609.344C1250.72 609.44 1251.12 609.488 1251.49 609.488C1251.96 609.488 1252.43 609.416 1252.9 609.272C1253.35 609.128 1253.81 608.948 1254.28 608.732C1254.74 608.516 1255.18 608.288 1255.6 608.048C1255.73 607.976 1255.9 607.88 1256.1 607.76C1256.29 607.64 1256.47 607.604 1256.64 607.652C1256.71 607.664 1256.77 607.712 1256.82 607.796C1256.86 607.88 1256.88 607.976 1256.89 608.084C1256.9 608.192 1256.9 608.3 1256.89 608.408C1256.88 608.516 1256.86 608.6 1256.84 608.66C1256.79 608.828 1256.72 608.972 1256.62 609.092C1256.51 609.224 1256.39 609.338 1256.26 609.434C1256.13 609.542 1255.99 609.638 1255.85 609.722C1255.69 609.818 1255.55 609.908 1255.42 609.992C1255 610.244 1254.57 610.466 1254.14 610.658C1253.71 610.862 1253.24 611.018 1252.75 611.126C1252.48 611.186 1252.21 611.252 1251.96 611.324C1251.7 611.396 1251.43 611.42 1251.15 611.396C1250.93 611.372 1250.71 611.342 1250.48 611.306C1250.26 611.282 1250.03 611.246 1249.82 611.198C1249.41 611.102 1249.04 610.946 1248.7 610.73C1248.37 610.526 1248.06 610.274 1247.78 609.974C1247.58 609.746 1247.45 609.512 1247.39 609.272C1247.33 609.044 1247.3 608.804 1247.3 608.552C1247.3 608.312 1247.32 608.072 1247.35 607.832C1247.38 607.592 1247.44 607.34 1247.53 607.076C1247.63 606.824 1247.72 606.584 1247.8 606.356C1247.9 606.08 1248.01 605.816 1248.14 605.564C1248.26 605.312 1248.39 605.066 1248.52 604.826C1248.82 604.298 1249.16 603.812 1249.55 603.368C1249.92 602.936 1250.33 602.534 1250.79 602.162C1251.14 601.886 1251.5 601.634 1251.87 601.406C1252.24 601.19 1252.65 601.052 1253.09 600.992C1253.44 600.932 1253.79 600.968 1254.14 601.1C1254.49 601.244 1254.78 601.442 1255.02 601.694C1255.15 601.838 1255.25 601.976 1255.33 602.108C1255.39 602.24 1255.46 602.396 1255.56 602.576ZM1262.08 605.132C1262.01 604.976 1261.94 604.814 1261.88 604.646C1261.87 604.574 1261.84 604.478 1261.79 604.358L1261.63 604.034C1261.58 603.926 1261.54 603.824 1261.52 603.728C1261.48 603.644 1261.47 603.59 1261.48 603.566C1261.3 603.926 1261.13 604.334 1260.96 604.79C1260.78 605.246 1260.63 605.624 1260.49 605.924C1260.31 606.344 1260.15 606.758 1259.99 607.166C1259.83 607.574 1259.67 607.988 1259.5 608.408C1259.44 608.588 1259.38 608.786 1259.32 609.002C1259.25 609.23 1259.17 609.452 1259.09 609.668C1259.01 609.896 1258.91 610.106 1258.8 610.298C1258.69 610.49 1258.56 610.652 1258.41 610.784C1258.32 610.856 1258.24 610.916 1258.15 610.964C1258.07 611.024 1257.98 611.054 1257.88 611.054C1257.68 611.054 1257.58 610.904 1257.58 610.604C1257.58 610.4 1257.64 610.178 1257.76 609.938C1257.87 609.71 1257.96 609.494 1258.03 609.29L1258.73 607.454C1258.96 606.854 1259.2 606.248 1259.45 605.636C1259.69 605.06 1259.92 604.484 1260.15 603.908L1260.82 602.18C1260.89 601.976 1260.95 601.766 1261 601.55C1261.03 601.346 1261.12 601.16 1261.27 600.992C1261.44 600.824 1261.61 600.74 1261.79 600.74C1261.98 600.74 1262.16 600.854 1262.31 601.082C1262.53 601.478 1262.7 601.904 1262.82 602.36C1262.94 602.816 1263.1 603.248 1263.3 603.656L1264.02 605.132C1264.26 605.624 1264.47 606.122 1264.65 606.626C1264.78 606.962 1264.91 607.304 1265.03 607.652C1265.15 608.012 1265.21 608.372 1265.21 608.732C1265.21 608.948 1265.19 609.146 1265.14 609.326C1265.08 609.518 1265.01 609.704 1264.92 609.884C1264.84 610.076 1264.72 610.238 1264.56 610.37C1264.26 610.634 1264.03 610.562 1263.86 610.154C1263.76 609.95 1263.69 609.722 1263.64 609.47C1263.6 609.23 1263.53 608.99 1263.45 608.75C1263.35 608.474 1263.25 608.192 1263.16 607.904L1262.83 607.04C1262.75 606.8 1262.66 606.56 1262.56 606.32L1262.26 605.6L1262.08 605.132ZM1266.54 602.522C1266.54 602.414 1266.58 602.33 1266.65 602.27C1266.71 602.222 1266.79 602.18 1266.89 602.144C1266.97 602.108 1267.06 602.078 1267.16 602.054C1267.25 602.042 1267.34 602.024 1267.41 602C1267.67 601.916 1267.91 601.85 1268.13 601.802C1268.34 601.754 1268.56 601.712 1268.78 601.676C1268.99 601.652 1269.21 601.628 1269.44 601.604C1269.66 601.592 1269.9 601.568 1270.16 601.532C1270.46 601.496 1270.76 601.46 1271.04 601.424C1271.33 601.4 1271.63 601.388 1271.94 601.388C1272.16 601.388 1272.4 601.4 1272.66 601.424C1272.92 601.46 1273.15 601.526 1273.37 601.622C1273.58 601.706 1273.69 601.862 1273.69 602.09C1273.69 602.258 1273.64 602.426 1273.53 602.594C1273.42 602.774 1273.29 602.9 1273.15 602.972C1272.98 603.068 1272.78 603.11 1272.54 603.098C1272.3 603.098 1272.08 603.104 1271.87 603.116C1271.58 603.14 1271.29 603.17 1270.99 603.206L1270.09 603.332C1269.81 603.368 1269.55 603.416 1269.3 603.476C1269.05 603.536 1268.79 603.584 1268.52 603.62C1268.39 603.644 1268.21 603.674 1267.98 603.71C1267.76 603.758 1267.61 603.842 1267.55 603.962C1267.53 604.022 1267.5 604.106 1267.48 604.214C1267.44 604.334 1267.42 604.424 1267.41 604.484C1267.4 604.58 1267.39 604.706 1267.39 604.862C1267.38 605.018 1267.37 605.144 1267.37 605.24C1267.37 605.372 1267.37 605.486 1267.35 605.582C1267.34 605.678 1267.38 605.78 1267.46 605.888L1268.09 605.816C1268.3 605.792 1268.51 605.75 1268.74 605.69C1269.18 605.57 1269.6 605.468 1270 605.384C1270.38 605.312 1270.8 605.246 1271.24 605.186L1271.87 605.114C1272.08 605.102 1272.29 605.108 1272.5 605.132C1272.67 605.144 1272.84 605.156 1273.02 605.168C1273.2 605.192 1273.37 605.246 1273.53 605.33C1273.7 605.414 1273.83 605.498 1273.94 605.582C1274.04 605.666 1274.04 605.792 1273.94 605.96C1273.86 606.116 1273.76 606.212 1273.65 606.248C1273.55 606.296 1273.41 606.35 1273.24 606.41C1272.65 606.578 1272.07 606.722 1271.49 606.842C1270.91 606.974 1270.31 607.106 1269.69 607.238C1269.45 607.298 1269.22 607.34 1268.99 607.364C1268.75 607.388 1268.53 607.43 1268.33 607.49C1268.21 607.514 1268.09 607.538 1267.98 607.562C1267.88 607.598 1267.76 607.64 1267.64 607.688C1267.55 607.712 1267.47 607.778 1267.43 607.886C1267.38 608.006 1267.35 608.132 1267.35 608.264C1267.34 608.408 1267.34 608.546 1267.35 608.678C1267.35 608.81 1267.36 608.906 1267.37 608.966C1267.37 609.062 1267.38 609.122 1267.41 609.146C1267.43 609.182 1267.49 609.194 1267.59 609.182L1268.07 609.146C1268.23 609.134 1268.39 609.128 1268.56 609.128C1269.08 609.128 1269.6 609.086 1270.13 609.002C1270.65 608.918 1271.17 608.84 1271.67 608.768C1271.9 608.732 1272.08 608.702 1272.2 608.678C1272.32 608.654 1272.43 608.636 1272.54 608.624C1272.63 608.612 1272.75 608.6 1272.88 608.588H1273.91C1274.06 608.588 1274.22 608.6 1274.39 608.624C1274.45 608.636 1274.52 608.642 1274.61 608.642C1274.68 608.654 1274.73 608.696 1274.75 608.768C1274.78 608.828 1274.78 608.894 1274.75 608.966C1274.73 609.05 1274.7 609.122 1274.68 609.182C1274.62 609.314 1274.56 609.416 1274.5 609.488C1274.44 609.572 1274.36 609.662 1274.27 609.758C1274.15 609.89 1274 609.98 1273.82 610.028C1273.62 610.088 1273.44 610.142 1273.28 610.19C1273.02 610.286 1272.83 610.358 1272.68 610.406C1272.53 610.454 1272.38 610.49 1272.23 610.514C1272.09 610.55 1271.94 610.574 1271.78 610.586C1271.61 610.61 1271.4 610.64 1271.13 610.676C1270.97 610.7 1270.81 610.724 1270.67 610.748C1270.51 610.772 1270.35 610.796 1270.18 610.82C1270.04 610.832 1269.9 610.832 1269.77 610.82C1269.62 610.82 1269.48 610.826 1269.33 610.838C1269.08 610.85 1268.83 610.886 1268.58 610.946C1268.31 611.018 1268.06 611.066 1267.82 611.09C1267.65 611.09 1267.49 611.096 1267.34 611.108C1267.18 611.12 1267.02 611.084 1266.87 611C1266.56 610.808 1266.38 610.538 1266.35 610.19C1266.3 609.77 1266.26 609.338 1266.24 608.894L1266.17 607.598C1266.14 607.022 1266.18 606.446 1266.27 605.87C1266.36 605.294 1266.4 604.718 1266.4 604.142C1266.4 603.866 1266.42 603.596 1266.47 603.332C1266.52 603.08 1266.54 602.81 1266.54 602.522ZM1282.55 608.57C1282.51 608.414 1282.46 608.258 1282.4 608.102C1282.31 607.85 1282.21 607.586 1282.12 607.31L1281.79 606.5C1281.72 606.284 1281.64 606.062 1281.54 605.834L1281.23 605.168L1281.05 604.736C1280.98 604.58 1280.92 604.424 1280.86 604.268C1280.86 604.208 1280.83 604.118 1280.78 603.998L1280.62 603.71C1280.57 603.602 1280.54 603.506 1280.51 603.422C1280.48 603.338 1280.47 603.284 1280.48 603.26C1280.3 603.596 1280.13 603.98 1279.97 604.412C1279.79 604.832 1279.64 605.186 1279.51 605.474C1279.33 605.858 1279.16 606.242 1279.02 606.626C1278.86 607.01 1278.7 607.394 1278.53 607.778C1278.47 607.946 1278.41 608.132 1278.35 608.336C1278.28 608.552 1278.21 608.762 1278.14 608.966C1278.09 609.062 1278.05 609.158 1278.01 609.254L1278.12 609.236C1278.55 609.2 1279 609.158 1279.47 609.11C1280.37 608.942 1281.4 608.762 1282.55 608.57ZM1276.77 609.308C1276.79 609.272 1276.81 609.236 1276.82 609.2C1276.93 608.996 1277.02 608.798 1277.09 608.606L1277.78 606.896C1278.01 606.332 1278.24 605.768 1278.48 605.204C1278.72 604.664 1278.95 604.124 1279.16 603.584L1279.83 601.982C1279.9 601.79 1279.96 601.592 1279.99 601.388C1280.03 601.196 1280.12 601.022 1280.26 600.866C1280.43 600.71 1280.6 600.632 1280.78 600.632C1280.96 600.632 1281.13 600.74 1281.29 600.956C1281.5 601.316 1281.67 601.712 1281.77 602.144C1281.89 602.564 1282.06 602.966 1282.26 603.35L1282.96 604.736C1283.2 605.192 1283.41 605.654 1283.57 606.122C1283.71 606.434 1283.83 606.752 1283.95 607.076C1284.07 607.412 1284.13 607.748 1284.13 608.084C1284.13 608.168 1284.13 608.252 1284.11 608.336C1284.2 608.324 1284.28 608.312 1284.37 608.3C1284.41 608.264 1284.47 608.24 1284.53 608.228C1284.64 608.204 1284.74 608.198 1284.83 608.21L1285.07 608.174L1285.27 608.192C1285.34 608.204 1285.4 608.222 1285.45 608.246C1285.54 608.366 1285.59 608.468 1285.59 608.552C1285.59 608.612 1285.58 608.678 1285.55 608.75C1285.61 608.87 1285.65 608.966 1285.66 609.038C1285.69 609.434 1285.66 609.824 1285.57 610.208L1285.34 611.396C1285.33 611.492 1285.28 611.594 1285.21 611.702C1285.12 611.81 1285 611.888 1284.87 611.936C1284.76 611.96 1284.64 611.966 1284.51 611.954C1284.38 611.942 1284.28 611.912 1284.22 611.864C1284.05 611.732 1283.99 611.558 1284.02 611.342C1284.07 611.138 1284.1 610.958 1284.11 610.802C1284.14 610.562 1284.16 610.31 1284.19 610.046V609.704C1284.01 609.74 1283.77 609.788 1283.48 609.848C1282.02 610.088 1280.77 610.328 1279.72 610.568C1279.33 610.628 1278.95 610.682 1278.61 610.73C1278.26 610.778 1277.99 610.82 1277.81 610.856L1277.63 610.874L1277.47 610.892C1277.35 610.916 1277.26 610.928 1277.2 610.928C1277.02 610.94 1276.88 610.982 1276.77 611.054C1276.71 611.078 1276.66 611.126 1276.63 611.198L1276.59 611.432C1276.59 611.552 1276.62 611.9 1276.68 612.476C1276.75 613.064 1276.64 613.34 1276.36 613.304C1276.04 613.268 1275.8 613.178 1275.62 613.034C1275.49 612.962 1275.4 612.842 1275.35 612.674C1275.3 612.506 1275.28 612.32 1275.28 612.116C1275.28 611.828 1275.29 611.642 1275.31 611.558C1275.28 611.33 1275.26 611.108 1275.26 610.892C1275.25 610.652 1275.22 610.424 1275.19 610.208C1275.16 610.088 1275.18 609.968 1275.24 609.848C1275.3 609.716 1275.37 609.59 1275.44 609.47C1275.51 609.362 1275.6 609.296 1275.71 609.272C1275.82 609.236 1275.92 609.23 1276.03 609.254C1276.22 609.242 1276.39 609.254 1276.52 609.29C1276.59 609.302 1276.67 609.308 1276.77 609.308ZM1293.48 602.504C1293.32 602.732 1293.18 602.96 1293.06 603.188L1292.69 603.872C1292.58 604.076 1292.44 604.304 1292.27 604.556C1292.1 604.808 1291.94 605.096 1291.79 605.42C1291.75 605.516 1291.68 605.654 1291.59 605.834C1291.48 606.026 1291.4 606.17 1291.35 606.266L1291.19 606.626C1291.13 606.758 1291.05 606.902 1290.96 607.058C1290.89 607.19 1290.83 607.298 1290.8 607.382C1290.75 607.466 1290.71 607.538 1290.67 607.598L1290.54 607.814C1290.5 607.898 1290.44 608.006 1290.36 608.138C1290.16 608.534 1289.96 608.954 1289.75 609.398C1289.54 609.842 1289.34 610.316 1289.18 610.82C1289.14 610.904 1289.11 610.988 1289.09 611.072C1289.06 611.168 1289.03 611.252 1289 611.324C1288.95 611.408 1288.88 611.474 1288.8 611.522C1288.7 611.582 1288.58 611.612 1288.42 611.612C1288.12 611.624 1287.97 611.468 1287.97 611.144C1287.97 610.94 1288.01 610.712 1288.1 610.46C1288.18 610.22 1288.28 609.998 1288.38 609.794L1288.89 608.75L1289.37 607.724C1289.45 607.556 1289.51 607.4 1289.57 607.256C1289.62 607.124 1289.69 606.974 1289.79 606.806C1289.74 606.758 1289.68 606.698 1289.61 606.626L1289.37 606.428C1289.3 606.368 1289.24 606.308 1289.18 606.248C1289.1 606.2 1289.06 606.17 1289.05 606.158C1288.85 606.014 1288.68 605.888 1288.55 605.78C1288.4 605.672 1288.27 605.564 1288.15 605.456L1287.77 605.15C1287.64 605.042 1287.49 604.904 1287.32 604.736C1287.06 604.496 1286.84 604.238 1286.67 603.962C1286.49 603.686 1286.4 603.386 1286.4 603.062C1286.4 602.822 1286.47 602.558 1286.6 602.27C1286.75 601.97 1286.91 601.82 1287.11 601.82C1287.23 601.82 1287.37 601.892 1287.54 602.036C1287.73 602.204 1287.9 602.384 1288.06 602.576C1288.2 602.768 1288.36 602.954 1288.53 603.134C1288.74 603.374 1288.95 603.578 1289.16 603.746C1289.35 603.926 1289.54 604.082 1289.72 604.214L1290.26 604.628C1290.44 604.76 1290.62 604.904 1290.8 605.06C1290.81 605.048 1290.83 605.012 1290.87 604.952C1290.9 604.892 1290.94 604.82 1290.98 604.736L1291.08 604.52C1291.12 604.46 1291.14 604.424 1291.16 604.412C1291.26 604.208 1291.37 604.028 1291.46 603.872L1291.75 603.404C1291.83 603.26 1291.92 603.11 1292 602.954C1292.07 602.798 1292.15 602.618 1292.24 602.414L1292.51 601.802C1292.59 601.598 1292.69 601.4 1292.81 601.208C1292.98 600.98 1293.18 600.866 1293.42 600.866C1293.66 600.866 1293.8 600.992 1293.84 601.244C1293.85 601.424 1293.83 601.628 1293.77 601.856C1293.69 602.096 1293.6 602.312 1293.48 602.504ZM1295.16 602.522C1295.16 602.414 1295.2 602.33 1295.27 602.27C1295.33 602.222 1295.41 602.18 1295.5 602.144C1295.59 602.108 1295.68 602.078 1295.77 602.054C1295.87 602.042 1295.95 602.024 1296.03 602C1296.29 601.916 1296.53 601.85 1296.75 601.802C1296.96 601.754 1297.18 601.712 1297.39 601.676C1297.61 601.652 1297.83 601.628 1298.06 601.604C1298.28 601.592 1298.52 601.568 1298.78 601.532C1299.08 601.496 1299.37 601.46 1299.66 601.424C1299.95 601.4 1300.25 601.388 1300.56 601.388C1300.78 601.388 1301.02 601.4 1301.28 601.424C1301.53 601.46 1301.77 601.526 1301.98 601.622C1302.2 601.706 1302.31 601.862 1302.31 602.09C1302.31 602.258 1302.25 602.426 1302.15 602.594C1302.04 602.774 1301.91 602.9 1301.77 602.972C1301.6 603.068 1301.4 603.11 1301.16 603.098C1300.92 603.098 1300.69 603.104 1300.49 603.116C1300.2 603.14 1299.91 603.17 1299.61 603.206L1298.71 603.332C1298.43 603.368 1298.17 603.416 1297.92 603.476C1297.66 603.536 1297.41 603.584 1297.14 603.62C1297.01 603.644 1296.83 603.674 1296.6 603.71C1296.37 603.758 1296.23 603.842 1296.17 603.962C1296.15 604.022 1296.12 604.106 1296.1 604.214C1296.06 604.334 1296.04 604.424 1296.03 604.484C1296.01 604.58 1296.01 604.706 1296.01 604.862C1296 605.018 1295.99 605.144 1295.99 605.24C1295.99 605.372 1295.98 605.486 1295.97 605.582C1295.96 605.678 1296 605.78 1296.08 605.888L1296.71 605.816C1296.91 605.792 1297.13 605.75 1297.36 605.69C1297.8 605.57 1298.22 605.468 1298.62 605.384C1299 605.312 1299.42 605.246 1299.86 605.186L1300.49 605.114C1300.69 605.102 1300.9 605.108 1301.12 605.132C1301.29 605.144 1301.46 605.156 1301.64 605.168C1301.82 605.192 1301.99 605.246 1302.15 605.33C1302.31 605.414 1302.45 605.498 1302.56 605.582C1302.66 605.666 1302.66 605.792 1302.56 605.96C1302.48 606.116 1302.38 606.212 1302.27 606.248C1302.16 606.296 1302.03 606.35 1301.86 606.41C1301.27 606.578 1300.69 606.722 1300.11 606.842C1299.52 606.974 1298.92 607.106 1298.31 607.238C1298.07 607.298 1297.84 607.34 1297.61 607.364C1297.37 607.388 1297.15 607.43 1296.94 607.49C1296.82 607.514 1296.71 607.538 1296.6 607.562C1296.49 607.598 1296.38 607.64 1296.26 607.688C1296.16 607.712 1296.09 607.778 1296.04 607.886C1296 608.006 1295.97 608.132 1295.97 608.264C1295.96 608.408 1295.96 608.546 1295.97 608.678C1295.97 608.81 1295.98 608.906 1295.99 608.966C1295.99 609.062 1296 609.122 1296.03 609.146C1296.05 609.182 1296.11 609.194 1296.21 609.182L1296.69 609.146C1296.85 609.134 1297.01 609.128 1297.18 609.128C1297.69 609.128 1298.22 609.086 1298.74 609.002C1299.27 608.918 1299.79 608.84 1300.29 608.768C1300.52 608.732 1300.69 608.702 1300.81 608.678C1300.93 608.654 1301.05 608.636 1301.16 608.624C1301.25 608.612 1301.37 608.6 1301.5 608.588H1302.52C1302.68 608.588 1302.84 608.6 1303.01 608.624C1303.07 608.636 1303.14 608.642 1303.23 608.642C1303.3 608.654 1303.35 608.696 1303.37 608.768C1303.39 608.828 1303.39 608.894 1303.37 608.966C1303.35 609.05 1303.32 609.122 1303.3 609.182C1303.24 609.314 1303.18 609.416 1303.12 609.488C1303.06 609.572 1302.98 609.662 1302.88 609.758C1302.76 609.89 1302.61 609.98 1302.43 610.028C1302.24 610.088 1302.06 610.142 1301.89 610.19C1301.64 610.286 1301.44 610.358 1301.3 610.406C1301.14 610.454 1300.99 610.49 1300.85 610.514C1300.71 610.55 1300.56 610.574 1300.4 610.586C1300.23 610.61 1300.02 610.64 1299.75 610.676C1299.58 610.7 1299.43 610.724 1299.28 610.748C1299.13 610.772 1298.97 610.796 1298.8 610.82C1298.65 610.832 1298.52 610.832 1298.38 610.82C1298.24 610.82 1298.1 610.826 1297.95 610.838C1297.7 610.85 1297.45 610.886 1297.2 610.946C1296.93 611.018 1296.68 611.066 1296.44 611.09C1296.27 611.09 1296.11 611.096 1295.95 611.108C1295.8 611.12 1295.64 611.084 1295.49 611C1295.17 610.808 1295 610.538 1294.96 610.19C1294.92 609.77 1294.88 609.338 1294.86 608.894L1294.78 607.598C1294.76 607.022 1294.8 606.446 1294.89 605.87C1294.98 605.294 1295.02 604.718 1295.02 604.142C1295.02 603.866 1295.04 603.596 1295.09 603.332C1295.14 603.08 1295.16 602.81 1295.16 602.522ZM1308.14 604.34C1308.13 604.592 1308.12 604.844 1308.12 605.096V605.888C1308.12 606.548 1308.14 607.214 1308.16 607.886C1308.18 608.57 1308.22 609.218 1308.27 609.83C1308.28 609.926 1308.3 610.028 1308.32 610.136C1308.35 610.244 1308.36 610.358 1308.36 610.478C1308.36 610.694 1308.29 610.868 1308.16 611C1307.98 611.168 1307.82 611.228 1307.69 611.18C1307.56 611.132 1307.45 611.03 1307.35 610.874C1307.25 610.73 1307.18 610.562 1307.13 610.37C1307.09 610.19 1307.06 610.034 1307.04 609.902C1307.03 609.71 1307.03 609.5 1307.03 609.272V607.904C1307.03 607.688 1307.02 607.484 1307.01 607.292C1306.98 606.872 1306.97 606.446 1306.95 606.014C1306.94 605.594 1306.94 605.174 1306.95 604.754L1306.99 604.25V603.746C1306.99 603.614 1306.97 603.542 1306.94 603.53C1306.89 603.53 1306.8 603.536 1306.68 603.548C1306.48 603.572 1306.27 603.596 1306.05 603.62C1305.84 603.656 1305.63 603.68 1305.42 603.692C1305.22 603.704 1305 603.728 1304.76 603.764C1304.51 603.8 1304.28 603.782 1304.09 603.71C1303.92 603.65 1303.82 603.572 1303.79 603.476C1303.75 603.38 1303.74 603.242 1303.77 603.062C1303.78 602.966 1303.83 602.852 1303.93 602.72C1304.01 602.6 1304.12 602.48 1304.25 602.36C1304.37 602.252 1304.5 602.156 1304.63 602.072C1304.76 601.988 1304.88 601.94 1304.97 601.928C1305.15 601.916 1305.3 601.904 1305.42 601.892L1305.78 601.838L1306.13 601.784L1306.58 601.694C1306.95 601.61 1307.33 601.532 1307.71 601.46C1308.08 601.4 1308.46 601.346 1308.84 601.298H1310.77C1311.01 601.298 1311.24 601.316 1311.47 601.352C1311.69 601.388 1311.9 601.472 1312.1 601.604C1312.22 601.688 1312.28 601.814 1312.28 601.982C1312.28 602.15 1312.27 602.318 1312.25 602.486C1312.19 602.69 1312.1 602.798 1311.99 602.81C1311.87 602.834 1311.73 602.858 1311.56 602.882C1311.45 602.894 1311.32 602.9 1311.17 602.9C1311 602.912 1310.83 602.924 1310.66 602.936C1310.48 602.948 1310.31 602.96 1310.16 602.972C1310 602.996 1309.87 603.02 1309.76 603.044C1309.63 603.068 1309.51 603.086 1309.4 603.098C1309.28 603.11 1309.16 603.128 1309.04 603.152C1308.95 603.176 1308.82 603.188 1308.66 603.188C1308.51 603.2 1308.39 603.23 1308.3 603.278C1308.26 603.314 1308.22 603.374 1308.2 603.458C1308.17 603.554 1308.16 603.656 1308.16 603.764L1308.14 604.106V604.34ZM1315.37 609.128C1315.46 609.188 1315.56 609.266 1315.65 609.362C1315.74 609.47 1315.74 609.584 1315.65 609.704C1315.52 609.908 1315.4 610.076 1315.28 610.208C1315.16 610.34 1315.04 610.514 1314.93 610.73C1314.91 610.802 1314.87 610.862 1314.83 610.91L1314.65 611.054C1314.51 611.126 1314.39 611.162 1314.27 611.162C1314.14 611.162 1314.02 611.096 1313.93 610.964C1313.89 610.928 1313.85 610.874 1313.82 610.802C1313.77 610.742 1313.73 610.688 1313.71 610.64C1313.69 610.484 1313.7 610.31 1313.75 610.118C1313.79 609.926 1313.87 609.758 1313.96 609.614C1314.03 609.494 1314.14 609.368 1314.27 609.236C1314.39 609.116 1314.52 609.044 1314.66 609.02C1314.8 608.996 1314.92 608.99 1315.02 609.002C1315.13 609.014 1315.25 609.056 1315.37 609.128ZM1319.83 609.128C1319.93 609.188 1320.02 609.266 1320.12 609.362C1320.2 609.47 1320.2 609.584 1320.12 609.704C1319.99 609.908 1319.86 610.076 1319.74 610.208C1319.62 610.34 1319.51 610.514 1319.4 610.73C1319.37 610.802 1319.34 610.862 1319.29 610.91L1319.11 611.054C1318.98 611.126 1318.85 611.162 1318.73 611.162C1318.6 611.162 1318.49 611.096 1318.39 610.964C1318.35 610.928 1318.32 610.874 1318.28 610.802C1318.23 610.742 1318.2 610.688 1318.17 610.64C1318.15 610.484 1318.16 610.31 1318.21 610.118C1318.26 609.926 1318.33 609.758 1318.43 609.614C1318.5 609.494 1318.6 609.368 1318.73 609.236C1318.85 609.116 1318.98 609.044 1319.13 609.02C1319.26 608.996 1319.38 608.99 1319.49 609.002C1319.6 609.014 1319.71 609.056 1319.83 609.128ZM1324.3 609.128C1324.39 609.188 1324.49 609.266 1324.58 609.362C1324.67 609.47 1324.67 609.584 1324.58 609.704C1324.45 609.908 1324.33 610.076 1324.21 610.208C1324.09 610.34 1323.97 610.514 1323.86 610.73C1323.84 610.802 1323.8 610.862 1323.76 610.91L1323.58 611.054C1323.44 611.126 1323.32 611.162 1323.2 611.162C1323.07 611.162 1322.95 611.096 1322.86 610.964C1322.82 610.928 1322.78 610.874 1322.75 610.802C1322.7 610.742 1322.66 610.688 1322.64 610.64C1322.62 610.484 1322.63 610.31 1322.68 610.118C1322.72 609.926 1322.8 609.758 1322.89 609.614C1322.96 609.494 1323.07 609.368 1323.2 609.236C1323.32 609.116 1323.45 609.044 1323.59 609.02C1323.73 608.996 1323.85 608.99 1323.95 609.002C1324.06 609.014 1324.18 609.056 1324.3 609.128Z" fill="black"/>
</svg>
