<svg width="1334" height="621" viewBox="0 0 1334 621" fill="none" xmlns="http://www.w3.org/2000/svg">
<g clip-path="url(#clip0_46_328)">
<path fill-rule="evenodd" clip-rule="evenodd" d="M1305.89 369.386C1305.83 368.548 1305.77 367.684 1305.77 366.793C1305.77 351.401 1273.87 349.079 1236.05 349.079C1178.13 348.181 1158.4 354.956 1160.1 368.585C1161.19 377.294 1163.46 379.292 1176.17 382.432C1197.58 387.719 1240.87 388.07 1270.7 385.255C1316.77 400.699 1340.05 403.935 1351.85 405.574C1355.61 406.097 1358.21 406.458 1360 407C1328.89 397.589 1307.55 387.482 1296.53 380.923C1306.48 377.767 1306.21 373.968 1305.89 369.386Z" fill="white"/>
<path d="M1305.89 369.386L1304.89 369.456L1304.89 369.456L1305.89 369.386ZM1236.05 349.079V350.079C1236.05 350.079 1236.04 350.079 1236.04 350.079L1236.05 349.079ZM1160.1 368.585L1159.11 368.709L1159.11 368.709L1160.1 368.585ZM1176.17 382.432L1175.93 383.403L1175.93 383.403L1176.17 382.432ZM1270.7 385.255L1270.61 384.26C1270.75 384.247 1270.89 384.263 1271.02 384.307L1270.7 385.255ZM1351.85 405.574L1351.99 404.584L1351.99 404.584L1351.85 405.574ZM1360.29 406.043C1360.82 406.203 1361.12 406.761 1360.96 407.29C1360.8 407.818 1360.24 408.117 1359.71 407.957L1360.29 406.043ZM1296.53 380.923L1296.02 381.782C1295.68 381.581 1295.5 381.199 1295.54 380.808C1295.59 380.417 1295.86 380.089 1296.23 379.97L1296.53 380.923ZM1306.77 366.793C1306.77 367.644 1306.83 368.474 1306.89 369.317L1304.89 369.456C1304.84 368.623 1304.77 367.725 1304.77 366.793H1306.77ZM1236.05 348.079C1254.96 348.079 1272.48 348.657 1285.29 351.183C1291.69 352.444 1297.01 354.209 1300.75 356.699C1304.53 359.213 1306.77 362.525 1306.77 366.793H1304.77C1304.77 363.365 1303.03 360.614 1299.64 358.364C1296.22 356.09 1291.21 354.388 1284.9 353.145C1272.31 350.662 1254.97 350.079 1236.05 350.079V348.079ZM1159.11 368.709C1158.65 365.012 1159.65 361.724 1162.39 358.957C1165.09 356.24 1169.4 354.082 1175.45 352.42C1187.56 349.094 1207.1 347.63 1236.07 348.079L1236.04 350.079C1207.09 349.63 1187.8 351.104 1175.98 354.349C1170.07 355.972 1166.15 358.008 1163.82 360.365C1161.53 362.674 1160.7 365.343 1161.09 368.461L1159.11 368.709ZM1175.93 383.403C1169.61 381.842 1165.62 380.515 1163.12 378.354C1160.53 376.115 1159.66 373.108 1159.11 368.709L1161.09 368.461C1161.63 372.771 1162.44 375.117 1164.43 376.84C1166.51 378.64 1170.02 379.882 1176.41 381.461L1175.93 383.403ZM1270.8 386.251C1255.84 387.662 1237.52 388.279 1220.25 387.881C1203.01 387.484 1186.74 386.073 1175.93 383.403L1176.41 381.461C1187 384.078 1203.09 385.486 1220.3 385.882C1237.49 386.278 1255.73 385.663 1270.61 384.26L1270.8 386.251ZM1271.02 384.307C1317.02 399.728 1340.24 402.951 1351.99 404.584L1351.71 406.565C1339.87 404.918 1316.52 401.671 1270.38 386.204L1271.02 384.307ZM1351.99 404.584C1355.71 405.101 1358.4 405.472 1360.29 406.043L1359.71 407.957C1358.01 407.443 1355.51 407.093 1351.71 406.565L1351.99 404.584ZM1359.71 407.957C1328.54 398.527 1307.13 388.391 1296.02 381.782L1297.05 380.063C1307.98 386.573 1329.24 396.65 1360.29 406.043L1359.71 407.957ZM1306.89 369.317C1307.04 371.549 1307.24 373.97 1305.92 376.199C1304.59 378.438 1301.88 380.275 1296.84 381.876L1296.23 379.97C1301.13 378.415 1303.25 376.775 1304.2 375.179C1305.15 373.574 1305.06 371.805 1304.89 369.456L1306.89 369.317Z" fill="black"/>
<path d="M1178.76 364.55C1178.9 364.454 1179.04 364.37 1179.2 364.298C1179.35 364.226 1179.53 364.142 1179.72 364.046C1179.98 363.914 1180.24 363.824 1180.49 363.776C1180.73 363.74 1181 363.704 1181.28 363.668L1181.59 363.632H1181.9C1182.28 363.632 1182.68 363.674 1183.1 363.758C1183.51 363.842 1183.85 364.004 1184.13 364.244C1184.37 364.436 1184.54 364.646 1184.63 364.874C1184.73 365.114 1184.78 365.354 1184.78 365.594C1184.78 365.738 1184.76 365.876 1184.74 366.008C1184.72 366.14 1184.68 366.272 1184.63 366.404C1184.5 366.788 1184.33 367.094 1184.11 367.322C1183.89 367.562 1183.65 367.82 1183.37 368.096C1183.35 368.132 1183.31 368.174 1183.25 368.222C1183.17 368.282 1183.13 368.33 1183.1 368.366C1183.32 368.342 1183.53 368.366 1183.75 368.438C1183.97 368.522 1184.16 368.636 1184.34 368.78C1184.52 368.924 1184.69 369.092 1184.83 369.284C1184.97 369.476 1185.08 369.668 1185.15 369.86C1185.2 370.004 1185.24 370.142 1185.26 370.274C1185.29 370.406 1185.3 370.544 1185.3 370.688C1185.3 370.988 1185.24 371.276 1185.14 371.552C1185.03 371.84 1184.88 372.092 1184.69 372.308C1184.21 372.884 1183.65 373.34 1183.01 373.676C1182.38 374.024 1181.69 374.198 1180.96 374.198C1180.64 374.198 1180.31 374.156 1179.97 374.072C1179.62 374 1179.27 373.88 1178.93 373.712C1178.69 373.592 1178.49 373.448 1178.35 373.28C1178.19 373.124 1178.1 372.896 1178.06 372.596C1178.04 372.44 1178.06 372.266 1178.13 372.074C1178.21 371.894 1178.33 371.774 1178.49 371.714C1178.55 371.69 1178.61 371.69 1178.67 371.714C1178.73 371.738 1178.79 371.774 1178.85 371.822L1179.02 371.966C1179.08 372.026 1179.14 372.068 1179.2 372.092L1179.81 372.254C1180.01 372.302 1180.22 372.338 1180.42 372.362C1180.52 372.374 1180.61 372.38 1180.69 372.38H1180.94C1181.22 372.38 1181.49 372.362 1181.75 372.326C1182.02 372.29 1182.3 372.236 1182.6 372.164C1182.75 372.128 1182.95 372.056 1183.17 371.948C1183.39 371.852 1183.59 371.732 1183.77 371.588C1183.94 371.444 1184.06 371.282 1184.15 371.102C1184.23 370.922 1184.22 370.73 1184.13 370.526C1184.03 370.334 1183.88 370.184 1183.66 370.076C1183.44 369.968 1183.21 369.884 1182.96 369.824C1182.71 369.776 1182.45 369.74 1182.2 369.716C1181.95 369.704 1181.75 369.692 1181.59 369.68C1181.36 369.668 1181.13 369.68 1180.91 369.716C1180.67 369.752 1180.44 369.782 1180.22 369.806C1180.15 369.806 1180.07 369.818 1179.99 369.842L1179.72 369.896C1179.62 369.908 1179.54 369.902 1179.47 369.878C1179.38 369.866 1179.32 369.812 1179.27 369.716C1179.17 369.536 1179.15 369.362 1179.21 369.194C1179.26 369.026 1179.35 368.876 1179.48 368.744C1179.6 368.612 1179.74 368.498 1179.9 368.402C1180.05 368.306 1180.19 368.24 1180.31 368.204L1181.01 367.988C1181.24 367.928 1181.47 367.856 1181.7 367.772C1181.93 367.688 1182.15 367.586 1182.36 367.466C1182.58 367.346 1182.79 367.184 1182.99 366.98C1183.04 366.932 1183.1 366.872 1183.17 366.8C1183.23 366.728 1183.29 366.65 1183.35 366.566C1183.4 366.482 1183.44 366.398 1183.46 366.314C1183.49 366.23 1183.47 366.14 1183.43 366.044C1183.38 365.948 1183.3 365.864 1183.19 365.792C1183.08 365.732 1182.97 365.678 1182.85 365.63C1182.72 365.594 1182.59 365.564 1182.47 365.54C1182.35 365.528 1182.25 365.516 1182.17 365.504C1182.08 365.48 1182 365.468 1181.93 365.468H1181.68C1181.32 365.468 1180.97 365.522 1180.64 365.63C1180.3 365.75 1179.99 365.894 1179.7 366.062C1179.57 366.158 1179.44 366.26 1179.32 366.368C1179.2 366.488 1179.11 366.62 1179.03 366.764L1178.94 366.98C1178.91 367.064 1178.87 367.13 1178.84 367.178C1178.79 367.226 1178.73 367.25 1178.67 367.25C1178.61 367.25 1178.53 367.214 1178.42 367.142C1178.28 367.046 1178.16 366.902 1178.06 366.71C1177.97 366.518 1177.92 366.35 1177.94 366.206C1177.96 365.858 1178.04 365.534 1178.19 365.234C1178.32 364.946 1178.51 364.718 1178.76 364.55ZM1194.39 370.94C1194.42 371.084 1194.46 371.252 1194.51 371.444C1194.56 371.648 1194.6 371.852 1194.64 372.056C1194.67 372.26 1194.7 372.464 1194.71 372.668C1194.72 372.872 1194.71 373.046 1194.67 373.19C1194.6 373.574 1194.42 373.886 1194.12 374.126C1193.97 374.258 1193.85 374.288 1193.76 374.216C1193.65 374.144 1193.56 374.03 1193.5 373.874C1193.43 373.718 1193.38 373.55 1193.34 373.37C1193.31 373.202 1193.28 373.076 1193.27 372.992C1193.22 372.764 1193.17 372.542 1193.13 372.326C1193.07 372.122 1193.01 371.906 1192.95 371.678C1192.93 371.678 1192.92 371.648 1192.91 371.588L1192.86 371.39L1192.8 371.21L1192.77 371.138C1192.48 371.162 1192.2 371.174 1191.92 371.174C1191.64 371.186 1191.39 371.204 1191.15 371.228C1190.83 371.252 1190.58 371.276 1190.39 371.3C1190.19 371.336 1189.93 371.384 1189.62 371.444C1189.33 371.516 1189.04 371.576 1188.75 371.624C1188.46 371.672 1188.16 371.732 1187.85 371.804C1187.84 371.864 1187.8 371.96 1187.74 372.092C1187.68 372.236 1187.62 372.38 1187.55 372.524L1187.33 372.974C1187.26 373.13 1187.2 373.244 1187.17 373.316C1187.13 373.388 1187.1 373.478 1187.06 373.586C1187.02 373.694 1186.98 373.796 1186.93 373.892C1186.89 374 1186.83 374.09 1186.75 374.162C1186.67 374.234 1186.57 374.27 1186.47 374.27C1186.29 374.27 1186.16 374.192 1186.09 374.036C1186.02 373.88 1185.97 373.718 1185.96 373.55C1185.96 373.466 1185.98 373.358 1186.02 373.226C1186.04 373.094 1186.08 372.956 1186.12 372.812C1186.16 372.68 1186.21 372.548 1186.27 372.416L1186.39 372.11C1186.44 371.966 1186.49 371.84 1186.54 371.732C1186.59 371.624 1186.63 371.522 1186.68 371.426L1186.81 371.156C1186.84 371.072 1186.89 370.97 1186.95 370.85C1187.11 370.538 1187.25 370.244 1187.38 369.968C1187.52 369.704 1187.66 369.416 1187.82 369.104C1188.02 368.72 1188.21 368.378 1188.39 368.078C1188.56 367.79 1188.76 367.472 1188.99 367.124C1189.15 366.848 1189.32 366.578 1189.47 366.314C1189.63 366.062 1189.79 365.798 1189.96 365.522C1190.09 365.318 1190.25 365.126 1190.43 364.946L1190.97 364.442C1191.09 364.346 1191.21 364.232 1191.34 364.1C1191.46 363.98 1191.61 363.926 1191.78 363.938C1191.97 363.962 1192.12 364.04 1192.24 364.172C1192.35 364.316 1192.42 364.466 1192.46 364.622C1192.52 364.814 1192.59 364.994 1192.68 365.162C1192.76 365.342 1192.84 365.528 1192.91 365.72C1193.01 365.972 1193.1 366.206 1193.18 366.422C1193.25 366.65 1193.32 366.866 1193.4 367.07L1193.59 367.718C1193.65 367.946 1193.73 368.186 1193.81 368.438C1193.89 368.678 1193.97 368.918 1194.03 369.158C1194.07 369.398 1194.13 369.674 1194.21 369.986C1194.23 370.094 1194.26 370.25 1194.3 370.454C1194.33 370.67 1194.36 370.832 1194.39 370.94ZM1190.03 369.662C1190.28 369.626 1190.5 369.602 1190.68 369.59L1191.18 369.554L1191.67 369.518C1191.84 369.506 1192.04 369.482 1192.28 369.446C1192.27 369.41 1192.25 369.344 1192.23 369.248C1192.19 369.152 1192.15 369.044 1192.12 368.924C1192.08 368.804 1192.05 368.69 1192.01 368.582C1191.97 368.486 1191.95 368.42 1191.94 368.384C1191.89 368.252 1191.85 368.12 1191.81 367.988C1191.78 367.868 1191.71 367.7 1191.61 367.484C1191.54 367.316 1191.46 367.118 1191.36 366.89C1191.27 366.674 1191.12 366.518 1190.91 366.422C1190.82 366.506 1190.7 366.626 1190.55 366.782C1190.41 366.95 1190.31 367.076 1190.26 367.16C1189.96 367.664 1189.68 368.114 1189.42 368.51C1189.14 368.918 1188.87 369.374 1188.61 369.878C1188.76 369.818 1188.99 369.77 1189.27 369.734C1189.55 369.71 1189.8 369.686 1190.03 369.662ZM1204.21 368.132C1204.14 367.976 1204.08 367.814 1204.02 367.646C1204 367.574 1203.97 367.478 1203.93 367.358L1203.76 367.034C1203.72 366.926 1203.68 366.824 1203.66 366.728C1203.62 366.644 1203.61 366.59 1203.62 366.566C1203.44 366.926 1203.27 367.334 1203.1 367.79C1202.92 368.246 1202.76 368.624 1202.63 368.924C1202.45 369.344 1202.28 369.758 1202.13 370.166C1201.97 370.574 1201.81 370.988 1201.64 371.408C1201.58 371.588 1201.52 371.786 1201.46 372.002C1201.39 372.23 1201.31 372.452 1201.23 372.668C1201.14 372.896 1201.05 373.106 1200.94 373.298C1200.83 373.49 1200.7 373.652 1200.54 373.784C1200.46 373.856 1200.37 373.916 1200.29 373.964C1200.21 374.024 1200.12 374.054 1200.02 374.054C1199.82 374.054 1199.71 373.904 1199.71 373.604C1199.71 373.4 1199.77 373.178 1199.89 372.938C1200 372.71 1200.09 372.494 1200.16 372.29L1200.87 370.454C1201.09 369.854 1201.33 369.248 1201.59 368.636C1201.83 368.06 1202.06 367.484 1202.29 366.908L1202.95 365.18C1203.03 364.976 1203.09 364.766 1203.13 364.55C1203.17 364.346 1203.26 364.16 1203.4 363.992C1203.57 363.824 1203.75 363.74 1203.93 363.74C1204.12 363.74 1204.29 363.854 1204.45 364.082C1204.66 364.478 1204.83 364.904 1204.95 365.36C1205.07 365.816 1205.23 366.248 1205.44 366.656L1206.16 368.132C1206.4 368.624 1206.61 369.122 1206.79 369.626C1206.92 369.962 1207.05 370.304 1207.17 370.652C1207.29 371.012 1207.35 371.372 1207.35 371.732C1207.35 371.948 1207.32 372.146 1207.27 372.326C1207.21 372.518 1207.14 372.704 1207.06 372.884C1206.97 373.076 1206.85 373.238 1206.7 373.37C1206.4 373.634 1206.16 373.562 1206 373.154C1205.9 372.95 1205.83 372.722 1205.78 372.47C1205.73 372.23 1205.67 371.99 1205.58 371.75C1205.49 371.474 1205.39 371.192 1205.29 370.904L1204.97 370.04C1204.89 369.8 1204.8 369.56 1204.7 369.32L1204.39 368.6L1204.21 368.132ZM1219.21 369.104C1219.22 368.936 1219.23 368.774 1219.25 368.618C1219.26 368.474 1219.26 368.336 1219.25 368.204C1219.21 367.556 1219 367.028 1218.62 366.62C1218.23 366.2 1217.73 365.882 1217.1 365.666C1216.78 365.546 1216.45 365.498 1216.11 365.522C1215.67 365.546 1215.23 365.66 1214.78 365.864C1214.35 366.068 1213.95 366.32 1213.59 366.62C1213.33 366.836 1213.12 367.064 1212.96 367.304C1212.8 367.544 1212.66 367.796 1212.57 368.06C1212.46 368.324 1212.38 368.594 1212.32 368.87C1212.26 369.158 1212.2 369.452 1212.14 369.752C1212.1 369.932 1212.07 370.106 1212.05 370.274C1212.02 370.442 1212.01 370.61 1212.01 370.778C1212.02 370.91 1212.05 371.036 1212.08 371.156C1212.12 371.276 1212.19 371.396 1212.3 371.516C1212.48 371.708 1212.72 371.852 1213.02 371.948C1213.32 372.032 1213.61 372.08 1213.88 372.092C1214.16 372.104 1214.45 372.086 1214.76 372.038C1215.09 372.002 1215.41 371.942 1215.72 371.858C1216.04 371.786 1216.35 371.696 1216.65 371.588C1216.95 371.48 1217.24 371.366 1217.5 371.246C1217.78 371.138 1218.02 371 1218.24 370.832C1218.47 370.676 1218.65 370.478 1218.8 370.238C1218.88 370.058 1218.96 369.872 1219.03 369.68C1219.1 369.488 1219.16 369.296 1219.21 369.104ZM1211.11 368.816C1211.16 368.708 1211.2 368.606 1211.24 368.51C1211.49 367.97 1211.76 367.454 1212.05 366.962C1212.32 366.458 1212.64 365.984 1213 365.54C1213.35 365.084 1213.77 364.7 1214.26 364.388C1214.73 364.1 1215.23 363.878 1215.77 363.722C1215.9 363.674 1216.05 363.632 1216.2 363.596C1216.35 363.572 1216.49 363.554 1216.62 363.542C1216.77 363.53 1216.95 363.548 1217.16 363.596C1217.33 363.668 1217.5 363.758 1217.68 363.866C1217.85 363.974 1218.02 364.076 1218.18 364.172C1218.4 364.316 1218.59 364.478 1218.76 364.658C1218.92 364.826 1219.05 365.036 1219.17 365.288L1219.48 365.846L1219.79 366.404C1219.87 366.608 1219.95 366.794 1220.02 366.962C1220.09 367.154 1220.17 367.352 1220.25 367.556C1220.31 367.676 1220.35 367.856 1220.36 368.096C1220.37 368.348 1220.37 368.612 1220.36 368.888C1220.34 369.152 1220.33 369.344 1220.33 369.464C1220.25 370.004 1220.06 370.49 1219.75 370.922C1219.43 371.342 1219.05 371.714 1218.62 372.038C1218.17 372.362 1217.7 372.638 1217.21 372.866C1216.71 373.094 1216.24 373.292 1215.81 373.46C1215.51 373.568 1215.2 373.652 1214.87 373.712C1214.54 373.796 1214.19 373.85 1213.85 373.874C1213.51 373.886 1213.17 373.868 1212.82 373.82C1212.36 373.724 1211.95 373.496 1211.58 373.136C1211.19 372.8 1210.92 372.416 1210.77 371.984C1210.71 371.852 1210.67 371.69 1210.66 371.498C1210.65 371.318 1210.65 371.138 1210.68 370.958L1210.75 370.418C1210.76 370.394 1210.77 370.364 1210.77 370.328C1210.68 370.304 1210.6 370.28 1210.52 370.256C1210.34 370.208 1210.17 370.202 1210.01 370.238L1209.71 370.31L1209.4 370.328L1209.42 370.544C1209.42 370.616 1209.41 370.7 1209.4 370.796L1209.42 371.066C1209.44 371.426 1209.47 371.792 1209.51 372.164C1209.54 372.548 1209.58 372.902 1209.62 373.226C1209.65 373.466 1209.65 373.724 1209.6 374C1209.56 374.264 1209.46 374.486 1209.29 374.666C1209.17 374.786 1209.05 374.852 1208.93 374.864C1208.82 374.864 1208.73 374.834 1208.64 374.774C1208.55 374.69 1208.48 374.588 1208.43 374.468C1208.36 374.348 1208.3 374.222 1208.27 374.09C1208.19 373.838 1208.16 373.55 1208.18 373.226C1208.19 372.89 1208.2 372.566 1208.21 372.254C1208.21 371.726 1208.22 371.198 1208.23 370.67C1208.24 370.142 1208.22 369.614 1208.16 369.086L1208.07 368.132L1207.98 366.656C1207.97 366.488 1207.96 366.314 1207.96 366.134C1207.95 365.978 1207.93 365.834 1207.91 365.702C1207.91 365.558 1207.91 365.42 1207.91 365.288C1207.92 365.156 1207.95 365.03 1208.01 364.91C1208.05 364.79 1208.13 364.664 1208.25 364.532C1208.38 364.376 1208.51 364.31 1208.63 364.334C1208.75 364.334 1208.85 364.388 1208.93 364.496C1209.02 364.604 1209.09 364.736 1209.15 364.892C1209.18 365.048 1209.2 365.198 1209.2 365.342L1209.18 365.666L1209.24 366.35L1209.27 366.692C1209.3 366.848 1209.3 367.004 1209.27 367.16C1209.23 367.328 1209.21 367.49 1209.22 367.646L1209.33 368.06C1209.35 368.192 1209.37 368.33 1209.38 368.474C1209.41 368.618 1209.42 368.768 1209.42 368.924H1209.47L1209.62 368.87C1209.64 368.834 1209.68 368.81 1209.72 368.798C1209.83 368.774 1209.95 368.786 1210.08 368.834C1210.19 368.87 1210.3 368.882 1210.41 368.87C1210.43 368.87 1210.46 368.882 1210.48 368.906H1210.57C1210.69 368.894 1210.81 368.876 1210.93 368.852C1210.99 368.84 1211.05 368.828 1211.11 368.816ZM1228.53 371.57C1228.5 371.414 1228.45 371.258 1228.39 371.102C1228.29 370.85 1228.2 370.586 1228.1 370.31L1227.78 369.5C1227.7 369.284 1227.62 369.062 1227.52 368.834L1227.22 368.168L1227.04 367.736C1226.97 367.58 1226.9 367.424 1226.84 367.268C1226.84 367.208 1226.82 367.118 1226.77 366.998L1226.61 366.71C1226.56 366.602 1226.52 366.506 1226.5 366.422C1226.46 366.338 1226.45 366.284 1226.46 366.26C1226.28 366.596 1226.11 366.98 1225.96 367.412C1225.78 367.832 1225.62 368.186 1225.49 368.474C1225.31 368.858 1225.15 369.242 1225 369.626C1224.85 370.01 1224.69 370.394 1224.52 370.778C1224.46 370.946 1224.4 371.132 1224.34 371.336C1224.27 371.552 1224.19 371.762 1224.12 371.966C1224.07 372.062 1224.03 372.158 1224 372.254L1224.1 372.236C1224.54 372.2 1224.99 372.158 1225.45 372.11C1226.35 371.942 1227.38 371.762 1228.53 371.57ZM1222.75 372.308C1222.78 372.272 1222.8 372.236 1222.81 372.2C1222.92 371.996 1223.01 371.798 1223.08 371.606L1223.76 369.896C1223.99 369.332 1224.22 368.768 1224.46 368.204C1224.7 367.664 1224.93 367.124 1225.15 366.584L1225.81 364.982C1225.89 364.79 1225.94 364.592 1225.98 364.388C1226.01 364.196 1226.1 364.022 1226.25 363.866C1226.41 363.71 1226.59 363.632 1226.77 363.632C1226.95 363.632 1227.12 363.74 1227.27 363.956C1227.49 364.316 1227.65 364.712 1227.76 365.144C1227.88 365.564 1228.04 365.966 1228.24 366.35L1228.95 367.736C1229.19 368.192 1229.39 368.654 1229.56 369.122C1229.69 369.434 1229.82 369.752 1229.94 370.076C1230.06 370.412 1230.12 370.748 1230.12 371.084C1230.12 371.168 1230.11 371.252 1230.1 371.336C1230.18 371.324 1230.27 371.312 1230.35 371.3C1230.4 371.264 1230.45 371.24 1230.51 371.228C1230.62 371.204 1230.72 371.198 1230.82 371.21L1231.05 371.174L1231.25 371.192C1231.32 371.204 1231.38 371.222 1231.43 371.246C1231.53 371.366 1231.57 371.468 1231.57 371.552C1231.57 371.612 1231.56 371.678 1231.54 371.75C1231.6 371.87 1231.63 371.966 1231.65 372.038C1231.67 372.434 1231.64 372.824 1231.56 373.208L1231.32 374.396C1231.31 374.492 1231.27 374.594 1231.2 374.702C1231.1 374.81 1230.99 374.888 1230.85 374.936C1230.75 374.96 1230.63 374.966 1230.49 374.954C1230.36 374.942 1230.27 374.912 1230.21 374.864C1230.04 374.732 1229.97 374.558 1230.01 374.342C1230.06 374.138 1230.09 373.958 1230.1 373.802C1230.12 373.562 1230.15 373.31 1230.17 373.046V372.704C1229.99 372.74 1229.76 372.788 1229.47 372.848C1228 373.088 1226.75 373.328 1225.71 373.568C1225.31 373.628 1224.94 373.682 1224.59 373.73C1224.24 373.778 1223.98 373.82 1223.8 373.856L1223.62 373.874L1223.46 373.892C1223.34 373.916 1223.25 373.928 1223.19 373.928C1223.01 373.94 1222.86 373.982 1222.75 374.054C1222.69 374.078 1222.65 374.126 1222.61 374.198L1222.57 374.432C1222.57 374.552 1222.6 374.9 1222.66 375.476C1222.74 376.064 1222.63 376.34 1222.34 376.304C1222.03 376.268 1221.78 376.178 1221.6 376.034C1221.47 375.962 1221.38 375.842 1221.33 375.674C1221.28 375.506 1221.26 375.32 1221.26 375.116C1221.26 374.828 1221.27 374.642 1221.3 374.558C1221.26 374.33 1221.24 374.108 1221.24 373.892C1221.23 373.652 1221.21 373.424 1221.17 373.208C1221.15 373.088 1221.16 372.968 1221.22 372.848C1221.28 372.716 1221.35 372.59 1221.42 372.47C1221.49 372.362 1221.58 372.296 1221.69 372.272C1221.8 372.236 1221.91 372.23 1222.02 372.254C1222.21 372.242 1222.37 372.254 1222.5 372.29C1222.57 372.302 1222.66 372.308 1222.75 372.308ZM1233.31 365.522C1233.31 365.414 1233.34 365.33 1233.41 365.27C1233.47 365.222 1233.55 365.18 1233.65 365.144C1233.73 365.108 1233.82 365.078 1233.92 365.054C1234.01 365.042 1234.1 365.024 1234.17 365C1234.43 364.916 1234.67 364.85 1234.89 364.802C1235.11 364.754 1235.32 364.712 1235.54 364.676C1235.75 364.652 1235.98 364.628 1236.2 364.604C1236.42 364.592 1236.66 364.568 1236.92 364.532C1237.22 364.496 1237.52 364.46 1237.81 364.424C1238.09 364.4 1238.39 364.388 1238.71 364.388C1238.92 364.388 1239.16 364.4 1239.43 364.424C1239.68 364.46 1239.91 364.526 1240.13 364.622C1240.34 364.706 1240.45 364.862 1240.45 365.09C1240.45 365.258 1240.4 365.426 1240.29 365.594C1240.18 365.774 1240.06 365.9 1239.91 365.972C1239.74 366.068 1239.54 366.11 1239.3 366.098C1239.06 366.098 1238.84 366.104 1238.63 366.116C1238.35 366.14 1238.05 366.17 1237.75 366.206L1236.85 366.332C1236.58 366.368 1236.31 366.416 1236.06 366.476C1235.81 366.536 1235.55 366.584 1235.29 366.62C1235.15 366.644 1234.97 366.674 1234.75 366.71C1234.52 366.758 1234.37 366.842 1234.31 366.962C1234.29 367.022 1234.27 367.106 1234.24 367.214C1234.21 367.334 1234.18 367.424 1234.17 367.484C1234.16 367.58 1234.15 367.706 1234.15 367.862C1234.14 368.018 1234.13 368.144 1234.13 368.24C1234.13 368.372 1234.13 368.486 1234.12 368.582C1234.1 368.678 1234.14 368.78 1234.22 368.888L1234.85 368.816C1235.06 368.792 1235.27 368.75 1235.5 368.69C1235.95 368.57 1236.37 368.468 1236.76 368.384C1237.15 368.312 1237.56 368.246 1238 368.186L1238.63 368.114C1238.84 368.102 1239.05 368.108 1239.26 368.132C1239.43 368.144 1239.61 368.156 1239.79 368.168C1239.97 368.192 1240.13 368.246 1240.29 368.33C1240.46 368.414 1240.6 368.498 1240.7 368.582C1240.8 368.666 1240.8 368.792 1240.7 368.96C1240.62 369.116 1240.52 369.212 1240.42 369.248C1240.31 369.296 1240.17 369.35 1240 369.41C1239.41 369.578 1238.83 369.722 1238.26 369.842C1237.67 369.974 1237.07 370.106 1236.46 370.238C1236.22 370.298 1235.98 370.34 1235.75 370.364C1235.51 370.388 1235.29 370.43 1235.09 370.49C1234.97 370.514 1234.85 370.538 1234.75 370.562C1234.64 370.598 1234.52 370.64 1234.4 370.688C1234.31 370.712 1234.24 370.778 1234.19 370.886C1234.14 371.006 1234.12 371.132 1234.12 371.264C1234.1 371.408 1234.1 371.546 1234.12 371.678C1234.12 371.81 1234.12 371.906 1234.13 371.966C1234.13 372.062 1234.15 372.122 1234.17 372.146C1234.19 372.182 1234.25 372.194 1234.35 372.182L1234.84 372.146C1234.99 372.134 1235.15 372.128 1235.32 372.128C1235.84 372.128 1236.36 372.086 1236.89 372.002C1237.42 371.918 1237.93 371.84 1238.44 371.768C1238.66 371.732 1238.84 371.702 1238.96 371.678C1239.08 371.654 1239.19 371.636 1239.3 371.624C1239.4 371.612 1239.51 371.6 1239.64 371.588H1240.67C1240.82 371.588 1240.99 371.6 1241.15 371.624C1241.21 371.636 1241.29 371.642 1241.37 371.642C1241.44 371.654 1241.49 371.696 1241.51 371.768C1241.54 371.828 1241.54 371.894 1241.51 371.966C1241.49 372.05 1241.47 372.122 1241.44 372.182C1241.38 372.314 1241.32 372.416 1241.26 372.488C1241.2 372.572 1241.12 372.662 1241.03 372.758C1240.91 372.89 1240.76 372.98 1240.58 373.028C1240.39 373.088 1240.21 373.142 1240.04 373.19C1239.79 373.286 1239.59 373.358 1239.44 373.406C1239.29 373.454 1239.14 373.49 1238.99 373.514C1238.85 373.55 1238.7 373.574 1238.54 373.586C1238.38 373.61 1238.16 373.64 1237.9 373.676C1237.73 373.7 1237.57 373.724 1237.43 373.748C1237.27 373.772 1237.11 373.796 1236.94 373.82C1236.8 373.832 1236.66 373.832 1236.53 373.82C1236.38 373.82 1236.24 373.826 1236.1 373.838C1235.84 373.85 1235.59 373.886 1235.34 373.946C1235.08 374.018 1234.82 374.066 1234.58 374.09C1234.42 374.09 1234.25 374.096 1234.1 374.108C1233.94 374.12 1233.79 374.084 1233.63 374C1233.32 373.808 1233.14 373.538 1233.11 373.19C1233.06 372.77 1233.02 372.338 1233 371.894L1232.93 370.598C1232.9 370.022 1232.94 369.446 1233.04 368.87C1233.12 368.294 1233.16 367.718 1233.16 367.142C1233.16 366.866 1233.19 366.596 1233.23 366.332C1233.28 366.08 1233.31 365.81 1233.31 365.522ZM1249.71 367.898C1249.72 368.414 1249.74 368.924 1249.78 369.428C1249.83 369.932 1249.85 370.448 1249.85 370.976C1249.85 371.192 1249.86 371.408 1249.89 371.624C1249.9 371.828 1249.92 372.026 1249.96 372.218C1249.98 372.566 1249.89 372.914 1249.69 373.262C1249.66 373.334 1249.61 373.37 1249.53 373.37C1249.45 373.358 1249.38 373.334 1249.29 373.298C1249.22 373.274 1249.15 373.226 1249.09 373.154C1249.03 373.094 1249 373.028 1248.99 372.956C1248.91 372.728 1248.88 372.488 1248.9 372.236C1248.9 371.996 1248.88 371.756 1248.86 371.516C1248.84 371.216 1248.81 370.898 1248.77 370.562L1248.66 369.518C1248.64 369.17 1248.61 368.822 1248.59 368.474C1248.57 368.138 1248.55 367.814 1248.54 367.502C1248.34 367.838 1248.12 368.174 1247.87 368.51C1247.61 368.834 1247.36 369.164 1247.13 369.5C1246.81 369.944 1246.49 370.388 1246.18 370.832C1245.88 371.276 1245.54 371.696 1245.17 372.092C1245.01 372.272 1244.83 372.512 1244.61 372.812C1244.38 373.112 1244.16 373.388 1243.95 373.64C1243.72 373.904 1243.5 374.102 1243.28 374.234C1243.08 374.366 1242.91 374.342 1242.79 374.162C1242.67 373.982 1242.59 373.814 1242.54 373.658C1242.49 373.49 1242.47 373.322 1242.47 373.154C1242.47 372.986 1242.48 372.824 1242.49 372.668C1242.51 372.5 1242.52 372.344 1242.52 372.2L1242.49 371.426C1242.48 370.97 1242.47 370.526 1242.47 370.094C1242.47 369.65 1242.48 369.212 1242.51 368.78C1242.53 368.624 1242.54 368.48 1242.52 368.348V367.916L1242.49 367.196L1242.45 366.476C1242.45 366.284 1242.46 366.098 1242.47 365.918L1242.51 365.36C1242.52 365.156 1242.54 364.982 1242.56 364.838C1242.6 364.682 1242.64 364.508 1242.69 364.316C1242.72 364.22 1242.79 364.124 1242.9 364.028C1243.02 363.932 1243.15 363.908 1243.28 363.956C1243.36 363.992 1243.41 364.04 1243.42 364.1C1243.45 364.172 1243.47 364.256 1243.48 364.352C1243.51 364.544 1243.54 364.748 1243.55 364.964C1243.57 365.18 1243.59 365.39 1243.59 365.594C1243.6 365.822 1243.6 366.038 1243.6 366.242V366.89C1243.63 367.514 1243.65 368.12 1243.68 368.708C1243.71 369.308 1243.7 369.926 1243.64 370.562C1243.64 370.742 1243.65 370.838 1243.66 370.85C1243.68 370.874 1243.71 370.922 1243.73 370.994C1243.86 370.934 1243.96 370.862 1244.02 370.778C1244.08 370.682 1244.16 370.58 1244.25 370.472C1244.38 370.316 1244.5 370.154 1244.59 369.986C1244.7 369.818 1244.82 369.656 1244.95 369.5C1245.3 369.068 1245.62 368.63 1245.91 368.186C1246.2 367.73 1246.49 367.268 1246.79 366.8C1246.92 366.596 1247.04 366.398 1247.15 366.206C1247.26 366.002 1247.36 365.804 1247.46 365.612C1247.55 365.42 1247.65 365.216 1247.74 365C1247.85 364.784 1247.97 364.556 1248.09 364.316C1248.16 364.184 1248.26 364.04 1248.39 363.884C1248.52 363.728 1248.65 363.674 1248.77 363.722C1248.84 363.758 1248.93 363.812 1249.02 363.884C1249.11 363.968 1249.18 364.058 1249.26 364.154C1249.34 364.238 1249.41 364.328 1249.47 364.424C1249.53 364.532 1249.57 364.616 1249.58 364.676C1249.6 364.808 1249.62 364.94 1249.62 365.072L1249.71 367.898ZM1243.84 361.598C1243.86 361.778 1243.88 361.934 1243.89 362.066L1243.93 362.444C1243.94 362.576 1243.98 362.708 1244.05 362.84C1244.19 363.068 1244.37 363.218 1244.59 363.29C1244.81 363.374 1245.04 363.434 1245.28 363.47C1245.43 363.506 1245.6 363.524 1245.78 363.524C1246.18 363.524 1246.54 363.44 1246.86 363.272C1247.07 363.164 1247.27 363.02 1247.47 362.84C1247.67 362.672 1247.82 362.486 1247.92 362.282C1248.01 362.15 1248.07 361.994 1248.1 361.814C1248.14 361.646 1248.16 361.478 1248.16 361.31C1248.15 361.214 1248.14 361.106 1248.14 360.986C1248.13 360.878 1248.09 360.782 1248.03 360.698C1247.91 360.518 1247.75 360.446 1247.55 360.482C1247.44 360.506 1247.37 360.572 1247.35 360.68C1247.32 360.8 1247.31 360.908 1247.29 361.004C1247.27 361.244 1247.23 361.448 1247.17 361.616C1247.1 361.796 1246.94 361.934 1246.7 362.03C1246.39 362.162 1246.1 362.246 1245.84 362.282C1245.68 362.306 1245.52 362.318 1245.35 362.318C1245.18 362.33 1245.04 362.282 1244.92 362.174C1244.81 362.066 1244.74 361.904 1244.72 361.688C1244.7 361.484 1244.69 361.304 1244.7 361.148V360.896C1244.7 360.824 1244.65 360.776 1244.56 360.752C1244.41 360.704 1244.28 360.722 1244.14 360.806C1244.01 360.89 1243.92 360.998 1243.87 361.13C1243.81 361.262 1243.8 361.418 1243.84 361.598ZM1262.71 367.898C1262.73 368.414 1262.75 368.924 1262.79 369.428C1262.83 369.932 1262.86 370.448 1262.86 370.976C1262.86 371.192 1262.87 371.408 1262.89 371.624C1262.91 371.828 1262.93 372.026 1262.97 372.218C1262.99 372.566 1262.9 372.914 1262.7 373.262C1262.67 373.334 1262.62 373.37 1262.53 373.37C1262.46 373.358 1262.38 373.334 1262.3 373.298C1262.23 373.274 1262.16 373.226 1262.1 373.154C1262.04 373.094 1262.01 373.028 1261.99 372.956C1261.92 372.728 1261.89 372.488 1261.9 372.236C1261.9 371.996 1261.89 371.756 1261.87 371.516C1261.84 371.216 1261.81 370.898 1261.78 370.562L1261.67 369.518C1261.65 369.17 1261.62 368.822 1261.6 368.474C1261.57 368.138 1261.56 367.814 1261.54 367.502C1261.35 367.838 1261.13 368.174 1260.88 368.51C1260.61 368.834 1260.37 369.164 1260.14 369.5C1259.82 369.944 1259.5 370.388 1259.19 370.832C1258.89 371.276 1258.55 371.696 1258.18 372.092C1258.02 372.272 1257.84 372.512 1257.62 372.812C1257.39 373.112 1257.17 373.388 1256.95 373.64C1256.73 373.904 1256.5 374.102 1256.29 374.234C1256.08 374.366 1255.92 374.342 1255.8 374.162C1255.68 373.982 1255.6 373.814 1255.55 373.658C1255.5 373.49 1255.48 373.322 1255.48 373.154C1255.48 372.986 1255.48 372.824 1255.5 372.668C1255.52 372.5 1255.53 372.344 1255.53 372.2L1255.5 371.426C1255.48 370.97 1255.48 370.526 1255.48 370.094C1255.48 369.65 1255.49 369.212 1255.51 368.78C1255.54 368.624 1255.54 368.48 1255.53 368.348V367.916L1255.5 367.196L1255.46 366.476C1255.46 366.284 1255.47 366.098 1255.48 365.918L1255.51 365.36C1255.53 365.156 1255.54 364.982 1255.57 364.838C1255.6 364.682 1255.65 364.508 1255.69 364.316C1255.73 364.22 1255.8 364.124 1255.91 364.028C1256.03 363.932 1256.16 363.908 1256.29 363.956C1256.37 363.992 1256.42 364.04 1256.43 364.1C1256.46 364.172 1256.47 364.256 1256.49 364.352C1256.52 364.544 1256.55 364.748 1256.56 364.964C1256.58 365.18 1256.59 365.39 1256.59 365.594C1256.61 365.822 1256.61 366.038 1256.61 366.242V366.89C1256.64 367.514 1256.66 368.12 1256.68 368.708C1256.72 369.308 1256.71 369.926 1256.65 370.562C1256.65 370.742 1256.65 370.838 1256.67 370.85C1256.69 370.874 1256.71 370.922 1256.74 370.994C1256.87 370.934 1256.97 370.862 1257.03 370.778C1257.09 370.682 1257.16 370.58 1257.26 370.472C1257.39 370.316 1257.51 370.154 1257.6 369.986C1257.71 369.818 1257.83 369.656 1257.96 369.5C1258.31 369.068 1258.63 368.63 1258.92 368.186C1259.2 367.73 1259.5 367.268 1259.8 366.8C1259.93 366.596 1260.05 366.398 1260.16 366.206C1260.27 366.002 1260.37 365.804 1260.46 365.612C1260.56 365.42 1260.66 365.216 1260.75 365C1260.86 364.784 1260.97 364.556 1261.09 364.316C1261.17 364.184 1261.27 364.04 1261.4 363.884C1261.53 363.728 1261.66 363.674 1261.78 363.722C1261.85 363.758 1261.93 363.812 1262.03 363.884C1262.11 363.968 1262.19 364.058 1262.26 364.154C1262.35 364.238 1262.42 364.328 1262.48 364.424C1262.54 364.532 1262.58 364.616 1262.59 364.676C1262.61 364.808 1262.62 364.94 1262.62 365.072L1262.71 367.898ZM1272.38 371.444C1272.54 371.6 1272.64 371.744 1272.69 371.876C1272.74 372.02 1272.75 372.194 1272.72 372.398C1272.71 372.53 1272.69 372.668 1272.65 372.812C1272.62 372.968 1272.52 373.07 1272.36 373.118C1272.2 373.154 1272.06 373.136 1271.95 373.064C1271.83 373.004 1271.7 372.932 1271.57 372.848C1271.43 372.752 1271.3 372.668 1271.18 372.596C1271.06 372.536 1270.91 372.458 1270.74 372.362C1270.59 372.266 1270.41 372.182 1270.22 372.11C1270.03 372.038 1269.86 371.954 1269.7 371.858C1269.53 371.762 1269.36 371.672 1269.2 371.588C1269.02 371.516 1268.84 371.432 1268.67 371.336C1268.47 371.216 1268.25 371.132 1268.03 371.084C1267.79 371.036 1267.56 370.976 1267.34 370.904C1267.14 370.844 1266.93 370.796 1266.73 370.76L1266.12 370.634L1265.92 370.598L1265.74 370.562C1265.72 370.802 1265.7 371.048 1265.7 371.3L1265.69 372.056L1265.7 372.524C1265.72 372.68 1265.73 372.842 1265.76 373.01L1265.83 373.406C1265.84 373.55 1265.82 373.682 1265.76 373.802C1265.72 373.898 1265.67 373.994 1265.61 374.09C1265.54 374.198 1265.46 374.258 1265.36 374.27C1265.21 374.318 1265.1 374.3 1265.04 374.216C1264.97 374.144 1264.9 374.042 1264.84 373.91C1264.77 373.742 1264.72 373.562 1264.7 373.37C1264.67 373.19 1264.65 373.016 1264.62 372.848C1264.59 372.572 1264.56 372.296 1264.55 372.02L1264.52 371.21V369.824C1264.52 369.644 1264.52 369.47 1264.53 369.302C1264.58 368.858 1264.63 368.432 1264.68 368.024C1264.73 367.616 1264.78 367.202 1264.84 366.782C1264.85 366.614 1264.87 366.44 1264.89 366.26C1264.91 366.08 1264.94 365.906 1265 365.738C1265.04 365.57 1265.09 365.414 1265.16 365.27C1265.22 365.126 1265.28 364.97 1265.34 364.802C1265.4 364.694 1265.49 364.586 1265.6 364.478C1265.69 364.382 1265.81 364.328 1265.94 364.316C1266.09 364.316 1266.23 364.364 1266.33 364.46C1266.43 364.556 1266.47 364.67 1266.44 364.802C1266.37 365.138 1266.3 365.456 1266.23 365.756C1266.15 366.056 1266.11 366.38 1266.08 366.728C1266.06 367.016 1266.03 367.31 1265.99 367.61L1265.88 368.51C1266.1 368.378 1266.32 368.234 1266.53 368.078C1266.75 367.934 1266.96 367.796 1267.18 367.664L1267.72 367.286C1267.9 367.154 1268.09 367.034 1268.28 366.926C1268.49 366.794 1268.71 366.65 1268.93 366.494C1269.13 366.338 1269.32 366.182 1269.5 366.026C1269.79 365.774 1270.1 365.54 1270.42 365.324L1271.36 364.712C1271.43 364.664 1271.53 364.592 1271.66 364.496C1271.78 364.4 1271.91 364.322 1272.04 364.262C1272.16 364.202 1272.27 364.172 1272.38 364.172C1272.49 364.184 1272.56 364.274 1272.6 364.442C1272.63 364.586 1272.63 364.724 1272.58 364.856C1272.52 365 1272.44 365.126 1272.35 365.234C1272.25 365.354 1272.15 365.462 1272.04 365.558C1271.92 365.666 1271.81 365.756 1271.72 365.828C1271.58 365.936 1271.45 366.038 1271.32 366.134L1270.91 366.422C1270.74 366.53 1270.58 366.644 1270.44 366.764C1270.28 366.896 1270.12 367.01 1269.95 367.106C1269.48 367.382 1269.03 367.676 1268.6 367.988C1268.16 368.3 1267.71 368.606 1267.27 368.906C1267.58 369.002 1267.9 369.104 1268.22 369.212L1269.18 369.536C1269.39 369.62 1269.6 369.71 1269.79 369.806C1269.97 369.914 1270.16 370.028 1270.37 370.148L1270.91 370.436C1271.07 370.544 1271.24 370.67 1271.41 370.814C1271.57 370.946 1271.73 371.048 1271.91 371.12C1272.09 371.204 1272.25 371.312 1272.38 371.444ZM1281.93 365.576C1282.04 365.768 1282.12 365.978 1282.16 366.206C1282.21 366.434 1282.21 366.662 1282.15 366.89C1282.1 367.094 1282.04 367.28 1281.98 367.448C1281.92 367.616 1281.82 367.754 1281.66 367.862L1281.44 368.024C1281.36 368.084 1281.28 368.12 1281.21 368.132C1281.14 368.156 1281.07 368.144 1281.01 368.096C1280.95 368.06 1280.9 367.976 1280.87 367.844C1280.81 367.664 1280.79 367.484 1280.81 367.304C1280.83 367.136 1280.78 366.968 1280.67 366.8C1280.49 366.524 1280.25 366.308 1279.95 366.152C1279.71 366.044 1279.49 365.99 1279.28 365.99C1279.03 365.99 1278.79 366.038 1278.56 366.134C1278.32 366.242 1278.1 366.362 1277.88 366.494C1277.44 366.794 1277.03 367.136 1276.67 367.52C1276.3 367.904 1275.96 368.306 1275.65 368.726C1275.41 369.062 1275.2 369.422 1275.04 369.806C1274.87 370.19 1274.83 370.592 1274.91 371.012C1274.95 371.204 1275.02 371.372 1275.14 371.516C1275.26 371.672 1275.41 371.804 1275.58 371.912C1275.74 372.02 1275.92 372.11 1276.12 372.182C1276.31 372.254 1276.49 372.308 1276.67 372.344C1277.09 372.44 1277.49 372.488 1277.86 372.488C1278.33 372.488 1278.8 372.416 1279.27 372.272C1279.72 372.128 1280.18 371.948 1280.65 371.732C1281.11 371.516 1281.55 371.288 1281.97 371.048C1282.1 370.976 1282.27 370.88 1282.47 370.76C1282.66 370.64 1282.84 370.604 1283.01 370.652C1283.08 370.664 1283.14 370.712 1283.19 370.796C1283.23 370.88 1283.25 370.976 1283.26 371.084C1283.27 371.192 1283.27 371.3 1283.26 371.408C1283.25 371.516 1283.23 371.6 1283.21 371.66C1283.16 371.828 1283.09 371.972 1282.99 372.092C1282.88 372.224 1282.76 372.338 1282.63 372.434C1282.5 372.542 1282.36 372.638 1282.22 372.722C1282.06 372.818 1281.92 372.908 1281.79 372.992C1281.37 373.244 1280.94 373.466 1280.51 373.658C1280.08 373.862 1279.61 374.018 1279.12 374.126C1278.85 374.186 1278.58 374.252 1278.33 374.324C1278.07 374.396 1277.8 374.42 1277.52 374.396C1277.3 374.372 1277.08 374.342 1276.85 374.306C1276.63 374.282 1276.4 374.246 1276.19 374.198C1275.78 374.102 1275.41 373.946 1275.07 373.73C1274.74 373.526 1274.43 373.274 1274.15 372.974C1273.95 372.746 1273.82 372.512 1273.76 372.272C1273.7 372.044 1273.67 371.804 1273.67 371.552C1273.67 371.312 1273.69 371.072 1273.72 370.832C1273.75 370.592 1273.81 370.34 1273.9 370.076C1274 369.824 1274.09 369.584 1274.17 369.356C1274.27 369.08 1274.38 368.816 1274.51 368.564C1274.63 368.312 1274.76 368.066 1274.89 367.826C1275.19 367.298 1275.53 366.812 1275.92 366.368C1276.29 365.936 1276.7 365.534 1277.16 365.162C1277.51 364.886 1277.87 364.634 1278.24 364.406C1278.61 364.19 1279.02 364.052 1279.46 363.992C1279.81 363.932 1280.16 363.968 1280.51 364.1C1280.86 364.244 1281.15 364.442 1281.39 364.694C1281.52 364.838 1281.62 364.976 1281.7 365.108C1281.76 365.24 1281.83 365.396 1281.93 365.576ZM1286.79 364.37C1286.7 364.838 1286.62 365.306 1286.56 365.774C1286.49 366.242 1286.43 366.71 1286.38 367.178C1286.35 367.37 1286.32 367.556 1286.29 367.736C1286.25 367.916 1286.22 368.102 1286.2 368.294C1286.17 368.462 1286.16 368.63 1286.16 368.798L1286.14 369.302C1286.14 369.41 1286.14 369.554 1286.13 369.734C1286.11 369.914 1286.1 370.1 1286.09 370.292C1286.07 370.484 1286.04 370.664 1286 370.832C1285.95 371 1285.89 371.12 1285.82 371.192L1285.71 371.3C1285.66 371.348 1285.62 371.39 1285.57 371.426C1285.51 371.462 1285.45 371.486 1285.41 371.498C1285.36 371.51 1285.32 371.492 1285.28 371.444C1285.22 371.396 1285.18 371.324 1285.15 371.228C1285.12 371.132 1285.09 371.03 1285.08 370.922L1285.06 370.616C1285.05 370.508 1285.04 370.418 1285.03 370.346C1285 370.19 1285 370.034 1285.03 369.878C1285.04 369.722 1285.06 369.572 1285.08 369.428C1285.11 369.26 1285.12 369.092 1285.12 368.924C1285.11 368.756 1285.11 368.588 1285.14 368.42L1285.21 367.79C1285.23 367.586 1285.25 367.382 1285.26 367.178L1285.33 366.224C1285.36 365.912 1285.4 365.6 1285.46 365.288L1285.5 364.874C1285.5 364.742 1285.51 364.61 1285.53 364.478C1285.56 364.358 1285.6 364.238 1285.68 364.118C1285.75 364.01 1285.87 363.908 1286.04 363.812C1286.16 363.752 1286.28 363.698 1286.4 363.65C1286.5 363.614 1286.62 363.644 1286.74 363.74C1286.83 363.824 1286.87 363.92 1286.85 364.028L1286.79 364.37ZM1286.04 372.956C1285.92 372.872 1285.74 372.842 1285.51 372.866C1285.27 372.89 1285.09 372.938 1284.97 373.01C1284.91 373.046 1284.86 373.1 1284.81 373.172C1284.76 373.244 1284.72 373.322 1284.69 373.406C1284.65 373.502 1284.62 373.598 1284.6 373.694C1284.57 373.79 1284.55 373.868 1284.54 373.928C1284.53 374.012 1284.51 374.108 1284.49 374.216C1284.45 374.336 1284.45 374.438 1284.47 374.522C1284.49 374.582 1284.54 374.642 1284.6 374.702C1284.66 374.762 1284.7 374.804 1284.74 374.828C1284.85 374.96 1284.96 374.996 1285.08 374.936C1285.2 374.888 1285.32 374.798 1285.42 374.666C1285.53 374.546 1285.63 374.408 1285.73 374.252C1285.81 374.108 1285.88 374 1285.93 373.928C1285.95 373.868 1285.99 373.814 1286.04 373.766C1286.07 373.73 1286.1 373.682 1286.13 373.622C1286.19 373.526 1286.21 373.406 1286.2 373.262C1286.19 373.118 1286.13 373.016 1286.04 372.956Z" fill="black"/>
</g>
<defs>
<clipPath id="clip0_46_328">
<rect width="660" height="621" fill="white" transform="translate(674)"/>
</clipPath>
</defs>
</svg>
